ISO-10303-21;
HEADER;
/* Generated by software containing ST-Developer
 * from STEP Tools, Inc. (www.steptools.com) 
 */

FILE_DESCRIPTION(
/* description */ (''),
/* implementation_level */ '2;1');

FILE_NAME(
/* name */ 'MirrorSupport.step',
/* time_stamp */ '2026-09-05T23:46:21-03:00',
/* author */ (''),
/* organization */ (''),
/* preprocessor_version */ 'ST-DEVELOPER v20.2',
/* originating_system */ 'Autodesk Translation Framework v15.15.0.0',
/* authorisation */ '');

FILE_SCHEMA (('AUTOMOTIVE_DESIGN { 1 0 10303 214 3 1 1 }'));
ENDSEC;

DATA;
#10=MECHANICAL_DESIGN_GEOMETRIC_PRESENTATION_REPRESENTATION('',(#13),#1407);
#11=SHAPE_REPRESENTATION_RELATIONSHIP('SRR','None',#1414,#12);
#12=ADVANCED_BREP_SHAPE_REPRESENTATION('',(#14),#1406);
#13=STYLED_ITEM('',(#1423),#14);
#14=MANIFOLD_SOLID_BREP('Body1',#889);
#15=FACE_BOUND('',#138,.T.);
#16=FACE_BOUND('',#139,.T.);
#17=FACE_BOUND('',#140,.T.);
#18=FACE_BOUND('',#143,.T.);
#19=FACE_BOUND('',#144,.T.);
#20=FACE_BOUND('',#145,.T.);
#21=FACE_BOUND('',#147,.T.);
#22=FACE_BOUND('',#148,.T.);
#23=PLANE('',#906);
#24=PLANE('',#910);
#25=PLANE('',#911);
#26=PLANE('',#912);
#27=PLANE('',#913);
#28=PLANE('',#914);
#29=PLANE('',#915);
#30=PLANE('',#916);
#31=PLANE('',#917);
#32=PLANE('',#918);
#33=PLANE('',#919);
#34=PLANE('',#920);
#35=PLANE('',#921);
#36=PLANE('',#922);
#37=PLANE('',#923);
#38=PLANE('',#924);
#39=PLANE('',#925);
#40=PLANE('',#926);
#41=PLANE('',#927);
#42=PLANE('',#928);
#43=PLANE('',#929);
#44=PLANE('',#930);
#45=PLANE('',#931);
#46=PLANE('',#932);
#47=PLANE('',#933);
#48=PLANE('',#934);
#49=PLANE('',#935);
#50=PLANE('',#936);
#51=PLANE('',#937);
#52=PLANE('',#938);
#53=PLANE('',#939);
#54=PLANE('',#940);
#55=PLANE('',#941);
#56=PLANE('',#942);
#57=PLANE('',#943);
#58=PLANE('',#944);
#59=PLANE('',#945);
#60=PLANE('',#946);
#61=FACE_OUTER_BOUND('',#101,.T.);
#62=FACE_OUTER_BOUND('',#102,.T.);
#63=FACE_OUTER_BOUND('',#103,.T.);
#64=FACE_OUTER_BOUND('',#104,.T.);
#65=FACE_OUTER_BOUND('',#105,.T.);
#66=FACE_OUTER_BOUND('',#106,.T.);
#67=FACE_OUTER_BOUND('',#107,.T.);
#68=FACE_OUTER_BOUND('',#108,.T.);
#69=FACE_OUTER_BOUND('',#109,.T.);
#70=FACE_OUTER_BOUND('',#110,.T.);
#71=FACE_OUTER_BOUND('',#111,.T.);
#72=FACE_OUTER_BOUND('',#112,.T.);
#73=FACE_OUTER_BOUND('',#113,.T.);
#74=FACE_OUTER_BOUND('',#114,.T.);
#75=FACE_OUTER_BOUND('',#115,.T.);
#76=FACE_OUTER_BOUND('',#116,.T.);
#77=FACE_OUTER_BOUND('',#117,.T.);
#78=FACE_OUTER_BOUND('',#118,.T.);
#79=FACE_OUTER_BOUND('',#119,.T.);
#80=FACE_OUTER_BOUND('',#120,.T.);
#81=FACE_OUTER_BOUND('',#121,.T.);
#82=FACE_OUTER_BOUND('',#122,.T.);
#83=FACE_OUTER_BOUND('',#123,.T.);
#84=FACE_OUTER_BOUND('',#124,.T.);
#85=FACE_OUTER_BOUND('',#125,.T.);
#86=FACE_OUTER_BOUND('',#126,.T.);
#87=FACE_OUTER_BOUND('',#127,.T.);
#88=FACE_OUTER_BOUND('',#128,.T.);
#89=FACE_OUTER_BOUND('',#129,.T.);
#90=FACE_OUTER_BOUND('',#130,.T.);
#91=FACE_OUTER_BOUND('',#131,.T.);
#92=FACE_OUTER_BOUND('',#132,.T.);
#93=FACE_OUTER_BOUND('',#133,.T.);
#94=FACE_OUTER_BOUND('',#134,.T.);
#95=FACE_OUTER_BOUND('',#135,.T.);
#96=FACE_OUTER_BOUND('',#136,.T.);
#97=FACE_OUTER_BOUND('',#137,.T.);
#98=FACE_OUTER_BOUND('',#141,.T.);
#99=FACE_OUTER_BOUND('',#142,.T.);
#100=FACE_OUTER_BOUND('',#146,.T.);
#101=EDGE_LOOP('',(#599,#600,#601,#602));
#102=EDGE_LOOP('',(#603));
#103=EDGE_LOOP('',(#604,#605,#606,#607));
#104=EDGE_LOOP('',(#608));
#105=EDGE_LOOP('',(#609,#610,#611,#612));
#106=EDGE_LOOP('',(#613,#614,#615,#616));
#107=EDGE_LOOP('',(#617,#618,#619,#620,#621,#622,#623,#624,#625,#626,#627,
#628,#629,#630,#631,#632,#633,#634,#635,#636,#637,#638,#639,#640,#641,#642,
#643,#644,#645,#646,#647,#648,#649,#650,#651,#652));
#108=EDGE_LOOP('',(#653,#654,#655,#656));
#109=EDGE_LOOP('',(#657,#658,#659,#660));
#110=EDGE_LOOP('',(#661,#662,#663,#664));
#111=EDGE_LOOP('',(#665,#666,#667,#668));
#112=EDGE_LOOP('',(#669,#670,#671,#672));
#113=EDGE_LOOP('',(#673,#674,#675,#676));
#114=EDGE_LOOP('',(#677,#678,#679,#680));
#115=EDGE_LOOP('',(#681,#682,#683,#684));
#116=EDGE_LOOP('',(#685,#686,#687,#688));
#117=EDGE_LOOP('',(#689,#690,#691,#692,#693,#694,#695,#696,#697,#698,#699,
#700,#701,#702,#703));
#118=EDGE_LOOP('',(#704,#705,#706,#707,#708,#709,#710,#711));
#119=EDGE_LOOP('',(#712,#713,#714,#715));
#120=EDGE_LOOP('',(#716,#717,#718,#719));
#121=EDGE_LOOP('',(#720,#721,#722,#723));
#122=EDGE_LOOP('',(#724,#725,#726,#727));
#123=EDGE_LOOP('',(#728,#729,#730,#731));
#124=EDGE_LOOP('',(#732,#733,#734,#735));
#125=EDGE_LOOP('',(#736,#737,#738,#739));
#126=EDGE_LOOP('',(#740,#741,#742,#743));
#127=EDGE_LOOP('',(#744,#745,#746,#747));
#128=EDGE_LOOP('',(#748,#749,#750,#751));
#129=EDGE_LOOP('',(#752,#753,#754,#755));
#130=EDGE_LOOP('',(#756,#757,#758,#759));
#131=EDGE_LOOP('',(#760,#761,#762,#763));
#132=EDGE_LOOP('',(#764,#765,#766,#767));
#133=EDGE_LOOP('',(#768,#769,#770,#771,#772,#773,#774,#775));
#134=EDGE_LOOP('',(#776,#777,#778,#779));
#135=EDGE_LOOP('',(#780,#781,#782,#783,#784,#785,#786,#787,#788,#789,#790,
#791,#792,#793,#794));
#136=EDGE_LOOP('',(#795,#796,#797,#798,#799,#800,#801,#802));
#137=EDGE_LOOP('',(#803,#804,#805,#806,#807));
#138=EDGE_LOOP('',(#808,#809,#810));
#139=EDGE_LOOP('',(#811,#812,#813,#814));
#140=EDGE_LOOP('',(#815,#816,#817,#818));
#141=EDGE_LOOP('',(#819,#820,#821,#822,#823,#824));
#142=EDGE_LOOP('',(#825,#826,#827,#828,#829));
#143=EDGE_LOOP('',(#830,#831,#832,#833));
#144=EDGE_LOOP('',(#834,#835,#836));
#145=EDGE_LOOP('',(#837,#838,#839,#840));
#146=EDGE_LOOP('',(#841,#842,#843,#844));
#147=EDGE_LOOP('',(#845));
#148=EDGE_LOOP('',(#846));
#149=LINE('',#1162,#269);
#150=LINE('',#1169,#270);
#151=LINE('',#1175,#271);
#152=LINE('',#1177,#272);
#153=LINE('',#1179,#273);
#154=LINE('',#1180,#274);
#155=LINE('',#1184,#275);
#156=LINE('',#1186,#276);
#157=LINE('',#1188,#277);
#158=LINE('',#1189,#278);
#159=LINE('',#1191,#279);
#160=LINE('',#1193,#280);
#161=LINE('',#1195,#281);
#162=LINE('',#1197,#282);
#163=LINE('',#1199,#283);
#164=LINE('',#1201,#284);
#165=LINE('',#1203,#285);
#166=LINE('',#1205,#286);
#167=LINE('',#1207,#287);
#168=LINE('',#1209,#288);
#169=LINE('',#1211,#289);
#170=LINE('',#1213,#290);
#171=LINE('',#1215,#291);
#172=LINE('',#1217,#292);
#173=LINE('',#1219,#293);
#174=LINE('',#1221,#294);
#175=LINE('',#1223,#295);
#176=LINE('',#1225,#296);
#177=LINE('',#1227,#297);
#178=LINE('',#1229,#298);
#179=LINE('',#1231,#299);
#180=LINE('',#1233,#300);
#181=LINE('',#1235,#301);
#182=LINE('',#1237,#302);
#183=LINE('',#1239,#303);
#184=LINE('',#1241,#304);
#185=LINE('',#1243,#305);
#186=LINE('',#1245,#306);
#187=LINE('',#1247,#307);
#188=LINE('',#1249,#308);
#189=LINE('',#1251,#309);
#190=LINE('',#1253,#310);
#191=LINE('',#1255,#311);
#192=LINE('',#1256,#312);
#193=LINE('',#1258,#313);
#194=LINE('',#1259,#314);
#195=LINE('',#1263,#315);
#196=LINE('',#1264,#316);
#197=LINE('',#1265,#317);
#198=LINE('',#1269,#318);
#199=LINE('',#1270,#319);
#200=LINE('',#1271,#320);
#201=LINE('',#1273,#321);
#202=LINE('',#1274,#322);
#203=LINE('',#1278,#323);
#204=LINE('',#1279,#324);
#205=LINE('',#1280,#325);
#206=LINE('',#1284,#326);
#207=LINE('',#1285,#327);
#208=LINE('',#1286,#328);
#209=LINE('',#1289,#329);
#210=LINE('',#1290,#330);
#211=LINE('',#1293,#331);
#212=LINE('',#1294,#332);
#213=LINE('',#1297,#333);
#214=LINE('',#1298,#334);
#215=LINE('',#1301,#335);
#216=LINE('',#1302,#336);
#217=LINE('',#1303,#337);
#218=LINE('',#1306,#338);
#219=LINE('',#1308,#339);
#220=LINE('',#1309,#340);
#221=LINE('',#1312,#341);
#222=LINE('',#1313,#342);
#223=LINE('',#1315,#343);
#224=LINE('',#1319,#344);
#225=LINE('',#1320,#345);
#226=LINE('',#1321,#346);
#227=LINE('',#1325,#347);
#228=LINE('',#1326,#348);
#229=LINE('',#1327,#349);
#230=LINE('',#1330,#350);
#231=LINE('',#1332,#351);
#232=LINE('',#1333,#352);
#233=LINE('',#1337,#353);
#234=LINE('',#1338,#354);
#235=LINE('',#1339,#355);
#236=LINE('',#1341,#356);
#237=LINE('',#1342,#357);
#238=LINE('',#1345,#358);
#239=LINE('',#1347,#359);
#240=LINE('',#1348,#360);
#241=LINE('',#1350,#361);
#242=LINE('',#1351,#362);
#243=LINE('',#1355,#363);
#244=LINE('',#1356,#364);
#245=LINE('',#1357,#365);
#246=LINE('',#1361,#366);
#247=LINE('',#1362,#367);
#248=LINE('',#1363,#368);
#249=LINE('',#1365,#369);
#250=LINE('',#1368,#370);
#251=LINE('',#1369,#371);
#252=LINE('',#1373,#372);
#253=LINE('',#1374,#373);
#254=LINE('',#1375,#374);
#255=LINE('',#1378,#375);
#256=LINE('',#1380,#376);
#257=LINE('',#1381,#377);
#258=LINE('',#1383,#378);
#259=LINE('',#1384,#379);
#260=LINE('',#1386,#380);
#261=LINE('',#1390,#381);
#262=LINE('',#1391,#382);
#263=LINE('',#1392,#383);
#264=LINE('',#1395,#384);
#265=LINE('',#1396,#385);
#266=LINE('',#1399,#386);
#267=LINE('',#1400,#387);
#268=LINE('',#1402,#388);
#269=VECTOR('',#953,15.5);
#270=VECTOR('',#962,15.5);
#271=VECTOR('',#969,10.);
#272=VECTOR('',#970,10.);
#273=VECTOR('',#971,10.);
#274=VECTOR('',#972,10.);
#275=VECTOR('',#975,10.);
#276=VECTOR('',#976,10.);
#277=VECTOR('',#977,10.);
#278=VECTOR('',#978,10.);
#279=VECTOR('',#981,10.);
#280=VECTOR('',#982,10.);
#281=VECTOR('',#983,10.);
#282=VECTOR('',#984,10.);
#283=VECTOR('',#985,10.);
#284=VECTOR('',#986,10.);
#285=VECTOR('',#987,10.);
#286=VECTOR('',#988,10.);
#287=VECTOR('',#989,10.);
#288=VECTOR('',#990,10.);
#289=VECTOR('',#991,10.);
#290=VECTOR('',#992,10.);
#291=VECTOR('',#993,10.);
#292=VECTOR('',#994,10.);
#293=VECTOR('',#995,10.);
#294=VECTOR('',#996,10.);
#295=VECTOR('',#997,10.);
#296=VECTOR('',#998,10.);
#297=VECTOR('',#999,10.);
#298=VECTOR('',#1000,10.);
#299=VECTOR('',#1001,10.);
#300=VECTOR('',#1002,10.);
#301=VECTOR('',#1003,10.);
#302=VECTOR('',#1004,10.);
#303=VECTOR('',#1005,10.);
#304=VECTOR('',#1006,10.);
#305=VECTOR('',#1007,10.);
#306=VECTOR('',#1008,10.);
#307=VECTOR('',#1009,10.);
#308=VECTOR('',#1010,10.);
#309=VECTOR('',#1011,10.);
#310=VECTOR('',#1012,10.);
#311=VECTOR('',#1013,10.);
#312=VECTOR('',#1014,10.);
#313=VECTOR('',#1017,10.);
#314=VECTOR('',#1018,10.);
#315=VECTOR('',#1021,10.);
#316=VECTOR('',#1022,10.);
#317=VECTOR('',#1023,10.);
#318=VECTOR('',#1026,10.);
#319=VECTOR('',#1027,10.);
#320=VECTOR('',#1028,10.);
#321=VECTOR('',#1031,10.);
#322=VECTOR('',#1032,10.);
#323=VECTOR('',#1035,10.);
#324=VECTOR('',#1036,10.);
#325=VECTOR('',#1037,10.);
#326=VECTOR('',#1040,10.);
#327=VECTOR('',#1041,10.);
#328=VECTOR('',#1042,10.);
#329=VECTOR('',#1045,10.);
#330=VECTOR('',#1046,10.);
#331=VECTOR('',#1049,10.);
#332=VECTOR('',#1050,10.);
#333=VECTOR('',#1053,10.);
#334=VECTOR('',#1054,10.);
#335=VECTOR('',#1057,10.);
#336=VECTOR('',#1058,10.);
#337=VECTOR('',#1059,10.);
#338=VECTOR('',#1062,10.);
#339=VECTOR('',#1063,10.);
#340=VECTOR('',#1064,10.);
#341=VECTOR('',#1067,10.);
#342=VECTOR('',#1068,10.);
#343=VECTOR('',#1071,10.);
#344=VECTOR('',#1074,10.);
#345=VECTOR('',#1075,10.);
#346=VECTOR('',#1076,10.);
#347=VECTOR('',#1079,10.);
#348=VECTOR('',#1080,10.);
#349=VECTOR('',#1081,10.);
#350=VECTOR('',#1084,10.);
#351=VECTOR('',#1085,10.);
#352=VECTOR('',#1086,10.);
#353=VECTOR('',#1089,10.);
#354=VECTOR('',#1090,10.);
#355=VECTOR('',#1091,10.);
#356=VECTOR('',#1094,10.);
#357=VECTOR('',#1095,10.);
#358=VECTOR('',#1098,10.);
#359=VECTOR('',#1099,10.);
#360=VECTOR('',#1100,10.);
#361=VECTOR('',#1103,10.);
#362=VECTOR('',#1104,10.);
#363=VECTOR('',#1107,10.);
#364=VECTOR('',#1108,10.);
#365=VECTOR('',#1109,10.);
#366=VECTOR('',#1112,10.);
#367=VECTOR('',#1113,10.);
#368=VECTOR('',#1114,10.);
#369=VECTOR('',#1117,10.);
#370=VECTOR('',#1120,10.);
#371=VECTOR('',#1121,10.);
#372=VECTOR('',#1124,10.);
#373=VECTOR('',#1125,10.);
#374=VECTOR('',#1126,10.);
#375=VECTOR('',#1129,10.);
#376=VECTOR('',#1130,10.);
#377=VECTOR('',#1131,10.);
#378=VECTOR('',#1134,10.);
#379=VECTOR('',#1135,10.);
#380=VECTOR('',#1138,10.);
#381=VECTOR('',#1141,10.);
#382=VECTOR('',#1142,10.);
#383=VECTOR('',#1143,10.);
#384=VECTOR('',#1146,10.);
#385=VECTOR('',#1147,10.);
#386=VECTOR('',#1150,10.);
#387=VECTOR('',#1151,10.);
#388=VECTOR('',#1154,10.);
#389=CIRCLE('',#904,15.5);
#390=CIRCLE('',#905,15.5);
#391=CIRCLE('',#908,15.5);
#392=CIRCLE('',#909,15.5);
#393=VERTEX_POINT('',#1159);
#394=VERTEX_POINT('',#1161);
#395=VERTEX_POINT('',#1166);
#396=VERTEX_POINT('',#1168);
#397=VERTEX_POINT('',#1173);
#398=VERTEX_POINT('',#1174);
#399=VERTEX_POINT('',#1176);
#400=VERTEX_POINT('',#1178);
#401=VERTEX_POINT('',#1182);
#402=VERTEX_POINT('',#1183);
#403=VERTEX_POINT('',#1185);
#404=VERTEX_POINT('',#1187);
#405=VERTEX_POINT('',#1192);
#406=VERTEX_POINT('',#1194);
#407=VERTEX_POINT('',#1196);
#408=VERTEX_POINT('',#1198);
#409=VERTEX_POINT('',#1200);
#410=VERTEX_POINT('',#1202);
#411=VERTEX_POINT('',#1204);
#412=VERTEX_POINT('',#1206);
#413=VERTEX_POINT('',#1208);
#414=VERTEX_POINT('',#1210);
#415=VERTEX_POINT('',#1212);
#416=VERTEX_POINT('',#1214);
#417=VERTEX_POINT('',#1216);
#418=VERTEX_POINT('',#1218);
#419=VERTEX_POINT('',#1220);
#420=VERTEX_POINT('',#1222);
#421=VERTEX_POINT('',#1224);
#422=VERTEX_POINT('',#1226);
#423=VERTEX_POINT('',#1228);
#424=VERTEX_POINT('',#1230);
#425=VERTEX_POINT('',#1232);
#426=VERTEX_POINT('',#1234);
#427=VERTEX_POINT('',#1236);
#428=VERTEX_POINT('',#1238);
#429=VERTEX_POINT('',#1240);
#430=VERTEX_POINT('',#1242);
#431=VERTEX_POINT('',#1244);
#432=VERTEX_POINT('',#1246);
#433=VERTEX_POINT('',#1248);
#434=VERTEX_POINT('',#1250);
#435=VERTEX_POINT('',#1252);
#436=VERTEX_POINT('',#1254);
#437=VERTEX_POINT('',#1261);
#438=VERTEX_POINT('',#1262);
#439=VERTEX_POINT('',#1267);
#440=VERTEX_POINT('',#1268);
#441=VERTEX_POINT('',#1276);
#442=VERTEX_POINT('',#1277);
#443=VERTEX_POINT('',#1282);
#444=VERTEX_POINT('',#1283);
#445=VERTEX_POINT('',#1288);
#446=VERTEX_POINT('',#1292);
#447=VERTEX_POINT('',#1296);
#448=VERTEX_POINT('',#1300);
#449=VERTEX_POINT('',#1305);
#450=VERTEX_POINT('',#1307);
#451=VERTEX_POINT('',#1311);
#452=VERTEX_POINT('',#1317);
#453=VERTEX_POINT('',#1318);
#454=VERTEX_POINT('',#1323);
#455=VERTEX_POINT('',#1324);
#456=VERTEX_POINT('',#1329);
#457=VERTEX_POINT('',#1331);
#458=VERTEX_POINT('',#1335);
#459=VERTEX_POINT('',#1336);
#460=VERTEX_POINT('',#1344);
#461=VERTEX_POINT('',#1346);
#462=VERTEX_POINT('',#1353);
#463=VERTEX_POINT('',#1354);
#464=VERTEX_POINT('',#1359);
#465=VERTEX_POINT('',#1360);
#466=VERTEX_POINT('',#1367);
#467=VERTEX_POINT('',#1371);
#468=VERTEX_POINT('',#1372);
#469=VERTEX_POINT('',#1377);
#470=VERTEX_POINT('',#1379);
#471=VERTEX_POINT('',#1388);
#472=VERTEX_POINT('',#1389);
#473=VERTEX_POINT('',#1394);
#474=VERTEX_POINT('',#1398);
#475=EDGE_CURVE('',#393,#393,#389,.T.);
#476=EDGE_CURVE('',#393,#394,#149,.T.);
#477=EDGE_CURVE('',#394,#394,#390,.T.);
#478=EDGE_CURVE('',#395,#395,#391,.T.);
#479=EDGE_CURVE('',#395,#396,#150,.T.);
#480=EDGE_CURVE('',#396,#396,#392,.T.);
#481=EDGE_CURVE('',#397,#398,#151,.T.);
#482=EDGE_CURVE('',#399,#397,#152,.T.);
#483=EDGE_CURVE('',#400,#399,#153,.T.);
#484=EDGE_CURVE('',#400,#398,#154,.T.);
#485=EDGE_CURVE('',#401,#402,#155,.T.);
#486=EDGE_CURVE('',#403,#401,#156,.T.);
#487=EDGE_CURVE('',#404,#403,#157,.T.);
#488=EDGE_CURVE('',#404,#402,#158,.T.);
#489=EDGE_CURVE('',#399,#404,#159,.T.);
#490=EDGE_CURVE('',#403,#405,#160,.T.);
#491=EDGE_CURVE('',#405,#406,#161,.T.);
#492=EDGE_CURVE('',#406,#407,#162,.T.);
#493=EDGE_CURVE('',#407,#408,#163,.T.);
#494=EDGE_CURVE('',#408,#409,#164,.T.);
#495=EDGE_CURVE('',#409,#410,#165,.T.);
#496=EDGE_CURVE('',#410,#411,#166,.T.);
#497=EDGE_CURVE('',#411,#412,#167,.T.);
#498=EDGE_CURVE('',#412,#413,#168,.T.);
#499=EDGE_CURVE('',#413,#414,#169,.T.);
#500=EDGE_CURVE('',#414,#415,#170,.T.);
#501=EDGE_CURVE('',#415,#416,#171,.T.);
#502=EDGE_CURVE('',#416,#417,#172,.T.);
#503=EDGE_CURVE('',#417,#418,#173,.T.);
#504=EDGE_CURVE('',#418,#419,#174,.T.);
#505=EDGE_CURVE('',#419,#420,#175,.T.);
#506=EDGE_CURVE('',#420,#421,#176,.T.);
#507=EDGE_CURVE('',#421,#422,#177,.T.);
#508=EDGE_CURVE('',#422,#423,#178,.T.);
#509=EDGE_CURVE('',#423,#424,#179,.T.);
#510=EDGE_CURVE('',#424,#425,#180,.T.);
#511=EDGE_CURVE('',#426,#425,#181,.T.);
#512=EDGE_CURVE('',#427,#426,#182,.T.);
#513=EDGE_CURVE('',#428,#427,#183,.T.);
#514=EDGE_CURVE('',#428,#429,#184,.T.);
#515=EDGE_CURVE('',#429,#430,#185,.T.);
#516=EDGE_CURVE('',#430,#431,#186,.T.);
#517=EDGE_CURVE('',#432,#431,#187,.T.);
#518=EDGE_CURVE('',#433,#432,#188,.T.);
#519=EDGE_CURVE('',#434,#433,#189,.T.);
#520=EDGE_CURVE('',#434,#435,#190,.T.);
#521=EDGE_CURVE('',#435,#436,#191,.T.);
#522=EDGE_CURVE('',#436,#400,#192,.T.);
#523=EDGE_CURVE('',#436,#398,#193,.T.);
#524=EDGE_CURVE('',#435,#397,#194,.T.);
#525=EDGE_CURVE('',#437,#438,#195,.T.);
#526=EDGE_CURVE('',#406,#437,#196,.T.);
#527=EDGE_CURVE('',#405,#438,#197,.T.);
#528=EDGE_CURVE('',#439,#440,#198,.T.);
#529=EDGE_CURVE('',#408,#439,#199,.T.);
#530=EDGE_CURVE('',#407,#440,#200,.T.);
#531=EDGE_CURVE('',#402,#437,#201,.T.);
#532=EDGE_CURVE('',#401,#438,#202,.T.);
#533=EDGE_CURVE('',#441,#442,#203,.T.);
#534=EDGE_CURVE('',#410,#441,#204,.T.);
#535=EDGE_CURVE('',#409,#442,#205,.T.);
#536=EDGE_CURVE('',#443,#444,#206,.T.);
#537=EDGE_CURVE('',#434,#443,#207,.T.);
#538=EDGE_CURVE('',#444,#433,#208,.T.);
#539=EDGE_CURVE('',#444,#445,#209,.T.);
#540=EDGE_CURVE('',#445,#432,#210,.T.);
#541=EDGE_CURVE('',#445,#446,#211,.T.);
#542=EDGE_CURVE('',#446,#431,#212,.T.);
#543=EDGE_CURVE('',#447,#430,#213,.T.);
#544=EDGE_CURVE('',#446,#447,#214,.T.);
#545=EDGE_CURVE('',#448,#443,#215,.T.);
#546=EDGE_CURVE('',#411,#448,#216,.T.);
#547=EDGE_CURVE('',#440,#441,#217,.T.);
#548=EDGE_CURVE('',#449,#447,#218,.T.);
#549=EDGE_CURVE('',#450,#449,#219,.T.);
#550=EDGE_CURVE('',#450,#448,#220,.T.);
#551=EDGE_CURVE('',#451,#449,#221,.T.);
#552=EDGE_CURVE('',#430,#451,#222,.T.);
#553=EDGE_CURVE('',#439,#442,#223,.T.);
#554=EDGE_CURVE('',#452,#453,#224,.T.);
#555=EDGE_CURVE('',#420,#452,#225,.T.);
#556=EDGE_CURVE('',#419,#453,#226,.T.);
#557=EDGE_CURVE('',#454,#455,#227,.T.);
#558=EDGE_CURVE('',#422,#454,#228,.T.);
#559=EDGE_CURVE('',#421,#455,#229,.T.);
#560=EDGE_CURVE('',#453,#456,#230,.T.);
#561=EDGE_CURVE('',#456,#457,#231,.T.);
#562=EDGE_CURVE('',#452,#457,#232,.T.);
#563=EDGE_CURVE('',#458,#459,#233,.T.);
#564=EDGE_CURVE('',#416,#458,#234,.T.);
#565=EDGE_CURVE('',#415,#459,#235,.T.);
#566=EDGE_CURVE('',#418,#456,#236,.T.);
#567=EDGE_CURVE('',#417,#457,#237,.T.);
#568=EDGE_CURVE('',#459,#460,#238,.T.);
#569=EDGE_CURVE('',#460,#461,#239,.T.);
#570=EDGE_CURVE('',#458,#461,#240,.T.);
#571=EDGE_CURVE('',#414,#460,#241,.T.);
#572=EDGE_CURVE('',#413,#461,#242,.T.);
#573=EDGE_CURVE('',#462,#463,#243,.T.);
#574=EDGE_CURVE('',#428,#462,#244,.T.);
#575=EDGE_CURVE('',#463,#427,#245,.T.);
#576=EDGE_CURVE('',#464,#465,#246,.T.);
#577=EDGE_CURVE('',#464,#426,#247,.T.);
#578=EDGE_CURVE('',#465,#425,#248,.T.);
#579=EDGE_CURVE('',#463,#464,#249,.T.);
#580=EDGE_CURVE('',#462,#466,#250,.T.);
#581=EDGE_CURVE('',#466,#429,#251,.T.);
#582=EDGE_CURVE('',#467,#468,#252,.T.);
#583=EDGE_CURVE('',#467,#429,#253,.T.);
#584=EDGE_CURVE('',#468,#466,#254,.T.);
#585=EDGE_CURVE('',#469,#465,#255,.T.);
#586=EDGE_CURVE('',#470,#469,#256,.T.);
#587=EDGE_CURVE('',#470,#468,#257,.T.);
#588=EDGE_CURVE('',#424,#455,#258,.T.);
#589=EDGE_CURVE('',#423,#454,#259,.T.);
#590=EDGE_CURVE('',#412,#469,#260,.T.);
#591=EDGE_CURVE('',#471,#472,#261,.T.);
#592=EDGE_CURVE('',#472,#470,#262,.T.);
#593=EDGE_CURVE('',#471,#450,#263,.T.);
#594=EDGE_CURVE('',#473,#451,#264,.T.);
#595=EDGE_CURVE('',#473,#471,#265,.T.);
#596=EDGE_CURVE('',#474,#473,#266,.T.);
#597=EDGE_CURVE('',#474,#467,#267,.T.);
#598=EDGE_CURVE('',#472,#474,#268,.T.);
#599=ORIENTED_EDGE('',*,*,#475,.F.);
#600=ORIENTED_EDGE('',*,*,#476,.T.);
#601=ORIENTED_EDGE('',*,*,#477,.T.);
#602=ORIENTED_EDGE('',*,*,#476,.F.);
#603=ORIENTED_EDGE('',*,*,#477,.F.);
#604=ORIENTED_EDGE('',*,*,#478,.F.);
#605=ORIENTED_EDGE('',*,*,#479,.T.);
#606=ORIENTED_EDGE('',*,*,#480,.T.);
#607=ORIENTED_EDGE('',*,*,#479,.F.);
#608=ORIENTED_EDGE('',*,*,#480,.F.);
#609=ORIENTED_EDGE('',*,*,#481,.F.);
#610=ORIENTED_EDGE('',*,*,#482,.F.);
#611=ORIENTED_EDGE('',*,*,#483,.F.);
#612=ORIENTED_EDGE('',*,*,#484,.T.);
#613=ORIENTED_EDGE('',*,*,#485,.F.);
#614=ORIENTED_EDGE('',*,*,#486,.F.);
#615=ORIENTED_EDGE('',*,*,#487,.F.);
#616=ORIENTED_EDGE('',*,*,#488,.T.);
#617=ORIENTED_EDGE('',*,*,#483,.T.);
#618=ORIENTED_EDGE('',*,*,#489,.T.);
#619=ORIENTED_EDGE('',*,*,#487,.T.);
#620=ORIENTED_EDGE('',*,*,#490,.T.);
#621=ORIENTED_EDGE('',*,*,#491,.T.);
#622=ORIENTED_EDGE('',*,*,#492,.T.);
#623=ORIENTED_EDGE('',*,*,#493,.T.);
#624=ORIENTED_EDGE('',*,*,#494,.T.);
#625=ORIENTED_EDGE('',*,*,#495,.T.);
#626=ORIENTED_EDGE('',*,*,#496,.T.);
#627=ORIENTED_EDGE('',*,*,#497,.T.);
#628=ORIENTED_EDGE('',*,*,#498,.T.);
#629=ORIENTED_EDGE('',*,*,#499,.T.);
#630=ORIENTED_EDGE('',*,*,#500,.T.);
#631=ORIENTED_EDGE('',*,*,#501,.T.);
#632=ORIENTED_EDGE('',*,*,#502,.T.);
#633=ORIENTED_EDGE('',*,*,#503,.T.);
#634=ORIENTED_EDGE('',*,*,#504,.T.);
#635=ORIENTED_EDGE('',*,*,#505,.T.);
#636=ORIENTED_EDGE('',*,*,#506,.T.);
#637=ORIENTED_EDGE('',*,*,#507,.T.);
#638=ORIENTED_EDGE('',*,*,#508,.T.);
#639=ORIENTED_EDGE('',*,*,#509,.T.);
#640=ORIENTED_EDGE('',*,*,#510,.T.);
#641=ORIENTED_EDGE('',*,*,#511,.F.);
#642=ORIENTED_EDGE('',*,*,#512,.F.);
#643=ORIENTED_EDGE('',*,*,#513,.F.);
#644=ORIENTED_EDGE('',*,*,#514,.T.);
#645=ORIENTED_EDGE('',*,*,#515,.T.);
#646=ORIENTED_EDGE('',*,*,#516,.T.);
#647=ORIENTED_EDGE('',*,*,#517,.F.);
#648=ORIENTED_EDGE('',*,*,#518,.F.);
#649=ORIENTED_EDGE('',*,*,#519,.F.);
#650=ORIENTED_EDGE('',*,*,#520,.T.);
#651=ORIENTED_EDGE('',*,*,#521,.T.);
#652=ORIENTED_EDGE('',*,*,#522,.T.);
#653=ORIENTED_EDGE('',*,*,#481,.T.);
#654=ORIENTED_EDGE('',*,*,#523,.F.);
#655=ORIENTED_EDGE('',*,*,#521,.F.);
#656=ORIENTED_EDGE('',*,*,#524,.T.);
#657=ORIENTED_EDGE('',*,*,#525,.F.);
#658=ORIENTED_EDGE('',*,*,#526,.F.);
#659=ORIENTED_EDGE('',*,*,#491,.F.);
#660=ORIENTED_EDGE('',*,*,#527,.T.);
#661=ORIENTED_EDGE('',*,*,#528,.F.);
#662=ORIENTED_EDGE('',*,*,#529,.F.);
#663=ORIENTED_EDGE('',*,*,#493,.F.);
#664=ORIENTED_EDGE('',*,*,#530,.T.);
#665=ORIENTED_EDGE('',*,*,#485,.T.);
#666=ORIENTED_EDGE('',*,*,#531,.T.);
#667=ORIENTED_EDGE('',*,*,#525,.T.);
#668=ORIENTED_EDGE('',*,*,#532,.F.);
#669=ORIENTED_EDGE('',*,*,#533,.F.);
#670=ORIENTED_EDGE('',*,*,#534,.F.);
#671=ORIENTED_EDGE('',*,*,#495,.F.);
#672=ORIENTED_EDGE('',*,*,#535,.T.);
#673=ORIENTED_EDGE('',*,*,#536,.F.);
#674=ORIENTED_EDGE('',*,*,#537,.F.);
#675=ORIENTED_EDGE('',*,*,#519,.T.);
#676=ORIENTED_EDGE('',*,*,#538,.F.);
#677=ORIENTED_EDGE('',*,*,#539,.F.);
#678=ORIENTED_EDGE('',*,*,#538,.T.);
#679=ORIENTED_EDGE('',*,*,#518,.T.);
#680=ORIENTED_EDGE('',*,*,#540,.F.);
#681=ORIENTED_EDGE('',*,*,#541,.F.);
#682=ORIENTED_EDGE('',*,*,#540,.T.);
#683=ORIENTED_EDGE('',*,*,#517,.T.);
#684=ORIENTED_EDGE('',*,*,#542,.F.);
#685=ORIENTED_EDGE('',*,*,#542,.T.);
#686=ORIENTED_EDGE('',*,*,#516,.F.);
#687=ORIENTED_EDGE('',*,*,#543,.F.);
#688=ORIENTED_EDGE('',*,*,#544,.F.);
#689=ORIENTED_EDGE('',*,*,#537,.T.);
#690=ORIENTED_EDGE('',*,*,#545,.F.);
#691=ORIENTED_EDGE('',*,*,#546,.F.);
#692=ORIENTED_EDGE('',*,*,#496,.F.);
#693=ORIENTED_EDGE('',*,*,#534,.T.);
#694=ORIENTED_EDGE('',*,*,#547,.F.);
#695=ORIENTED_EDGE('',*,*,#530,.F.);
#696=ORIENTED_EDGE('',*,*,#492,.F.);
#697=ORIENTED_EDGE('',*,*,#526,.T.);
#698=ORIENTED_EDGE('',*,*,#531,.F.);
#699=ORIENTED_EDGE('',*,*,#488,.F.);
#700=ORIENTED_EDGE('',*,*,#489,.F.);
#701=ORIENTED_EDGE('',*,*,#482,.T.);
#702=ORIENTED_EDGE('',*,*,#524,.F.);
#703=ORIENTED_EDGE('',*,*,#520,.F.);
#704=ORIENTED_EDGE('',*,*,#536,.T.);
#705=ORIENTED_EDGE('',*,*,#539,.T.);
#706=ORIENTED_EDGE('',*,*,#541,.T.);
#707=ORIENTED_EDGE('',*,*,#544,.T.);
#708=ORIENTED_EDGE('',*,*,#548,.F.);
#709=ORIENTED_EDGE('',*,*,#549,.F.);
#710=ORIENTED_EDGE('',*,*,#550,.T.);
#711=ORIENTED_EDGE('',*,*,#545,.T.);
#712=ORIENTED_EDGE('',*,*,#551,.T.);
#713=ORIENTED_EDGE('',*,*,#548,.T.);
#714=ORIENTED_EDGE('',*,*,#543,.T.);
#715=ORIENTED_EDGE('',*,*,#552,.T.);
#716=ORIENTED_EDGE('',*,*,#528,.T.);
#717=ORIENTED_EDGE('',*,*,#547,.T.);
#718=ORIENTED_EDGE('',*,*,#533,.T.);
#719=ORIENTED_EDGE('',*,*,#553,.F.);
#720=ORIENTED_EDGE('',*,*,#554,.F.);
#721=ORIENTED_EDGE('',*,*,#555,.F.);
#722=ORIENTED_EDGE('',*,*,#505,.F.);
#723=ORIENTED_EDGE('',*,*,#556,.T.);
#724=ORIENTED_EDGE('',*,*,#557,.F.);
#725=ORIENTED_EDGE('',*,*,#558,.F.);
#726=ORIENTED_EDGE('',*,*,#507,.F.);
#727=ORIENTED_EDGE('',*,*,#559,.T.);
#728=ORIENTED_EDGE('',*,*,#554,.T.);
#729=ORIENTED_EDGE('',*,*,#560,.T.);
#730=ORIENTED_EDGE('',*,*,#561,.T.);
#731=ORIENTED_EDGE('',*,*,#562,.F.);
#732=ORIENTED_EDGE('',*,*,#563,.F.);
#733=ORIENTED_EDGE('',*,*,#564,.F.);
#734=ORIENTED_EDGE('',*,*,#501,.F.);
#735=ORIENTED_EDGE('',*,*,#565,.T.);
#736=ORIENTED_EDGE('',*,*,#561,.F.);
#737=ORIENTED_EDGE('',*,*,#566,.F.);
#738=ORIENTED_EDGE('',*,*,#503,.F.);
#739=ORIENTED_EDGE('',*,*,#567,.T.);
#740=ORIENTED_EDGE('',*,*,#563,.T.);
#741=ORIENTED_EDGE('',*,*,#568,.T.);
#742=ORIENTED_EDGE('',*,*,#569,.T.);
#743=ORIENTED_EDGE('',*,*,#570,.F.);
#744=ORIENTED_EDGE('',*,*,#569,.F.);
#745=ORIENTED_EDGE('',*,*,#571,.F.);
#746=ORIENTED_EDGE('',*,*,#499,.F.);
#747=ORIENTED_EDGE('',*,*,#572,.T.);
#748=ORIENTED_EDGE('',*,*,#573,.F.);
#749=ORIENTED_EDGE('',*,*,#574,.F.);
#750=ORIENTED_EDGE('',*,*,#513,.T.);
#751=ORIENTED_EDGE('',*,*,#575,.F.);
#752=ORIENTED_EDGE('',*,*,#576,.F.);
#753=ORIENTED_EDGE('',*,*,#577,.T.);
#754=ORIENTED_EDGE('',*,*,#511,.T.);
#755=ORIENTED_EDGE('',*,*,#578,.F.);
#756=ORIENTED_EDGE('',*,*,#579,.F.);
#757=ORIENTED_EDGE('',*,*,#575,.T.);
#758=ORIENTED_EDGE('',*,*,#512,.T.);
#759=ORIENTED_EDGE('',*,*,#577,.F.);
#760=ORIENTED_EDGE('',*,*,#574,.T.);
#761=ORIENTED_EDGE('',*,*,#580,.T.);
#762=ORIENTED_EDGE('',*,*,#581,.T.);
#763=ORIENTED_EDGE('',*,*,#514,.F.);
#764=ORIENTED_EDGE('',*,*,#582,.F.);
#765=ORIENTED_EDGE('',*,*,#583,.T.);
#766=ORIENTED_EDGE('',*,*,#581,.F.);
#767=ORIENTED_EDGE('',*,*,#584,.F.);
#768=ORIENTED_EDGE('',*,*,#576,.T.);
#769=ORIENTED_EDGE('',*,*,#585,.F.);
#770=ORIENTED_EDGE('',*,*,#586,.F.);
#771=ORIENTED_EDGE('',*,*,#587,.T.);
#772=ORIENTED_EDGE('',*,*,#584,.T.);
#773=ORIENTED_EDGE('',*,*,#580,.F.);
#774=ORIENTED_EDGE('',*,*,#573,.T.);
#775=ORIENTED_EDGE('',*,*,#579,.T.);
#776=ORIENTED_EDGE('',*,*,#557,.T.);
#777=ORIENTED_EDGE('',*,*,#588,.F.);
#778=ORIENTED_EDGE('',*,*,#509,.F.);
#779=ORIENTED_EDGE('',*,*,#589,.T.);
#780=ORIENTED_EDGE('',*,*,#578,.T.);
#781=ORIENTED_EDGE('',*,*,#510,.F.);
#782=ORIENTED_EDGE('',*,*,#588,.T.);
#783=ORIENTED_EDGE('',*,*,#559,.F.);
#784=ORIENTED_EDGE('',*,*,#506,.F.);
#785=ORIENTED_EDGE('',*,*,#555,.T.);
#786=ORIENTED_EDGE('',*,*,#562,.T.);
#787=ORIENTED_EDGE('',*,*,#567,.F.);
#788=ORIENTED_EDGE('',*,*,#502,.F.);
#789=ORIENTED_EDGE('',*,*,#564,.T.);
#790=ORIENTED_EDGE('',*,*,#570,.T.);
#791=ORIENTED_EDGE('',*,*,#572,.F.);
#792=ORIENTED_EDGE('',*,*,#498,.F.);
#793=ORIENTED_EDGE('',*,*,#590,.T.);
#794=ORIENTED_EDGE('',*,*,#585,.T.);
#795=ORIENTED_EDGE('',*,*,#591,.T.);
#796=ORIENTED_EDGE('',*,*,#592,.T.);
#797=ORIENTED_EDGE('',*,*,#586,.T.);
#798=ORIENTED_EDGE('',*,*,#590,.F.);
#799=ORIENTED_EDGE('',*,*,#497,.F.);
#800=ORIENTED_EDGE('',*,*,#546,.T.);
#801=ORIENTED_EDGE('',*,*,#550,.F.);
#802=ORIENTED_EDGE('',*,*,#593,.F.);
#803=ORIENTED_EDGE('',*,*,#549,.T.);
#804=ORIENTED_EDGE('',*,*,#551,.F.);
#805=ORIENTED_EDGE('',*,*,#594,.F.);
#806=ORIENTED_EDGE('',*,*,#595,.T.);
#807=ORIENTED_EDGE('',*,*,#593,.T.);
#808=ORIENTED_EDGE('',*,*,#522,.F.);
#809=ORIENTED_EDGE('',*,*,#523,.T.);
#810=ORIENTED_EDGE('',*,*,#484,.F.);
#811=ORIENTED_EDGE('',*,*,#486,.T.);
#812=ORIENTED_EDGE('',*,*,#532,.T.);
#813=ORIENTED_EDGE('',*,*,#527,.F.);
#814=ORIENTED_EDGE('',*,*,#490,.F.);
#815=ORIENTED_EDGE('',*,*,#529,.T.);
#816=ORIENTED_EDGE('',*,*,#553,.T.);
#817=ORIENTED_EDGE('',*,*,#535,.F.);
#818=ORIENTED_EDGE('',*,*,#494,.F.);
#819=ORIENTED_EDGE('',*,*,#596,.T.);
#820=ORIENTED_EDGE('',*,*,#594,.T.);
#821=ORIENTED_EDGE('',*,*,#552,.F.);
#822=ORIENTED_EDGE('',*,*,#515,.F.);
#823=ORIENTED_EDGE('',*,*,#583,.F.);
#824=ORIENTED_EDGE('',*,*,#597,.F.);
#825=ORIENTED_EDGE('',*,*,#592,.F.);
#826=ORIENTED_EDGE('',*,*,#598,.T.);
#827=ORIENTED_EDGE('',*,*,#597,.T.);
#828=ORIENTED_EDGE('',*,*,#582,.T.);
#829=ORIENTED_EDGE('',*,*,#587,.F.);
#830=ORIENTED_EDGE('',*,*,#504,.F.);
#831=ORIENTED_EDGE('',*,*,#566,.T.);
#832=ORIENTED_EDGE('',*,*,#560,.F.);
#833=ORIENTED_EDGE('',*,*,#556,.F.);
#834=ORIENTED_EDGE('',*,*,#558,.T.);
#835=ORIENTED_EDGE('',*,*,#589,.F.);
#836=ORIENTED_EDGE('',*,*,#508,.F.);
#837=ORIENTED_EDGE('',*,*,#565,.F.);
#838=ORIENTED_EDGE('',*,*,#500,.F.);
#839=ORIENTED_EDGE('',*,*,#571,.T.);
#840=ORIENTED_EDGE('',*,*,#568,.F.);
#841=ORIENTED_EDGE('',*,*,#598,.F.);
#842=ORIENTED_EDGE('',*,*,#591,.F.);
#843=ORIENTED_EDGE('',*,*,#595,.F.);
#844=ORIENTED_EDGE('',*,*,#596,.F.);
#845=ORIENTED_EDGE('',*,*,#475,.T.);
#846=ORIENTED_EDGE('',*,*,#478,.T.);
#847=CYLINDRICAL_SURFACE('',#903,15.5);
#848=CYLINDRICAL_SURFACE('',#907,15.5);
#849=ADVANCED_FACE('',(#61),#847,.F.);
#850=ADVANCED_FACE('',(#62),#23,.T.);
#851=ADVANCED_FACE('',(#63),#848,.F.);
#852=ADVANCED_FACE('',(#64),#24,.T.);
#853=ADVANCED_FACE('',(#65),#25,.T.);
#854=ADVANCED_FACE('',(#66),#26,.T.);
#855=ADVANCED_FACE('',(#67),#27,.T.);
#856=ADVANCED_FACE('',(#68),#28,.F.);
#857=ADVANCED_FACE('',(#69),#29,.T.);
#858=ADVANCED_FACE('',(#70),#30,.T.);
#859=ADVANCED_FACE('',(#71),#31,.F.);
#860=ADVANCED_FACE('',(#72),#32,.T.);
#861=ADVANCED_FACE('',(#73),#33,.F.);
#862=ADVANCED_FACE('',(#74),#34,.F.);
#863=ADVANCED_FACE('',(#75),#35,.F.);
#864=ADVANCED_FACE('',(#76),#36,.F.);
#865=ADVANCED_FACE('',(#77),#37,.F.);
#866=ADVANCED_FACE('',(#78),#38,.F.);
#867=ADVANCED_FACE('',(#79),#39,.F.);
#868=ADVANCED_FACE('',(#80),#40,.F.);
#869=ADVANCED_FACE('',(#81),#41,.T.);
#870=ADVANCED_FACE('',(#82),#42,.T.);
#871=ADVANCED_FACE('',(#83),#43,.T.);
#872=ADVANCED_FACE('',(#84),#44,.T.);
#873=ADVANCED_FACE('',(#85),#45,.T.);
#874=ADVANCED_FACE('',(#86),#46,.T.);
#875=ADVANCED_FACE('',(#87),#47,.T.);
#876=ADVANCED_FACE('',(#88),#48,.F.);
#877=ADVANCED_FACE('',(#89),#49,.F.);
#878=ADVANCED_FACE('',(#90),#50,.F.);
#879=ADVANCED_FACE('',(#91),#51,.T.);
#880=ADVANCED_FACE('',(#92),#52,.T.);
#881=ADVANCED_FACE('',(#93),#53,.T.);
#882=ADVANCED_FACE('',(#94),#54,.T.);
#883=ADVANCED_FACE('',(#95),#55,.T.);
#884=ADVANCED_FACE('',(#96),#56,.T.);
#885=ADVANCED_FACE('',(#97,#15,#16,#17),#57,.T.);
#886=ADVANCED_FACE('',(#98),#58,.T.);
#887=ADVANCED_FACE('',(#99,#18,#19,#20),#59,.T.);
#888=ADVANCED_FACE('',(#100,#21,#22),#60,.F.);
#889=CLOSED_SHELL('',(#849,#850,#851,#852,#853,#854,#855,#856,#857,#858,
#859,#860,#861,#862,#863,#864,#865,#866,#867,#868,#869,#870,#871,#872,#873,
#874,#875,#876,#877,#878,#879,#880,#881,#882,#883,#884,#885,#886,#887,#888));
#890=DERIVED_UNIT_ELEMENT(#892,1.);
#891=DERIVED_UNIT_ELEMENT(#1409,-3.);
#892=(
MASS_UNIT()
NAMED_UNIT(*)
SI_UNIT(.KILO.,.GRAM.)
);
#893=DERIVED_UNIT((#890,#891));
#894=MEASURE_REPRESENTATION_ITEM('density measure',
POSITIVE_RATIO_MEASURE(7850.),#893);
#895=PROPERTY_DEFINITION_REPRESENTATION(#900,#897);
#896=PROPERTY_DEFINITION_REPRESENTATION(#901,#898);
#897=REPRESENTATION('material name',(#899),#1406);
#898=REPRESENTATION('density',(#894),#1406);
#899=DESCRIPTIVE_REPRESENTATION_ITEM('Steel','Steel');
#900=PROPERTY_DEFINITION('material property','material name',#1416);
#901=PROPERTY_DEFINITION('material property','density of part',#1416);
#902=AXIS2_PLACEMENT_3D('',#1157,#947,#948);
#903=AXIS2_PLACEMENT_3D('',#1158,#949,#950);
#904=AXIS2_PLACEMENT_3D('',#1160,#951,#952);
#905=AXIS2_PLACEMENT_3D('',#1163,#954,#955);
#906=AXIS2_PLACEMENT_3D('',#1164,#956,#957);
#907=AXIS2_PLACEMENT_3D('',#1165,#958,#959);
#908=AXIS2_PLACEMENT_3D('',#1167,#960,#961);
#909=AXIS2_PLACEMENT_3D('',#1170,#963,#964);
#910=AXIS2_PLACEMENT_3D('',#1171,#965,#966);
#911=AXIS2_PLACEMENT_3D('',#1172,#967,#968);
#912=AXIS2_PLACEMENT_3D('',#1181,#973,#974);
#913=AXIS2_PLACEMENT_3D('',#1190,#979,#980);
#914=AXIS2_PLACEMENT_3D('',#1257,#1015,#1016);
#915=AXIS2_PLACEMENT_3D('',#1260,#1019,#1020);
#916=AXIS2_PLACEMENT_3D('',#1266,#1024,#1025);
#917=AXIS2_PLACEMENT_3D('',#1272,#1029,#1030);
#918=AXIS2_PLACEMENT_3D('',#1275,#1033,#1034);
#919=AXIS2_PLACEMENT_3D('',#1281,#1038,#1039);
#920=AXIS2_PLACEMENT_3D('',#1287,#1043,#1044);
#921=AXIS2_PLACEMENT_3D('',#1291,#1047,#1048);
#922=AXIS2_PLACEMENT_3D('',#1295,#1051,#1052);
#923=AXIS2_PLACEMENT_3D('',#1299,#1055,#1056);
#924=AXIS2_PLACEMENT_3D('',#1304,#1060,#1061);
#925=AXIS2_PLACEMENT_3D('',#1310,#1065,#1066);
#926=AXIS2_PLACEMENT_3D('',#1314,#1069,#1070);
#927=AXIS2_PLACEMENT_3D('',#1316,#1072,#1073);
#928=AXIS2_PLACEMENT_3D('',#1322,#1077,#1078);
#929=AXIS2_PLACEMENT_3D('',#1328,#1082,#1083);
#930=AXIS2_PLACEMENT_3D('',#1334,#1087,#1088);
#931=AXIS2_PLACEMENT_3D('',#1340,#1092,#1093);
#932=AXIS2_PLACEMENT_3D('',#1343,#1096,#1097);
#933=AXIS2_PLACEMENT_3D('',#1349,#1101,#1102);
#934=AXIS2_PLACEMENT_3D('',#1352,#1105,#1106);
#935=AXIS2_PLACEMENT_3D('',#1358,#1110,#1111);
#936=AXIS2_PLACEMENT_3D('',#1364,#1115,#1116);
#937=AXIS2_PLACEMENT_3D('',#1366,#1118,#1119);
#938=AXIS2_PLACEMENT_3D('',#1370,#1122,#1123);
#939=AXIS2_PLACEMENT_3D('',#1376,#1127,#1128);
#940=AXIS2_PLACEMENT_3D('',#1382,#1132,#1133);
#941=AXIS2_PLACEMENT_3D('',#1385,#1136,#1137);
#942=AXIS2_PLACEMENT_3D('',#1387,#1139,#1140);
#943=AXIS2_PLACEMENT_3D('',#1393,#1144,#1145);
#944=AXIS2_PLACEMENT_3D('',#1397,#1148,#1149);
#945=AXIS2_PLACEMENT_3D('',#1401,#1152,#1153);
#946=AXIS2_PLACEMENT_3D('',#1403,#1155,#1156);
#947=DIRECTION('axis',(0.,0.,1.));
#948=DIRECTION('refdir',(1.,0.,0.));
#949=DIRECTION('center_axis',(0.,1.,0.));
#950=DIRECTION('ref_axis',(1.,0.,0.));
#951=DIRECTION('center_axis',(0.,1.,0.));
#952=DIRECTION('ref_axis',(1.,0.,0.));
#953=DIRECTION('',(0.,1.,0.));
#954=DIRECTION('center_axis',(0.,1.,0.));
#955=DIRECTION('ref_axis',(1.,0.,0.));
#956=DIRECTION('center_axis',(0.,-1.,0.));
#957=DIRECTION('ref_axis',(1.,0.,0.));
#958=DIRECTION('center_axis',(0.,1.,0.));
#959=DIRECTION('ref_axis',(1.,0.,0.));
#960=DIRECTION('center_axis',(0.,1.,0.));
#961=DIRECTION('ref_axis',(1.,0.,0.));
#962=DIRECTION('',(0.,1.,0.));
#963=DIRECTION('center_axis',(0.,1.,0.));
#964=DIRECTION('ref_axis',(1.,0.,0.));
#965=DIRECTION('center_axis',(0.,-1.,0.));
#966=DIRECTION('ref_axis',(1.,0.,0.));
#967=DIRECTION('center_axis',(-3.52170046973666E-33,0.,1.));
#968=DIRECTION('ref_axis',(1.,0.,3.52170046973666E-33));
#969=DIRECTION('',(1.,0.,3.52170046973666E-33));
#970=DIRECTION('',(0.,1.,0.));
#971=DIRECTION('',(-1.,0.,-3.52170046973666E-33));
#972=DIRECTION('',(0.,1.,0.));
#973=DIRECTION('center_axis',(3.52170046973666E-33,0.,-1.));
#974=DIRECTION('ref_axis',(-1.,0.,-3.52170046973666E-33));
#975=DIRECTION('',(-1.,0.,-3.52170046973666E-33));
#976=DIRECTION('',(0.,1.,0.));
#977=DIRECTION('',(1.,0.,3.52170046973666E-33));
#978=DIRECTION('',(0.,1.,0.));
#979=DIRECTION('center_axis',(0.,1.,0.));
#980=DIRECTION('ref_axis',(0.,0.,1.));
#981=DIRECTION('',(3.52170046973666E-33,0.,-1.));
#982=DIRECTION('',(0.,0.,-1.));
#983=DIRECTION('',(-1.,0.,-3.52170046973666E-33));
#984=DIRECTION('',(3.52170046973666E-33,0.,-1.));
#985=DIRECTION('',(1.,0.,3.52170046973666E-33));
#986=DIRECTION('',(0.,0.,-1.));
#987=DIRECTION('',(-1.,0.,-3.52170046973666E-33));
#988=DIRECTION('',(3.52170046973666E-33,0.,-1.));
#989=DIRECTION('',(-1.,0.,0.));
#990=DIRECTION('',(0.,0.,1.));
#991=DIRECTION('',(-1.,0.,0.));
#992=DIRECTION('',(-1.76085023486833E-33,0.,1.));
#993=DIRECTION('',(1.,0.,0.));
#994=DIRECTION('',(0.,0.,1.));
#995=DIRECTION('',(-1.,0.,0.));
#996=DIRECTION('',(-1.76085023486833E-33,0.,1.));
#997=DIRECTION('',(1.,0.,0.));
#998=DIRECTION('',(0.,0.,1.));
#999=DIRECTION('',(-1.,0.,0.));
#1000=DIRECTION('',(-1.76085023486833E-33,0.,1.));
#1001=DIRECTION('',(1.,0.,0.));
#1002=DIRECTION('',(0.,0.,1.));
#1003=DIRECTION('',(1.,0.,0.));
#1004=DIRECTION('',(-1.74871185424656E-13,0.,-1.));
#1005=DIRECTION('',(-1.,0.,0.));
#1006=DIRECTION('',(0.,0.,1.));
#1007=DIRECTION('',(1.,0.,0.));
#1008=DIRECTION('',(3.52170046973666E-33,0.,-1.));
#1009=DIRECTION('',(-1.,0.,0.));
#1010=DIRECTION('',(-1.74807940872965E-13,0.,1.));
#1011=DIRECTION('',(1.,0.,3.52170046973666E-33));
#1012=DIRECTION('',(3.52170046973666E-33,0.,-1.));
#1013=DIRECTION('',(1.,0.,3.52170046973666E-33));
#1014=DIRECTION('',(0.,0.,-1.));
#1015=DIRECTION('center_axis',(-2.49021828345864E-33,0.707106781186548,
0.707106781186547));
#1016=DIRECTION('ref_axis',(2.49021828345864E-33,0.707106781186547,-0.707106781186548));
#1017=DIRECTION('',(2.49021828345864E-33,0.707106781186547,-0.707106781186548));
#1018=DIRECTION('',(2.49021828345864E-33,0.707106781186547,-0.707106781186548));
#1019=DIRECTION('center_axis',(-3.52170046973666E-33,0.,1.));
#1020=DIRECTION('ref_axis',(1.,0.,3.52170046973666E-33));
#1021=DIRECTION('',(1.,0.,3.52170046973666E-33));
#1022=DIRECTION('',(0.,1.,0.));
#1023=DIRECTION('',(0.,1.,0.));
#1024=DIRECTION('center_axis',(3.52170046973666E-33,0.,-1.));
#1025=DIRECTION('ref_axis',(-1.,0.,-3.52170046973666E-33));
#1026=DIRECTION('',(-1.,0.,-3.52170046973666E-33));
#1027=DIRECTION('',(0.,1.,0.));
#1028=DIRECTION('',(0.,1.,0.));
#1029=DIRECTION('center_axis',(-2.49021828345864E-33,0.707106781186548,
0.707106781186547));
#1030=DIRECTION('ref_axis',(2.49021828345864E-33,0.707106781186547,-0.707106781186548));
#1031=DIRECTION('',(2.49021828345864E-33,0.707106781186547,-0.707106781186548));
#1032=DIRECTION('',(2.49021828345864E-33,0.707106781186547,-0.707106781186548));
#1033=DIRECTION('center_axis',(-3.52170046973666E-33,0.,1.));
#1034=DIRECTION('ref_axis',(1.,0.,3.52170046973666E-33));
#1035=DIRECTION('',(1.,0.,3.52170046973666E-33));
#1036=DIRECTION('',(0.,1.,0.));
#1037=DIRECTION('',(0.,1.,0.));
#1038=DIRECTION('center_axis',(2.49021828345864E-33,-0.707106781186548,
-0.707106781186548));
#1039=DIRECTION('ref_axis',(1.,0.,3.52170046973666E-33));
#1040=DIRECTION('',(1.,0.,3.52170046973666E-33));
#1041=DIRECTION('',(2.49021828345864E-33,0.707106781186548,-0.707106781186548));
#1042=DIRECTION('',(-2.47215760793061E-13,-0.707106781186548,0.707106781186548));
#1043=DIRECTION('center_axis',(1.,-1.74807940872965E-13,1.74807940872965E-13));
#1044=DIRECTION('ref_axis',(-2.49021828345864E-33,0.707106781186548,0.707106781186548));
#1045=DIRECTION('',(-1.74807940872965E-13,-8.97195690676442E-16,1.));
#1046=DIRECTION('',(-2.47215760793061E-13,-0.707106781186548,0.707106781186548));
#1047=DIRECTION('center_axis',(0.,0.707106781186548,0.707106781186548));
#1048=DIRECTION('ref_axis',(-1.,1.74869044773348E-13,-1.74869044773348E-13));
#1049=DIRECTION('',(-1.,-3.15965448530094E-48,3.15965448530094E-48));
#1050=DIRECTION('',(-2.49021828345864E-33,-0.707106781186548,0.707106781186548));
#1051=DIRECTION('center_axis',(1.,0.,3.52170046973666E-33));
#1052=DIRECTION('ref_axis',(3.52170046973666E-33,0.,-1.));
#1053=DIRECTION('',(-2.49021828345864E-33,-0.707106781186547,0.707106781186548));
#1054=DIRECTION('',(-3.52170046973666E-33,-8.97195690676442E-16,1.));
#1055=DIRECTION('center_axis',(1.,0.,3.52170046973666E-33));
#1056=DIRECTION('ref_axis',(3.52170046973666E-33,0.,-1.));
#1057=DIRECTION('',(-3.52170046973666E-33,-8.97195690676442E-16,1.));
#1058=DIRECTION('',(0.,1.,0.));
#1059=DIRECTION('',(2.49021828345864E-33,0.707106781186547,-0.707106781186548));
#1060=DIRECTION('center_axis',(3.15965448530093E-48,-1.,-8.97195690676442E-16));
#1061=DIRECTION('ref_axis',(-3.52170046973666E-33,-8.97195690676442E-16,
1.));
#1062=DIRECTION('',(-1.,0.,-3.52170046973666E-33));
#1063=DIRECTION('',(-3.52170046973666E-33,-8.97195690676442E-16,1.));
#1064=DIRECTION('',(-1.,0.,-3.52170046973666E-33));
#1065=DIRECTION('center_axis',(2.49021828345864E-33,-0.707106781186548,
-0.707106781186547));
#1066=DIRECTION('ref_axis',(-2.49021828345864E-33,-0.707106781186547,0.707106781186548));
#1067=DIRECTION('',(2.49021828345864E-33,0.707106781186547,-0.707106781186548));
#1068=DIRECTION('',(1.,0.,0.));
#1069=DIRECTION('center_axis',(-2.49021828345864E-33,0.707106781186548,
0.707106781186547));
#1070=DIRECTION('ref_axis',(2.49021828345864E-33,0.707106781186547,-0.707106781186548));
#1071=DIRECTION('',(2.49021828345864E-33,0.707106781186547,-0.707106781186548));
#1072=DIRECTION('center_axis',(0.,0.,-1.));
#1073=DIRECTION('ref_axis',(-1.,0.,0.));
#1074=DIRECTION('',(-1.,0.,0.));
#1075=DIRECTION('',(0.,1.,0.));
#1076=DIRECTION('',(0.,1.,0.));
#1077=DIRECTION('center_axis',(0.,0.,1.));
#1078=DIRECTION('ref_axis',(1.,0.,0.));
#1079=DIRECTION('',(1.,0.,0.));
#1080=DIRECTION('',(0.,1.,0.));
#1081=DIRECTION('',(0.,1.,0.));
#1082=DIRECTION('center_axis',(0.,-0.707106781186548,-0.707106781186547));
#1083=DIRECTION('ref_axis',(0.,0.707106781186547,-0.707106781186548));
#1084=DIRECTION('',(0.,0.707106781186547,-0.707106781186548));
#1085=DIRECTION('',(1.,0.,0.));
#1086=DIRECTION('',(0.,0.707106781186547,-0.707106781186548));
#1087=DIRECTION('center_axis',(0.,0.,-1.));
#1088=DIRECTION('ref_axis',(-1.,0.,0.));
#1089=DIRECTION('',(-1.,0.,0.));
#1090=DIRECTION('',(0.,1.,0.));
#1091=DIRECTION('',(0.,1.,0.));
#1092=DIRECTION('center_axis',(0.,0.,1.));
#1093=DIRECTION('ref_axis',(1.,0.,0.));
#1094=DIRECTION('',(0.,1.,0.));
#1095=DIRECTION('',(0.,1.,0.));
#1096=DIRECTION('center_axis',(0.,-0.707106781186548,-0.707106781186547));
#1097=DIRECTION('ref_axis',(0.,0.707106781186547,-0.707106781186548));
#1098=DIRECTION('',(0.,0.707106781186547,-0.707106781186548));
#1099=DIRECTION('',(1.,0.,0.));
#1100=DIRECTION('',(0.,0.707106781186547,-0.707106781186548));
#1101=DIRECTION('center_axis',(0.,0.,1.));
#1102=DIRECTION('ref_axis',(1.,0.,0.));
#1103=DIRECTION('',(0.,1.,0.));
#1104=DIRECTION('',(0.,1.,0.));
#1105=DIRECTION('center_axis',(0.,0.707106781186548,0.707106781186548));
#1106=DIRECTION('ref_axis',(-1.,-1.74869044773348E-13,1.74869044773348E-13));
#1107=DIRECTION('',(-1.,0.,0.));
#1108=DIRECTION('',(0.,0.707106781186548,-0.707106781186548));
#1109=DIRECTION('',(2.47305202095808E-13,-0.707106781186548,0.707106781186548));
#1110=DIRECTION('center_axis',(0.,-0.707106781186548,-0.707106781186548));
#1111=DIRECTION('ref_axis',(1.,0.,0.));
#1112=DIRECTION('',(1.,0.,0.));
#1113=DIRECTION('',(2.47305202095808E-13,-0.707106781186548,0.707106781186548));
#1114=DIRECTION('',(0.,-0.707106781186548,0.707106781186548));
#1115=DIRECTION('center_axis',(-1.,-1.74871185424656E-13,1.74871185424656E-13));
#1116=DIRECTION('ref_axis',(0.,-0.707106781186548,-0.707106781186548));
#1117=DIRECTION('',(-1.74871185424656E-13,8.97195690676442E-16,-1.));
#1118=DIRECTION('center_axis',(1.,0.,0.));
#1119=DIRECTION('ref_axis',(0.,0.,-1.));
#1120=DIRECTION('',(0.,-8.97195690676442E-16,1.));
#1121=DIRECTION('',(0.,-0.707106781186547,0.707106781186548));
#1122=DIRECTION('center_axis',(0.,0.707106781186548,0.707106781186547));
#1123=DIRECTION('ref_axis',(0.,-0.707106781186547,0.707106781186548));
#1124=DIRECTION('',(0.,0.707106781186547,-0.707106781186548));
#1125=DIRECTION('',(1.,0.,0.));
#1126=DIRECTION('',(1.,0.,0.));
#1127=DIRECTION('center_axis',(0.,1.,8.97195690676442E-16));
#1128=DIRECTION('ref_axis',(0.,-8.97195690676442E-16,1.));
#1129=DIRECTION('',(0.,-8.97195690676442E-16,1.));
#1130=DIRECTION('',(1.,0.,0.));
#1131=DIRECTION('',(0.,-8.97195690676442E-16,1.));
#1132=DIRECTION('center_axis',(0.,-0.707106781186548,-0.707106781186547));
#1133=DIRECTION('ref_axis',(0.,0.707106781186547,-0.707106781186548));
#1134=DIRECTION('',(0.,0.707106781186547,-0.707106781186548));
#1135=DIRECTION('',(0.,0.707106781186547,-0.707106781186548));
#1136=DIRECTION('center_axis',(1.,0.,0.));
#1137=DIRECTION('ref_axis',(0.,0.,-1.));
#1138=DIRECTION('',(0.,1.,0.));
#1139=DIRECTION('center_axis',(0.,0.,-1.));
#1140=DIRECTION('ref_axis',(-1.,0.,0.));
#1141=DIRECTION('',(-1.,0.,0.));
#1142=DIRECTION('',(0.,1.,0.));
#1143=DIRECTION('',(0.,1.,0.));
#1144=DIRECTION('center_axis',(1.,0.,0.));
#1145=DIRECTION('ref_axis',(0.,0.,-1.));
#1146=DIRECTION('',(0.,1.,0.));
#1147=DIRECTION('',(0.,0.,-1.));
#1148=DIRECTION('center_axis',(0.,0.,1.));
#1149=DIRECTION('ref_axis',(1.,0.,0.));
#1150=DIRECTION('',(1.,0.,0.));
#1151=DIRECTION('',(0.,1.,0.));
#1152=DIRECTION('center_axis',(-1.,0.,-1.76085023486833E-33));
#1153=DIRECTION('ref_axis',(-1.76085023486833E-33,0.,1.));
#1154=DIRECTION('',(-1.76085023486833E-33,0.,1.));
#1155=DIRECTION('center_axis',(0.,1.,0.));
#1156=DIRECTION('ref_axis',(1.,0.,0.));
#1157=CARTESIAN_POINT('',(0.,0.,0.));
#1158=CARTESIAN_POINT('Origin',(140.,0.,-35.));
#1159=CARTESIAN_POINT('',(124.5,0.,-35.));
#1160=CARTESIAN_POINT('Origin',(140.,0.,-35.));
#1161=CARTESIAN_POINT('',(124.5,2.5,-35.));
#1162=CARTESIAN_POINT('',(124.5,0.,-35.));
#1163=CARTESIAN_POINT('Origin',(140.,2.5,-35.));
#1164=CARTESIAN_POINT('Origin',(140.,2.5,-35.));
#1165=CARTESIAN_POINT('Origin',(40.,0.,-35.));
#1166=CARTESIAN_POINT('',(24.5,0.,-35.));
#1167=CARTESIAN_POINT('Origin',(40.,0.,-35.));
#1168=CARTESIAN_POINT('',(24.5,2.5,-35.));
#1169=CARTESIAN_POINT('',(24.5,0.,-35.));
#1170=CARTESIAN_POINT('Origin',(40.,2.5,-35.));
#1171=CARTESIAN_POINT('Origin',(40.,2.5,-35.));
#1172=CARTESIAN_POINT('Origin',(175.,5.,-20.1005050633883));
#1173=CARTESIAN_POINT('',(175.,15.2010101267767,-20.1005050633883));
#1174=CARTESIAN_POINT('',(180.,15.2010101267767,-20.1005050633883));
#1175=CARTESIAN_POINT('',(177.5,15.2010101267767,-20.1005050633883));
#1176=CARTESIAN_POINT('',(175.,5.,-20.1005050633883));
#1177=CARTESIAN_POINT('',(175.,5.,-20.1005050633883));
#1178=CARTESIAN_POINT('',(180.,5.,-20.1005050633883));
#1179=CARTESIAN_POINT('',(132.5,5.,-20.1005050633883));
#1180=CARTESIAN_POINT('',(180.,5.,-20.1005050633883));
#1181=CARTESIAN_POINT('Origin',(180.,5.,-30.));
#1182=CARTESIAN_POINT('',(180.,25.1005050633883,-30.));
#1183=CARTESIAN_POINT('',(175.,25.1005050633883,-30.));
#1184=CARTESIAN_POINT('',(180.,25.1005050633883,-30.));
#1185=CARTESIAN_POINT('',(180.,5.,-30.));
#1186=CARTESIAN_POINT('',(180.,5.,-30.));
#1187=CARTESIAN_POINT('',(175.,5.,-30.));
#1188=CARTESIAN_POINT('',(135.,5.,-30.));
#1189=CARTESIAN_POINT('',(175.,5.,-30.));
#1190=CARTESIAN_POINT('Origin',(90.,5.,-35.));
#1191=CARTESIAN_POINT('',(175.,5.,-32.5));
#1192=CARTESIAN_POINT('',(180.,5.,-40.1005050633883));
#1193=CARTESIAN_POINT('',(180.,5.,0.));
#1194=CARTESIAN_POINT('',(175.,5.,-40.1005050633883));
#1195=CARTESIAN_POINT('',(132.5,5.,-40.1005050633883));
#1196=CARTESIAN_POINT('',(175.,5.,-50.));
#1197=CARTESIAN_POINT('',(175.,5.,-42.5));
#1198=CARTESIAN_POINT('',(180.,5.,-50.));
#1199=CARTESIAN_POINT('',(135.,5.,-50.));
#1200=CARTESIAN_POINT('',(180.,5.,-60.1005050633883));
#1201=CARTESIAN_POINT('',(180.,5.,0.));
#1202=CARTESIAN_POINT('',(175.,5.,-60.1005050633883));
#1203=CARTESIAN_POINT('',(132.5,5.,-60.1005050633883));
#1204=CARTESIAN_POINT('',(175.,5.,-70.));
#1205=CARTESIAN_POINT('',(175.,5.,-52.5));
#1206=CARTESIAN_POINT('',(5.,5.,-70.));
#1207=CARTESIAN_POINT('',(180.,5.,-70.));
#1208=CARTESIAN_POINT('',(5.,5.,-60.1005050633883));
#1209=CARTESIAN_POINT('',(5.,5.,-47.5502525316942));
#1210=CARTESIAN_POINT('',(0.,5.,-60.1005050633883));
#1211=CARTESIAN_POINT('',(45.,5.,-60.1005050633883));
#1212=CARTESIAN_POINT('',(0.,5.,-50.));
#1213=CARTESIAN_POINT('',(1.23259516440783E-31,5.,-70.));
#1214=CARTESIAN_POINT('',(5.,5.,-50.));
#1215=CARTESIAN_POINT('',(47.5,5.,-50.));
#1216=CARTESIAN_POINT('',(5.,5.,-40.1005050633883));
#1217=CARTESIAN_POINT('',(5.,5.,-37.5502525316942));
#1218=CARTESIAN_POINT('',(0.,5.,-40.1005050633883));
#1219=CARTESIAN_POINT('',(45.,5.,-40.1005050633883));
#1220=CARTESIAN_POINT('',(0.,5.,-30.));
#1221=CARTESIAN_POINT('',(1.23259516440783E-31,5.,-70.));
#1222=CARTESIAN_POINT('',(5.,5.,-30.));
#1223=CARTESIAN_POINT('',(47.5,5.,-30.));
#1224=CARTESIAN_POINT('',(5.,5.,-20.1005050633883));
#1225=CARTESIAN_POINT('',(5.,5.,-27.5502525316942));
#1226=CARTESIAN_POINT('',(0.,5.,-20.1005050633883));
#1227=CARTESIAN_POINT('',(45.,5.,-20.1005050633883));
#1228=CARTESIAN_POINT('',(0.,5.,-9.89949493661166));
#1229=CARTESIAN_POINT('',(1.23259516440783E-31,5.,-70.));
#1230=CARTESIAN_POINT('',(5.,5.,-9.89949493661166));
#1231=CARTESIAN_POINT('',(45.,5.,-9.89949493661166));
#1232=CARTESIAN_POINT('',(5.00000000002161,4.99999999999999,-6.50538238691622));
#1233=CARTESIAN_POINT('',(5.,5.,-35.));
#1234=CARTESIAN_POINT('',(2.20000000002161,4.99999999999999,-6.50538238691622));
#1235=CARTESIAN_POINT('',(2.90000000001094,5.,-6.50538238691623));
#1236=CARTESIAN_POINT('',(2.20000000002216,4.99999999999999,-3.39411254969541));
#1237=CARTESIAN_POINT('',(2.20000000001648,4.99999999999999,-35.8485281374234));
#1238=CARTESIAN_POINT('',(5.00000000002216,4.99999999999998,-3.3941125496954));
#1239=CARTESIAN_POINT('',(4.30000000001094,5.,-3.39411254969541));
#1240=CARTESIAN_POINT('',(5.,5.,0.));
#1241=CARTESIAN_POINT('',(5.,5.,-35.));
#1242=CARTESIAN_POINT('',(175.,5.,-1.76085023486833E-32));
#1243=CARTESIAN_POINT('',(0.,5.,0.));
#1244=CARTESIAN_POINT('',(174.999999999978,4.99999999999998,-3.3941125496954));
#1245=CARTESIAN_POINT('',(175.,5.,-35.));
#1246=CARTESIAN_POINT('',(177.799999999978,4.99999999999999,-3.39411254969541));
#1247=CARTESIAN_POINT('',(177.099999999989,5.,-3.39411254969541));
#1248=CARTESIAN_POINT('',(177.799999999978,4.99999999999999,-6.50538238691622));
#1249=CARTESIAN_POINT('',(177.799999999984,4.99999999999999,-36.6263455967286));
#1250=CARTESIAN_POINT('',(174.999999999978,4.99999999999999,-6.50538238691622));
#1251=CARTESIAN_POINT('',(175.699999999989,5.,-6.50538238691623));
#1252=CARTESIAN_POINT('',(175.,5.,-9.89949493661166));
#1253=CARTESIAN_POINT('',(175.,5.,-35.));
#1254=CARTESIAN_POINT('',(180.,5.,-9.89949493661166));
#1255=CARTESIAN_POINT('',(135.,5.,-9.89949493661166));
#1256=CARTESIAN_POINT('',(180.,5.,0.));
#1257=CARTESIAN_POINT('Origin',(180.,5.,-9.89949493661166));
#1258=CARTESIAN_POINT('',(180.,5.,-9.89949493661166));
#1259=CARTESIAN_POINT('',(175.,5.,-9.89949493661166));
#1260=CARTESIAN_POINT('Origin',(175.,5.,-40.1005050633883));
#1261=CARTESIAN_POINT('',(175.,35.2010101267767,-40.1005050633883));
#1262=CARTESIAN_POINT('',(180.,35.2010101267767,-40.1005050633883));
#1263=CARTESIAN_POINT('',(177.5,35.2010101267767,-40.1005050633883));
#1264=CARTESIAN_POINT('',(175.,5.,-40.1005050633883));
#1265=CARTESIAN_POINT('',(180.,5.,-40.1005050633883));
#1266=CARTESIAN_POINT('Origin',(180.,5.,-50.));
#1267=CARTESIAN_POINT('',(180.,45.1005050633883,-50.));
#1268=CARTESIAN_POINT('',(175.,45.1005050633883,-50.));
#1269=CARTESIAN_POINT('',(180.,45.1005050633883,-50.));
#1270=CARTESIAN_POINT('',(180.,5.,-50.));
#1271=CARTESIAN_POINT('',(175.,5.,-50.));
#1272=CARTESIAN_POINT('Origin',(180.,5.,-9.89949493661166));
#1273=CARTESIAN_POINT('',(175.,5.,-9.89949493661166));
#1274=CARTESIAN_POINT('',(180.,5.,-9.89949493661166));
#1275=CARTESIAN_POINT('Origin',(175.,5.,-60.1005050633883));
#1276=CARTESIAN_POINT('',(175.,55.2010101267767,-60.1005050633883));
#1277=CARTESIAN_POINT('',(180.,55.2010101267767,-60.1005050633883));
#1278=CARTESIAN_POINT('',(177.5,55.2010101267766,-60.1005050633883));
#1279=CARTESIAN_POINT('',(175.,5.,-60.1005050633883));
#1280=CARTESIAN_POINT('',(180.,5.,-60.1005050633883));
#1281=CARTESIAN_POINT('Origin',(175.,66.7975613382356,-68.3029437251518));
#1282=CARTESIAN_POINT('',(174.999999999999,65.1005050633883,-66.6058874503046));
#1283=CARTESIAN_POINT('',(177.799999999999,65.1005050633883,-66.6058874503046));
#1284=CARTESIAN_POINT('',(177.5,65.1005050633883,-66.6058874503046));
#1285=CARTESIAN_POINT('',(175.,50.5349982053123,-52.0403805922285));
#1286=CARTESIAN_POINT('',(177.8,66.7975613382356,-68.3029437251518));
#1287=CARTESIAN_POINT('Origin',(177.8,66.7975613382356,-68.3029437251518));
#1288=CARTESIAN_POINT('',(177.799999999999,65.1005050633883,-63.4946176130837));
#1289=CARTESIAN_POINT('',(177.8,65.1005050633883,-69.1514718625761));
#1290=CARTESIAN_POINT('',(177.8,68.353196256846,-66.7473088065414));
#1291=CARTESIAN_POINT('Origin',(177.8,68.353196256846,-66.7473088065414));
#1292=CARTESIAN_POINT('',(174.999999999999,65.1005050633883,-63.4946176130837));
#1293=CARTESIAN_POINT('',(178.9,65.1005050633883,-63.4946176130837));
#1294=CARTESIAN_POINT('',(175.,52.0906331239227,-50.4847456736181));
#1295=CARTESIAN_POINT('Origin',(175.,35.0502525316942,-35.));
#1296=CARTESIAN_POINT('',(175.,65.1005050633883,-60.1005050633883));
#1297=CARTESIAN_POINT('',(175.,5.,-1.76085023486833E-32));
#1298=CARTESIAN_POINT('',(175.,65.1005050633883,-70.));
#1299=CARTESIAN_POINT('Origin',(175.,35.0502525316942,-35.));
#1300=CARTESIAN_POINT('',(175.,65.1005050633883,-70.));
#1301=CARTESIAN_POINT('',(175.,65.1005050633883,-70.));
#1302=CARTESIAN_POINT('',(175.,5.,-70.));
#1303=CARTESIAN_POINT('',(175.,5.,-9.89949493661166));
#1304=CARTESIAN_POINT('Origin',(180.,65.1005050633883,-70.));
#1305=CARTESIAN_POINT('',(180.,65.1005050633883,-60.1005050633883));
#1306=CARTESIAN_POINT('',(180.,65.1005050633883,-60.1005050633883));
#1307=CARTESIAN_POINT('',(180.,65.1005050633883,-70.));
#1308=CARTESIAN_POINT('',(180.,65.1005050633883,-70.));
#1309=CARTESIAN_POINT('',(180.,65.1005050633883,-70.));
#1310=CARTESIAN_POINT('Origin',(180.,65.1005050633883,-60.1005050633883));
#1311=CARTESIAN_POINT('',(180.,5.,0.));
#1312=CARTESIAN_POINT('',(180.,5.,0.));
#1313=CARTESIAN_POINT('',(0.,5.,0.));
#1314=CARTESIAN_POINT('Origin',(180.,5.,-9.89949493661166));
#1315=CARTESIAN_POINT('',(180.,5.,-9.89949493661166));
#1316=CARTESIAN_POINT('Origin',(5.,5.,-30.));
#1317=CARTESIAN_POINT('',(5.,25.1005050633883,-30.));
#1318=CARTESIAN_POINT('',(0.,25.1005050633883,-30.));
#1319=CARTESIAN_POINT('',(2.5,25.1005050633883,-30.));
#1320=CARTESIAN_POINT('',(5.,5.,-30.));
#1321=CARTESIAN_POINT('',(0.,5.,-30.));
#1322=CARTESIAN_POINT('Origin',(0.,5.,-20.1005050633883));
#1323=CARTESIAN_POINT('',(0.,15.2010101267767,-20.1005050633883));
#1324=CARTESIAN_POINT('',(5.,15.2010101267767,-20.1005050633883));
#1325=CARTESIAN_POINT('',(0.,15.2010101267767,-20.1005050633883));
#1326=CARTESIAN_POINT('',(0.,5.,-20.1005050633883));
#1327=CARTESIAN_POINT('',(5.,5.,-20.1005050633883));
#1328=CARTESIAN_POINT('Origin',(0.,5.,-9.89949493661166));
#1329=CARTESIAN_POINT('',(0.,35.2010101267767,-40.1005050633883));
#1330=CARTESIAN_POINT('',(0.,5.,-9.89949493661166));
#1331=CARTESIAN_POINT('',(5.,35.2010101267767,-40.1005050633883));
#1332=CARTESIAN_POINT('',(0.,35.2010101267767,-40.1005050633883));
#1333=CARTESIAN_POINT('',(5.,5.,-9.89949493661166));
#1334=CARTESIAN_POINT('Origin',(5.,5.,-50.));
#1335=CARTESIAN_POINT('',(5.,45.1005050633883,-50.));
#1336=CARTESIAN_POINT('',(0.,45.1005050633883,-50.));
#1337=CARTESIAN_POINT('',(2.5,45.1005050633883,-50.));
#1338=CARTESIAN_POINT('',(5.,5.,-50.));
#1339=CARTESIAN_POINT('',(0.,5.,-50.));
#1340=CARTESIAN_POINT('Origin',(0.,5.,-40.1005050633883));
#1341=CARTESIAN_POINT('',(0.,5.,-40.1005050633883));
#1342=CARTESIAN_POINT('',(5.,5.,-40.1005050633883));
#1343=CARTESIAN_POINT('Origin',(0.,5.,-9.89949493661166));
#1344=CARTESIAN_POINT('',(0.,55.2010101267767,-60.1005050633883));
#1345=CARTESIAN_POINT('',(0.,5.,-9.89949493661166));
#1346=CARTESIAN_POINT('',(5.,55.2010101267767,-60.1005050633883));
#1347=CARTESIAN_POINT('',(0.,55.2010101267766,-60.1005050633883));
#1348=CARTESIAN_POINT('',(5.,5.,-9.89949493661166));
#1349=CARTESIAN_POINT('Origin',(0.,5.,-60.1005050633883));
#1350=CARTESIAN_POINT('',(0.,5.,-60.1005050633883));
#1351=CARTESIAN_POINT('',(5.,5.,-60.1005050633883));
#1352=CARTESIAN_POINT('Origin',(5.,68.3531962568465,-66.7473088065419));
#1353=CARTESIAN_POINT('',(5.00000000000114,65.1005050633883,-63.4946176130837));
#1354=CARTESIAN_POINT('',(2.20000000000114,65.1005050633883,-63.4946176130837));
#1355=CARTESIAN_POINT('',(2.5,65.1005050633883,-63.4946176130837));
#1356=CARTESIAN_POINT('',(5.,52.0906331239229,-50.4847456736183));
#1357=CARTESIAN_POINT('',(2.2,68.353196256846,-66.7473088065414));
#1358=CARTESIAN_POINT('Origin',(2.2,66.7975613382356,-68.3029437251518));
#1359=CARTESIAN_POINT('',(2.20000000000059,65.1005050633883,-66.6058874503046));
#1360=CARTESIAN_POINT('',(5.00000000000059,65.1005050633883,-66.6058874503046));
#1361=CARTESIAN_POINT('',(1.1,65.1005050633883,-66.6058874503046));
#1362=CARTESIAN_POINT('',(2.2,66.7975613382356,-68.3029437251518));
#1363=CARTESIAN_POINT('',(5.,50.5349982053123,-52.0403805922285));
#1364=CARTESIAN_POINT('Origin',(2.2,68.353196256846,-66.7473088065414));
#1365=CARTESIAN_POINT('',(2.20000000000028,65.1005050633883,-68.3736544032709));
#1366=CARTESIAN_POINT('Origin',(5.,35.0502525316942,-35.));
#1367=CARTESIAN_POINT('',(5.,65.1005050633883,-60.1005050633883));
#1368=CARTESIAN_POINT('',(5.,65.1005050633883,-70.));
#1369=CARTESIAN_POINT('',(5.,5.,0.));
#1370=CARTESIAN_POINT('Origin',(0.,65.1005050633883,-60.1005050633883));
#1371=CARTESIAN_POINT('',(0.,5.,0.));
#1372=CARTESIAN_POINT('',(0.,65.1005050633883,-60.1005050633883));
#1373=CARTESIAN_POINT('',(0.,5.,0.));
#1374=CARTESIAN_POINT('',(0.,5.,0.));
#1375=CARTESIAN_POINT('',(0.,65.1005050633883,-60.1005050633883));
#1376=CARTESIAN_POINT('Origin',(0.,65.1005050633883,-70.));
#1377=CARTESIAN_POINT('',(5.,65.1005050633883,-70.));
#1378=CARTESIAN_POINT('',(5.,65.1005050633883,-70.));
#1379=CARTESIAN_POINT('',(0.,65.1005050633883,-70.));
#1380=CARTESIAN_POINT('',(0.,65.1005050633883,-70.));
#1381=CARTESIAN_POINT('',(0.,65.1005050633883,-70.));
#1382=CARTESIAN_POINT('Origin',(0.,5.,-9.89949493661166));
#1383=CARTESIAN_POINT('',(5.,5.,-9.89949493661166));
#1384=CARTESIAN_POINT('',(0.,5.,-9.89949493661166));
#1385=CARTESIAN_POINT('Origin',(5.,35.0502525316942,-35.));
#1386=CARTESIAN_POINT('',(5.,5.,-70.));
#1387=CARTESIAN_POINT('Origin',(180.,0.,-70.));
#1388=CARTESIAN_POINT('',(180.,0.,-70.));
#1389=CARTESIAN_POINT('',(1.23259516440783E-31,0.,-70.));
#1390=CARTESIAN_POINT('',(180.,0.,-70.));
#1391=CARTESIAN_POINT('',(1.23259516440783E-31,0.,-70.));
#1392=CARTESIAN_POINT('',(180.,0.,-70.));
#1393=CARTESIAN_POINT('Origin',(180.,0.,0.));
#1394=CARTESIAN_POINT('',(180.,0.,0.));
#1395=CARTESIAN_POINT('',(180.,0.,0.));
#1396=CARTESIAN_POINT('',(180.,0.,0.));
#1397=CARTESIAN_POINT('Origin',(0.,0.,0.));
#1398=CARTESIAN_POINT('',(0.,0.,0.));
#1399=CARTESIAN_POINT('',(0.,0.,0.));
#1400=CARTESIAN_POINT('',(0.,0.,0.));
#1401=CARTESIAN_POINT('Origin',(1.23259516440783E-31,0.,-70.));
#1402=CARTESIAN_POINT('',(1.23259516440783E-31,0.,-70.));
#1403=CARTESIAN_POINT('Origin',(90.,0.,-35.));
#1404=UNCERTAINTY_MEASURE_WITH_UNIT(LENGTH_MEASURE(0.01),#1408,
'DISTANCE_ACCURACY_VALUE',
'Maximum model space distance between geometric entities at asserted c
onnectivities');
#1405=UNCERTAINTY_MEASURE_WITH_UNIT(LENGTH_MEASURE(0.01),#1408,
'DISTANCE_ACCURACY_VALUE',
'Maximum model space distance between geometric entities at asserted c
onnectivities');
#1406=(
GEOMETRIC_REPRESENTATION_CONTEXT(3)
GLOBAL_UNCERTAINTY_ASSIGNED_CONTEXT((#1404))
GLOBAL_UNIT_ASSIGNED_CONTEXT((#1408,#1410,#1411))
REPRESENTATION_CONTEXT('','3D')
);
#1407=(
GEOMETRIC_REPRESENTATION_CONTEXT(3)
GLOBAL_UNCERTAINTY_ASSIGNED_CONTEXT((#1405))
GLOBAL_UNIT_ASSIGNED_CONTEXT((#1408,#1410,#1411))
REPRESENTATION_CONTEXT('','3D')
);
#1408=(
LENGTH_UNIT()
NAMED_UNIT(*)
SI_UNIT(.MILLI.,.METRE.)
);
#1409=(
LENGTH_UNIT()
NAMED_UNIT(*)
SI_UNIT($,.METRE.)
);
#1410=(
NAMED_UNIT(*)
PLANE_ANGLE_UNIT()
SI_UNIT($,.RADIAN.)
);
#1411=(
NAMED_UNIT(*)
SI_UNIT($,.STERADIAN.)
SOLID_ANGLE_UNIT()
);
#1412=SHAPE_DEFINITION_REPRESENTATION(#1413,#1414);
#1413=PRODUCT_DEFINITION_SHAPE('',$,#1416);
#1414=SHAPE_REPRESENTATION('',(#902),#1406);
#1415=PRODUCT_DEFINITION_CONTEXT('part definition',#1420,'design');
#1416=PRODUCT_DEFINITION('MirrorSupport','MirrorSupport v2',#1417,#1415);
#1417=PRODUCT_DEFINITION_FORMATION('',$,#1422);
#1418=PRODUCT_RELATED_PRODUCT_CATEGORY('MirrorSupport v2',
'MirrorSupport v2',(#1422));
#1419=APPLICATION_PROTOCOL_DEFINITION('international standard',
'automotive_design',2009,#1420);
#1420=APPLICATION_CONTEXT(
'Core Data for Automotive Mechanical Design Process');
#1421=PRODUCT_CONTEXT('part definition',#1420,'mechanical');
#1422=PRODUCT('MirrorSupport','MirrorSupport v2',$,(#1421));
#1423=PRESENTATION_STYLE_ASSIGNMENT((#1424));
#1424=SURFACE_STYLE_USAGE(.BOTH.,#1425);
#1425=SURFACE_SIDE_STYLE('',(#1426));
#1426=SURFACE_STYLE_FILL_AREA(#1427);
#1427=FILL_AREA_STYLE('Steel - Satin',(#1428));
#1428=FILL_AREA_STYLE_COLOUR('Steel - Satin',#1429);
#1429=COLOUR_RGB('Steel - Satin',0.627450980392157,0.627450980392157,0.627450980392157);
ENDSEC;
END-ISO-10303-21;
