ISO-10303-21;
HEADER;
/* Generated by software containing ST-Developer
 * from STEP Tools, Inc. (www.steptools.com) 
 */

FILE_DESCRIPTION(
/* description */ (''),
/* implementation_level */ '2;1');

FILE_NAME(
/* name */ 'Connection.stp',
/* time_stamp */ '2026-09-06T00:02:32-03:00',
/* author */ ('vinic'),
/* organization */ (''),
/* preprocessor_version */ 'ST-DEVELOPER v20.1',
/* originating_system */ 'Autodesk Inventor 2026',
/* authorisation */ '');

FILE_SCHEMA (('AUTOMOTIVE_DESIGN { 1 0 10303 214 3 1 1 }'));
ENDSEC;

DATA;
#10=MECHANICAL_DESIGN_GEOMETRIC_PRESENTATION_REPRESENTATION('',(#13),#476);
#11=SHAPE_REPRESENTATION_RELATIONSHIP('SRR','None',#483,#12);
#12=ADVANCED_BREP_SHAPE_REPRESENTATION('',(#14),#475);
#13=STYLED_ITEM('',(#492),#14);
#14=MANIFOLD_SOLID_BREP('Solid1',#252);
#15=CONICAL_SURFACE('',#312,2.125,0.0249947936189201);
#16=LINE('',#431,#24);
#17=LINE('',#434,#25);
#18=LINE('',#440,#26);
#19=LINE('',#453,#27);
#20=LINE('',#457,#28);
#21=LINE('',#460,#29);
#22=LINE('',#467,#30);
#23=LINE('',#471,#31);
#24=VECTOR('',#351,2.9);
#25=VECTOR('',#354,2.9);
#26=VECTOR('',#361,1.25);
#27=VECTOR('',#378,3.9);
#28=VECTOR('',#383,2.9);
#29=VECTOR('',#388,2.9);
#30=VECTOR('',#397,2.25);
#31=VECTOR('',#402,2.125);
#32=CYLINDRICAL_SURFACE('',#291,2.9);
#33=CYLINDRICAL_SURFACE('',#292,2.9);
#34=CYLINDRICAL_SURFACE('',#294,1.25);
#35=CYLINDRICAL_SURFACE('',#303,3.9);
#36=CYLINDRICAL_SURFACE('',#304,2.9);
#37=CYLINDRICAL_SURFACE('',#307,2.9);
#38=CYLINDRICAL_SURFACE('',#310,2.25);
#39=FACE_BOUND('',#78,.T.);
#40=FACE_BOUND('',#80,.T.);
#41=FACE_BOUND('',#83,.T.);
#42=FACE_BOUND('',#85,.T.);
#43=FACE_BOUND('',#90,.T.);
#44=FACE_BOUND('',#92,.T.);
#45=FACE_BOUND('',#96,.T.);
#46=FACE_BOUND('',#99,.T.);
#47=FACE_BOUND('',#103,.T.);
#48=PLANE('',#279);
#49=PLANE('',#281);
#50=PLANE('',#287);
#51=PLANE('',#289);
#52=PLANE('',#297);
#53=PLANE('',#300);
#54=PLANE('',#306);
#55=PLANE('',#308);
#56=PLANE('',#314);
#57=FACE_OUTER_BOUND('',#76,.T.);
#58=FACE_OUTER_BOUND('',#77,.T.);
#59=FACE_OUTER_BOUND('',#79,.T.);
#60=FACE_OUTER_BOUND('',#81,.T.);
#61=FACE_OUTER_BOUND('',#82,.T.);
#62=FACE_OUTER_BOUND('',#84,.T.);
#63=FACE_OUTER_BOUND('',#86,.T.);
#64=FACE_OUTER_BOUND('',#87,.T.);
#65=FACE_OUTER_BOUND('',#88,.T.);
#66=FACE_OUTER_BOUND('',#89,.T.);
#67=FACE_OUTER_BOUND('',#91,.T.);
#68=FACE_OUTER_BOUND('',#93,.T.);
#69=FACE_OUTER_BOUND('',#94,.T.);
#70=FACE_OUTER_BOUND('',#95,.T.);
#71=FACE_OUTER_BOUND('',#97,.T.);
#72=FACE_OUTER_BOUND('',#98,.T.);
#73=FACE_OUTER_BOUND('',#100,.T.);
#74=FACE_OUTER_BOUND('',#101,.T.);
#75=FACE_OUTER_BOUND('',#102,.T.);
#76=EDGE_LOOP('',(#173,#174,#175,#176));
#77=EDGE_LOOP('',(#177));
#78=EDGE_LOOP('',(#178));
#79=EDGE_LOOP('',(#179));
#80=EDGE_LOOP('',(#180));
#81=EDGE_LOOP('',(#181,#182,#183,#184));
#82=EDGE_LOOP('',(#185));
#83=EDGE_LOOP('',(#186));
#84=EDGE_LOOP('',(#187));
#85=EDGE_LOOP('',(#188));
#86=EDGE_LOOP('',(#189,#190,#191,#192));
#87=EDGE_LOOP('',(#193,#194,#195,#196));
#88=EDGE_LOOP('',(#197,#198,#199,#200));
#89=EDGE_LOOP('',(#201));
#90=EDGE_LOOP('',(#202));
#91=EDGE_LOOP('',(#203));
#92=EDGE_LOOP('',(#204));
#93=EDGE_LOOP('',(#205,#206,#207,#208));
#94=EDGE_LOOP('',(#209,#210,#211,#212));
#95=EDGE_LOOP('',(#213));
#96=EDGE_LOOP('',(#214));
#97=EDGE_LOOP('',(#215,#216,#217,#218));
#98=EDGE_LOOP('',(#219));
#99=EDGE_LOOP('',(#220));
#100=EDGE_LOOP('',(#221,#222,#223,#224));
#101=EDGE_LOOP('',(#225,#226,#227,#228));
#102=EDGE_LOOP('',(#229));
#103=EDGE_LOOP('',(#230));
#104=CIRCLE('',#276,2.6);
#105=CIRCLE('',#277,0.75);
#106=CIRCLE('',#278,2.6);
#107=CIRCLE('',#280,2.9);
#108=CIRCLE('',#282,2.9);
#109=CIRCLE('',#284,2.6);
#110=CIRCLE('',#285,0.75);
#111=CIRCLE('',#286,2.6);
#112=CIRCLE('',#288,2.9);
#113=CIRCLE('',#290,2.9);
#114=CIRCLE('',#293,2.9);
#115=CIRCLE('',#295,1.25);
#116=CIRCLE('',#296,1.25);
#117=CIRCLE('',#298,3.9);
#118=CIRCLE('',#299,2.9);
#119=CIRCLE('',#301,3.9);
#120=CIRCLE('',#302,2.9);
#121=CIRCLE('',#305,2.9);
#122=CIRCLE('',#309,2.25);
#123=CIRCLE('',#311,2.25);
#124=CIRCLE('',#313,2.);
#125=VERTEX_POINT('',#407);
#126=VERTEX_POINT('',#409);
#127=VERTEX_POINT('',#413);
#128=VERTEX_POINT('',#416);
#129=VERTEX_POINT('',#419);
#130=VERTEX_POINT('',#421);
#131=VERTEX_POINT('',#425);
#132=VERTEX_POINT('',#428);
#133=VERTEX_POINT('',#433);
#134=VERTEX_POINT('',#437);
#135=VERTEX_POINT('',#439);
#136=VERTEX_POINT('',#443);
#137=VERTEX_POINT('',#445);
#138=VERTEX_POINT('',#448);
#139=VERTEX_POINT('',#450);
#140=VERTEX_POINT('',#455);
#141=VERTEX_POINT('',#462);
#142=VERTEX_POINT('',#465);
#143=VERTEX_POINT('',#469);
#144=EDGE_CURVE('',#125,#125,#104,.T.);
#145=EDGE_CURVE('',#125,#126,#105,.T.);
#146=EDGE_CURVE('',#126,#126,#106,.T.);
#147=EDGE_CURVE('',#127,#127,#107,.T.);
#148=EDGE_CURVE('',#128,#128,#108,.T.);
#149=EDGE_CURVE('',#129,#129,#109,.T.);
#150=EDGE_CURVE('',#129,#130,#110,.T.);
#151=EDGE_CURVE('',#130,#130,#111,.T.);
#152=EDGE_CURVE('',#131,#131,#112,.T.);
#153=EDGE_CURVE('',#132,#132,#113,.T.);
#154=EDGE_CURVE('',#132,#127,#16,.T.);
#155=EDGE_CURVE('',#128,#133,#17,.T.);
#156=EDGE_CURVE('',#133,#133,#114,.T.);
#157=EDGE_CURVE('',#134,#134,#115,.T.);
#158=EDGE_CURVE('',#134,#135,#18,.T.);
#159=EDGE_CURVE('',#135,#135,#116,.T.);
#160=EDGE_CURVE('',#136,#136,#117,.T.);
#161=EDGE_CURVE('',#137,#137,#118,.T.);
#162=EDGE_CURVE('',#138,#138,#119,.T.);
#163=EDGE_CURVE('',#139,#139,#120,.T.);
#164=EDGE_CURVE('',#136,#138,#19,.T.);
#165=EDGE_CURVE('',#140,#140,#121,.T.);
#166=EDGE_CURVE('',#140,#139,#20,.T.);
#167=EDGE_CURVE('',#137,#131,#21,.T.);
#168=EDGE_CURVE('',#141,#141,#122,.T.);
#169=EDGE_CURVE('',#142,#142,#123,.T.);
#170=EDGE_CURVE('',#142,#141,#22,.T.);
#171=EDGE_CURVE('',#143,#143,#124,.T.);
#172=EDGE_CURVE('',#143,#142,#23,.T.);
#173=ORIENTED_EDGE('',*,*,#144,.F.);
#174=ORIENTED_EDGE('',*,*,#145,.T.);
#175=ORIENTED_EDGE('',*,*,#146,.T.);
#176=ORIENTED_EDGE('',*,*,#145,.F.);
#177=ORIENTED_EDGE('',*,*,#147,.F.);
#178=ORIENTED_EDGE('',*,*,#146,.F.);
#179=ORIENTED_EDGE('',*,*,#148,.F.);
#180=ORIENTED_EDGE('',*,*,#144,.T.);
#181=ORIENTED_EDGE('',*,*,#149,.F.);
#182=ORIENTED_EDGE('',*,*,#150,.T.);
#183=ORIENTED_EDGE('',*,*,#151,.T.);
#184=ORIENTED_EDGE('',*,*,#150,.F.);
#185=ORIENTED_EDGE('',*,*,#152,.F.);
#186=ORIENTED_EDGE('',*,*,#151,.F.);
#187=ORIENTED_EDGE('',*,*,#153,.F.);
#188=ORIENTED_EDGE('',*,*,#149,.T.);
#189=ORIENTED_EDGE('',*,*,#153,.T.);
#190=ORIENTED_EDGE('',*,*,#154,.T.);
#191=ORIENTED_EDGE('',*,*,#147,.T.);
#192=ORIENTED_EDGE('',*,*,#154,.F.);
#193=ORIENTED_EDGE('',*,*,#148,.T.);
#194=ORIENTED_EDGE('',*,*,#155,.T.);
#195=ORIENTED_EDGE('',*,*,#156,.T.);
#196=ORIENTED_EDGE('',*,*,#155,.F.);
#197=ORIENTED_EDGE('',*,*,#157,.F.);
#198=ORIENTED_EDGE('',*,*,#158,.T.);
#199=ORIENTED_EDGE('',*,*,#159,.F.);
#200=ORIENTED_EDGE('',*,*,#158,.F.);
#201=ORIENTED_EDGE('',*,*,#160,.T.);
#202=ORIENTED_EDGE('',*,*,#161,.F.);
#203=ORIENTED_EDGE('',*,*,#162,.F.);
#204=ORIENTED_EDGE('',*,*,#163,.F.);
#205=ORIENTED_EDGE('',*,*,#160,.F.);
#206=ORIENTED_EDGE('',*,*,#164,.T.);
#207=ORIENTED_EDGE('',*,*,#162,.T.);
#208=ORIENTED_EDGE('',*,*,#164,.F.);
#209=ORIENTED_EDGE('',*,*,#165,.F.);
#210=ORIENTED_EDGE('',*,*,#166,.T.);
#211=ORIENTED_EDGE('',*,*,#163,.T.);
#212=ORIENTED_EDGE('',*,*,#166,.F.);
#213=ORIENTED_EDGE('',*,*,#156,.F.);
#214=ORIENTED_EDGE('',*,*,#159,.T.);
#215=ORIENTED_EDGE('',*,*,#161,.T.);
#216=ORIENTED_EDGE('',*,*,#167,.T.);
#217=ORIENTED_EDGE('',*,*,#152,.T.);
#218=ORIENTED_EDGE('',*,*,#167,.F.);
#219=ORIENTED_EDGE('',*,*,#165,.T.);
#220=ORIENTED_EDGE('',*,*,#168,.F.);
#221=ORIENTED_EDGE('',*,*,#169,.F.);
#222=ORIENTED_EDGE('',*,*,#170,.T.);
#223=ORIENTED_EDGE('',*,*,#168,.T.);
#224=ORIENTED_EDGE('',*,*,#170,.F.);
#225=ORIENTED_EDGE('',*,*,#171,.F.);
#226=ORIENTED_EDGE('',*,*,#172,.T.);
#227=ORIENTED_EDGE('',*,*,#169,.T.);
#228=ORIENTED_EDGE('',*,*,#172,.F.);
#229=ORIENTED_EDGE('',*,*,#171,.T.);
#230=ORIENTED_EDGE('',*,*,#157,.T.);
#231=TOROIDAL_SURFACE('',#275,2.6,0.75);
#232=TOROIDAL_SURFACE('',#283,2.6,0.75);
#233=ADVANCED_FACE('',(#57),#231,.F.);
#234=ADVANCED_FACE('',(#58,#39),#48,.F.);
#235=ADVANCED_FACE('',(#59,#40),#49,.F.);
#236=ADVANCED_FACE('',(#60),#232,.F.);
#237=ADVANCED_FACE('',(#61,#41),#50,.F.);
#238=ADVANCED_FACE('',(#62,#42),#51,.F.);
#239=ADVANCED_FACE('',(#63),#32,.T.);
#240=ADVANCED_FACE('',(#64),#33,.T.);
#241=ADVANCED_FACE('',(#65),#34,.F.);
#242=ADVANCED_FACE('',(#66,#43),#52,.T.);
#243=ADVANCED_FACE('',(#67,#44),#53,.T.);
#244=ADVANCED_FACE('',(#68),#35,.T.);
#245=ADVANCED_FACE('',(#69),#36,.T.);
#246=ADVANCED_FACE('',(#70,#45),#54,.T.);
#247=ADVANCED_FACE('',(#71),#37,.T.);
#248=ADVANCED_FACE('',(#72,#46),#55,.T.);
#249=ADVANCED_FACE('',(#73),#38,.T.);
#250=ADVANCED_FACE('',(#74),#15,.T.);
#251=ADVANCED_FACE('',(#75,#47),#56,.T.);
#252=CLOSED_SHELL('',(#233,#234,#235,#236,#237,#238,#239,#240,#241,#242,
#243,#244,#245,#246,#247,#248,#249,#250,#251));
#253=DERIVED_UNIT_ELEMENT(#256,1.);
#254=DERIVED_UNIT_ELEMENT(#478,-3.);
#255=DIMENSIONAL_EXPONENTS(0.,1.,0.,0.,0.,0.,0.);
#256=(
CONVERSION_BASED_UNIT('gram',#258)
MASS_UNIT()
NAMED_UNIT(#255)
);
#257=(
MASS_UNIT()
NAMED_UNIT(*)
SI_UNIT(.KILO.,.GRAM.)
);
#258=MASS_MEASURE_WITH_UNIT(MASS_MEASURE(0.001),#257);
#259=DERIVED_UNIT((#253,#254));
#260=MEASURE_REPRESENTATION_ITEM('density measure',
POSITIVE_RATIO_MEASURE(1.13),#259);
#261=PROPERTY_DEFINITION_REPRESENTATION(#266,#263);
#262=PROPERTY_DEFINITION_REPRESENTATION(#267,#264);
#263=REPRESENTATION('material name',(#265),#475);
#264=REPRESENTATION('density',(#260),#475);
#265=DESCRIPTIVE_REPRESENTATION_ITEM('Nylon 6/6','Nylon 6/6');
#266=PROPERTY_DEFINITION('material property','material name',#485);
#267=PROPERTY_DEFINITION('material property','density of part',#485);
#268=DATE_TIME_ROLE('creation_date');
#269=APPLIED_DATE_AND_TIME_ASSIGNMENT(#270,#268,(#485));
#270=DATE_AND_TIME(#271,#272);
#271=CALENDAR_DATE(2023,3,5);
#272=LOCAL_TIME(0,0,0.,#273);
#273=COORDINATED_UNIVERSAL_TIME_OFFSET(0,0,.BEHIND.);
#274=AXIS2_PLACEMENT_3D('',#405,#315,#316);
#275=AXIS2_PLACEMENT_3D('',#406,#317,#318);
#276=AXIS2_PLACEMENT_3D('',#408,#319,#320);
#277=AXIS2_PLACEMENT_3D('',#410,#321,#322);
#278=AXIS2_PLACEMENT_3D('',#411,#323,#324);
#279=AXIS2_PLACEMENT_3D('',#412,#325,#326);
#280=AXIS2_PLACEMENT_3D('',#414,#327,#328);
#281=AXIS2_PLACEMENT_3D('',#415,#329,#330);
#282=AXIS2_PLACEMENT_3D('',#417,#331,#332);
#283=AXIS2_PLACEMENT_3D('',#418,#333,#334);
#284=AXIS2_PLACEMENT_3D('',#420,#335,#336);
#285=AXIS2_PLACEMENT_3D('',#422,#337,#338);
#286=AXIS2_PLACEMENT_3D('',#423,#339,#340);
#287=AXIS2_PLACEMENT_3D('',#424,#341,#342);
#288=AXIS2_PLACEMENT_3D('',#426,#343,#344);
#289=AXIS2_PLACEMENT_3D('',#427,#345,#346);
#290=AXIS2_PLACEMENT_3D('',#429,#347,#348);
#291=AXIS2_PLACEMENT_3D('',#430,#349,#350);
#292=AXIS2_PLACEMENT_3D('',#432,#352,#353);
#293=AXIS2_PLACEMENT_3D('',#435,#355,#356);
#294=AXIS2_PLACEMENT_3D('',#436,#357,#358);
#295=AXIS2_PLACEMENT_3D('',#438,#359,#360);
#296=AXIS2_PLACEMENT_3D('',#441,#362,#363);
#297=AXIS2_PLACEMENT_3D('',#442,#364,#365);
#298=AXIS2_PLACEMENT_3D('',#444,#366,#367);
#299=AXIS2_PLACEMENT_3D('',#446,#368,#369);
#300=AXIS2_PLACEMENT_3D('',#447,#370,#371);
#301=AXIS2_PLACEMENT_3D('',#449,#372,#373);
#302=AXIS2_PLACEMENT_3D('',#451,#374,#375);
#303=AXIS2_PLACEMENT_3D('',#452,#376,#377);
#304=AXIS2_PLACEMENT_3D('',#454,#379,#380);
#305=AXIS2_PLACEMENT_3D('',#456,#381,#382);
#306=AXIS2_PLACEMENT_3D('',#458,#384,#385);
#307=AXIS2_PLACEMENT_3D('',#459,#386,#387);
#308=AXIS2_PLACEMENT_3D('',#461,#389,#390);
#309=AXIS2_PLACEMENT_3D('',#463,#391,#392);
#310=AXIS2_PLACEMENT_3D('',#464,#393,#394);
#311=AXIS2_PLACEMENT_3D('',#466,#395,#396);
#312=AXIS2_PLACEMENT_3D('',#468,#398,#399);
#313=AXIS2_PLACEMENT_3D('',#470,#400,#401);
#314=AXIS2_PLACEMENT_3D('',#472,#403,#404);
#315=DIRECTION('axis',(0.,0.,1.));
#316=DIRECTION('refdir',(1.,0.,0.));
#317=DIRECTION('center_axis',(-1.,0.,0.));
#318=DIRECTION('ref_axis',(0.,0.,1.));
#319=DIRECTION('center_axis',(-1.,0.,0.));
#320=DIRECTION('ref_axis',(0.,0.,1.));
#321=DIRECTION('center_axis',(0.,1.,-1.22464679914735E-16));
#322=DIRECTION('ref_axis',(0.,-1.22464679914735E-16,-1.));
#323=DIRECTION('center_axis',(-1.,0.,0.));
#324=DIRECTION('ref_axis',(0.,0.,1.));
#325=DIRECTION('center_axis',(1.,0.,0.));
#326=DIRECTION('ref_axis',(0.,0.,-1.));
#327=DIRECTION('center_axis',(1.,0.,0.));
#328=DIRECTION('ref_axis',(0.,0.,-1.));
#329=DIRECTION('center_axis',(-1.,0.,0.));
#330=DIRECTION('ref_axis',(0.,0.,1.));
#331=DIRECTION('center_axis',(-1.,0.,0.));
#332=DIRECTION('ref_axis',(0.,0.,-1.));
#333=DIRECTION('center_axis',(-1.,0.,0.));
#334=DIRECTION('ref_axis',(0.,0.,1.));
#335=DIRECTION('center_axis',(-1.,0.,0.));
#336=DIRECTION('ref_axis',(0.,0.,1.));
#337=DIRECTION('center_axis',(0.,1.,-1.22464679914735E-16));
#338=DIRECTION('ref_axis',(0.,-1.22464679914735E-16,-1.));
#339=DIRECTION('center_axis',(-1.,0.,0.));
#340=DIRECTION('ref_axis',(0.,0.,1.));
#341=DIRECTION('center_axis',(1.,0.,0.));
#342=DIRECTION('ref_axis',(0.,0.,-1.));
#343=DIRECTION('center_axis',(1.,0.,0.));
#344=DIRECTION('ref_axis',(0.,0.,-1.));
#345=DIRECTION('center_axis',(-1.,0.,0.));
#346=DIRECTION('ref_axis',(0.,0.,1.));
#347=DIRECTION('center_axis',(-1.,0.,0.));
#348=DIRECTION('ref_axis',(0.,0.,-1.));
#349=DIRECTION('center_axis',(1.,0.,0.));
#350=DIRECTION('ref_axis',(0.,0.,-1.));
#351=DIRECTION('',(-1.,0.,0.));
#352=DIRECTION('center_axis',(1.,0.,0.));
#353=DIRECTION('ref_axis',(0.,0.,-1.));
#354=DIRECTION('',(-1.,0.,0.));
#355=DIRECTION('center_axis',(1.,0.,0.));
#356=DIRECTION('ref_axis',(0.,0.,-1.));
#357=DIRECTION('center_axis',(-1.,0.,0.));
#358=DIRECTION('ref_axis',(0.,0.,1.));
#359=DIRECTION('center_axis',(-1.,0.,0.));
#360=DIRECTION('ref_axis',(0.,0.,1.));
#361=DIRECTION('',(-1.,0.,0.));
#362=DIRECTION('center_axis',(1.,0.,0.));
#363=DIRECTION('ref_axis',(0.,0.,1.));
#364=DIRECTION('center_axis',(-1.,0.,0.));
#365=DIRECTION('ref_axis',(0.,0.,1.));
#366=DIRECTION('center_axis',(-1.,0.,0.));
#367=DIRECTION('ref_axis',(0.,0.,1.));
#368=DIRECTION('center_axis',(-1.,0.,0.));
#369=DIRECTION('ref_axis',(0.,0.,-1.));
#370=DIRECTION('center_axis',(1.,0.,0.));
#371=DIRECTION('ref_axis',(0.,0.,-1.));
#372=DIRECTION('center_axis',(-1.,0.,0.));
#373=DIRECTION('ref_axis',(0.,0.,1.));
#374=DIRECTION('center_axis',(1.,0.,0.));
#375=DIRECTION('ref_axis',(0.,0.,-1.));
#376=DIRECTION('center_axis',(-1.,0.,0.));
#377=DIRECTION('ref_axis',(0.,1.,0.));
#378=DIRECTION('',(1.,0.,0.));
#379=DIRECTION('center_axis',(1.,0.,0.));
#380=DIRECTION('ref_axis',(0.,0.,-1.));
#381=DIRECTION('center_axis',(1.,0.,0.));
#382=DIRECTION('ref_axis',(0.,0.,-1.));
#383=DIRECTION('',(-1.,0.,0.));
#384=DIRECTION('center_axis',(-1.,0.,0.));
#385=DIRECTION('ref_axis',(0.,0.,1.));
#386=DIRECTION('center_axis',(1.,0.,0.));
#387=DIRECTION('ref_axis',(0.,0.,-1.));
#388=DIRECTION('',(-1.,0.,0.));
#389=DIRECTION('center_axis',(1.,0.,0.));
#390=DIRECTION('ref_axis',(0.,0.,-1.));
#391=DIRECTION('center_axis',(1.,0.,0.));
#392=DIRECTION('ref_axis',(0.,0.,-1.));
#393=DIRECTION('center_axis',(1.,0.,0.));
#394=DIRECTION('ref_axis',(0.,0.,-1.));
#395=DIRECTION('center_axis',(1.,0.,0.));
#396=DIRECTION('ref_axis',(0.,0.,-1.));
#397=DIRECTION('',(-1.,0.,0.));
#398=DIRECTION('center_axis',(-1.,0.,0.));
#399=DIRECTION('ref_axis',(0.,0.,-1.));
#400=DIRECTION('center_axis',(1.,0.,0.));
#401=DIRECTION('ref_axis',(0.,0.,-1.));
#402=DIRECTION('',(-0.999687646408123,-3.06066069080215E-18,0.0249921911602031));
#403=DIRECTION('center_axis',(1.,0.,0.));
#404=DIRECTION('ref_axis',(0.,0.,-1.));
#405=CARTESIAN_POINT('',(0.,0.,0.));
#406=CARTESIAN_POINT('Origin',(-27.5,0.,0.));
#407=CARTESIAN_POINT('',(-28.25,-3.18408167778311E-16,-2.6));
#408=CARTESIAN_POINT('Origin',(-28.25,0.,0.));
#409=CARTESIAN_POINT('',(-26.75,-3.18408167778312E-16,-2.6));
#410=CARTESIAN_POINT('Origin',(-27.5,-3.18408167778312E-16,-2.6));
#411=CARTESIAN_POINT('Origin',(-26.75,0.,0.));
#412=CARTESIAN_POINT('Origin',(-26.75,3.2,0.));
#413=CARTESIAN_POINT('',(-26.75,-3.55147571752732E-16,2.9));
#414=CARTESIAN_POINT('Origin',(-26.75,0.,0.));
#415=CARTESIAN_POINT('Origin',(-28.25,2.6,0.));
#416=CARTESIAN_POINT('',(-28.25,3.55147571752732E-16,2.9));
#417=CARTESIAN_POINT('Origin',(-28.25,0.,0.));
#418=CARTESIAN_POINT('Origin',(-23.5,0.,0.));
#419=CARTESIAN_POINT('',(-24.25,-3.18408167778311E-16,-2.6));
#420=CARTESIAN_POINT('Origin',(-24.25,0.,0.));
#421=CARTESIAN_POINT('',(-22.75,-3.18408167778312E-16,-2.6));
#422=CARTESIAN_POINT('Origin',(-23.5,-3.18408167778312E-16,-2.6));
#423=CARTESIAN_POINT('Origin',(-22.75,0.,0.));
#424=CARTESIAN_POINT('Origin',(-22.75,3.2,0.));
#425=CARTESIAN_POINT('',(-22.75,-3.55147571752732E-16,2.9));
#426=CARTESIAN_POINT('Origin',(-22.75,0.,0.));
#427=CARTESIAN_POINT('Origin',(-24.25,2.6,0.));
#428=CARTESIAN_POINT('',(-24.25,3.55147571752732E-16,2.9));
#429=CARTESIAN_POINT('Origin',(-24.25,0.,0.));
#430=CARTESIAN_POINT('Origin',(-22.,0.,0.));
#431=CARTESIAN_POINT('',(-22.,-3.55147571752732E-16,2.9));
#432=CARTESIAN_POINT('Origin',(-22.,0.,0.));
#433=CARTESIAN_POINT('',(-30.,-3.55147571752732E-16,2.9));
#434=CARTESIAN_POINT('',(-22.,-3.55147571752732E-16,2.9));
#435=CARTESIAN_POINT('Origin',(-30.,0.,0.));
#436=CARTESIAN_POINT('Origin',(0.,0.,0.));
#437=CARTESIAN_POINT('',(0.,1.53080849893419E-16,-1.25));
#438=CARTESIAN_POINT('Origin',(0.,0.,0.));
#439=CARTESIAN_POINT('',(-30.,1.53080849893419E-16,-1.25));
#440=CARTESIAN_POINT('',(0.,-1.53080849893419E-16,-1.25));
#441=CARTESIAN_POINT('Origin',(-30.,0.,0.));
#442=CARTESIAN_POINT('Origin',(-21.,1.9,0.));
#443=CARTESIAN_POINT('',(-21.,-3.9,4.77612251667468E-16));
#444=CARTESIAN_POINT('Origin',(-21.,0.,0.));
#445=CARTESIAN_POINT('',(-21.,3.55147571752732E-16,2.9));
#446=CARTESIAN_POINT('Origin',(-21.,0.,0.));
#447=CARTESIAN_POINT('Origin',(-19.,3.9,0.));
#448=CARTESIAN_POINT('',(-19.,-3.9,4.77612251667468E-16));
#449=CARTESIAN_POINT('Origin',(-19.,0.,0.));
#450=CARTESIAN_POINT('',(-19.,-3.55147571752732E-16,2.9));
#451=CARTESIAN_POINT('Origin',(-19.,0.,0.));
#452=CARTESIAN_POINT('Origin',(-20.,0.,0.));
#453=CARTESIAN_POINT('',(-20.,-3.9,4.77612251667468E-16));
#454=CARTESIAN_POINT('Origin',(-22.,0.,0.));
#455=CARTESIAN_POINT('',(-14.,-3.55147571752732E-16,2.9));
#456=CARTESIAN_POINT('Origin',(-14.,0.,0.));
#457=CARTESIAN_POINT('',(-22.,-3.55147571752732E-16,2.9));
#458=CARTESIAN_POINT('Origin',(-30.,0.,-2.9));
#459=CARTESIAN_POINT('Origin',(-22.,0.,0.));
#460=CARTESIAN_POINT('',(-22.,-3.55147571752732E-16,2.9));
#461=CARTESIAN_POINT('Origin',(-14.,0.,-2.25));
#462=CARTESIAN_POINT('',(-14.,-2.75545529808154E-16,2.25));
#463=CARTESIAN_POINT('Origin',(-14.,0.,0.));
#464=CARTESIAN_POINT('Origin',(-12.,0.,0.));
#465=CARTESIAN_POINT('',(-10.,-2.75545529808154E-16,2.25));
#466=CARTESIAN_POINT('Origin',(-10.,0.,0.));
#467=CARTESIAN_POINT('',(-12.,-2.75545529808154E-16,2.25));
#468=CARTESIAN_POINT('Origin',(-5.,0.,0.));
#469=CARTESIAN_POINT('',(0.,-2.44929359829471E-16,2.));
#470=CARTESIAN_POINT('Origin',(0.,0.,0.));
#471=CARTESIAN_POINT('',(-5.,-2.60237444818813E-16,2.125));
#472=CARTESIAN_POINT('Origin',(0.,0.,0.));
#473=UNCERTAINTY_MEASURE_WITH_UNIT(LENGTH_MEASURE(0.01),#477,
'DISTANCE_ACCURACY_VALUE',
'Maximum model space distance between geometric entities at asserted c
onnectivities');
#474=UNCERTAINTY_MEASURE_WITH_UNIT(LENGTH_MEASURE(0.01),#477,
'DISTANCE_ACCURACY_VALUE',
'Maximum model space distance between geometric entities at asserted c
onnectivities');
#475=(
GEOMETRIC_REPRESENTATION_CONTEXT(3)
GLOBAL_UNCERTAINTY_ASSIGNED_CONTEXT((#473))
GLOBAL_UNIT_ASSIGNED_CONTEXT((#477,#479,#480))
REPRESENTATION_CONTEXT('','3D')
);
#476=(
GEOMETRIC_REPRESENTATION_CONTEXT(3)
GLOBAL_UNCERTAINTY_ASSIGNED_CONTEXT((#474))
GLOBAL_UNIT_ASSIGNED_CONTEXT((#477,#479,#480))
REPRESENTATION_CONTEXT('','3D')
);
#477=(
LENGTH_UNIT()
NAMED_UNIT(*)
SI_UNIT(.MILLI.,.METRE.)
);
#478=(
LENGTH_UNIT()
NAMED_UNIT(*)
SI_UNIT(.CENTI.,.METRE.)
);
#479=(
NAMED_UNIT(*)
PLANE_ANGLE_UNIT()
SI_UNIT($,.RADIAN.)
);
#480=(
NAMED_UNIT(*)
SI_UNIT($,.STERADIAN.)
SOLID_ANGLE_UNIT()
);
#481=SHAPE_DEFINITION_REPRESENTATION(#482,#483);
#482=PRODUCT_DEFINITION_SHAPE('',$,#485);
#483=SHAPE_REPRESENTATION('',(#274),#475);
#484=PRODUCT_DEFINITION_CONTEXT('part definition',#489,'design');
#485=PRODUCT_DEFINITION('Connection','Connection',#486,#484);
#486=PRODUCT_DEFINITION_FORMATION('',$,#491);
#487=PRODUCT_RELATED_PRODUCT_CATEGORY('Connection','Connection',(#491));
#488=APPLICATION_PROTOCOL_DEFINITION('international standard',
'automotive_design',2009,#489);
#489=APPLICATION_CONTEXT(
'Core Data for Automotive Mechanical Design Process');
#490=PRODUCT_CONTEXT('part definition',#489,'mechanical');
#491=PRODUCT('Connection','Connection',$,(#490));
#492=PRESENTATION_STYLE_ASSIGNMENT((#493));
#493=SURFACE_STYLE_USAGE(.BOTH.,#496);
#494=SURFACE_STYLE_RENDERING_WITH_PROPERTIES($,#500,(#495));
#495=SURFACE_STYLE_TRANSPARENT(0.);
#496=SURFACE_SIDE_STYLE('',(#497,#494));
#497=SURFACE_STYLE_FILL_AREA(#498);
#498=FILL_AREA_STYLE('',(#499));
#499=FILL_AREA_STYLE_COLOUR('',#500);
#500=COLOUR_RGB('',1.,0.968627450980392,0.725490196078431);
ENDSEC;
END-ISO-10303-21;
