ISO-10303-21;
HEADER;
/* Generated by software containing ST-Developer
 * from STEP Tools, Inc. (www.steptools.com) 
 */

FILE_DESCRIPTION(
/* description */ (''),
/* implementation_level */ '2;1');

FILE_NAME(
/* name */ 'MainSupport.stp',
/* time_stamp */ '2026-09-05T23:15:39-03:00',
/* author */ ('vinic'),
/* organization */ (''),
/* preprocessor_version */ 'ST-DEVELOPER v20.1',
/* originating_system */ 'Autodesk Inventor 2026',
/* authorisation */ '');

FILE_SCHEMA (('AUTOMOTIVE_DESIGN { 1 0 10303 214 3 1 1 }'));
ENDSEC;

DATA;
#10=MECHANICAL_DESIGN_GEOMETRIC_PRESENTATION_REPRESENTATION('',(#16),#1970);
#11=GEOMETRICALLY_BOUNDED_WIREFRAME_SHAPE_REPRESENTATION('',(#12),#1969);
#12=GEOMETRIC_CURVE_SET('Sketch36',(#1966));
#13=SHAPE_REPRESENTATION_RELATIONSHIP('SRR','None',#1977,#15);
#14=SHAPE_REPRESENTATION_RELATIONSHIP('SRR','None',#1977,#11);
#15=ADVANCED_BREP_SHAPE_REPRESENTATION('',(#17),#1969);
#16=STYLED_ITEM('',(#1986),#17);
#17=MANIFOLD_SOLID_BREP('Solid1',#1179);
#18=FACE_BOUND('',#138,.T.);
#19=FACE_BOUND('',#140,.T.);
#20=FACE_BOUND('',#148,.T.);
#21=FACE_BOUND('',#149,.T.);
#22=FACE_BOUND('',#150,.T.);
#23=FACE_BOUND('',#151,.T.);
#24=FACE_BOUND('',#152,.T.);
#25=FACE_BOUND('',#158,.T.);
#26=FACE_BOUND('',#162,.T.);
#27=FACE_BOUND('',#163,.T.);
#28=FACE_BOUND('',#164,.T.);
#29=FACE_BOUND('',#165,.T.);
#30=FACE_BOUND('',#166,.T.);
#31=FACE_BOUND('',#167,.T.);
#32=FACE_BOUND('',#208,.T.);
#33=FACE_BOUND('',#209,.T.);
#34=FACE_BOUND('',#210,.T.);
#35=FACE_BOUND('',#212,.T.);
#36=FACE_BOUND('',#213,.T.);
#37=FACE_BOUND('',#214,.T.);
#38=PLANE('',#1205);
#39=PLANE('',#1207);
#40=PLANE('',#1211);
#41=PLANE('',#1215);
#42=PLANE('',#1219);
#43=PLANE('',#1220);
#44=PLANE('',#1231);
#45=PLANE('',#1232);
#46=PLANE('',#1242);
#47=PLANE('',#1243);
#48=PLANE('',#1244);
#49=PLANE('',#1245);
#50=PLANE('',#1256);
#51=PLANE('',#1257);
#52=PLANE('',#1258);
#53=PLANE('',#1259);
#54=PLANE('',#1260);
#55=PLANE('',#1261);
#56=PLANE('',#1263);
#57=PLANE('',#1265);
#58=PLANE('',#1267);
#59=PLANE('',#1269);
#60=PLANE('',#1271);
#61=PLANE('',#1273);
#62=PLANE('',#1275);
#63=PLANE('',#1277);
#64=PLANE('',#1279);
#65=PLANE('',#1281);
#66=PLANE('',#1282);
#67=PLANE('',#1283);
#68=PLANE('',#1287);
#69=PLANE('',#1291);
#70=PLANE('',#1295);
#71=PLANE('',#1299);
#72=PLANE('',#1300);
#73=PLANE('',#1301);
#74=PLANE('',#1302);
#75=PLANE('',#1303);
#76=PLANE('',#1304);
#77=FACE_OUTER_BOUND('',#136,.T.);
#78=FACE_OUTER_BOUND('',#137,.T.);
#79=FACE_OUTER_BOUND('',#139,.T.);
#80=FACE_OUTER_BOUND('',#141,.T.);
#81=FACE_OUTER_BOUND('',#142,.T.);
#82=FACE_OUTER_BOUND('',#143,.T.);
#83=FACE_OUTER_BOUND('',#144,.T.);
#84=FACE_OUTER_BOUND('',#145,.T.);
#85=FACE_OUTER_BOUND('',#146,.T.);
#86=FACE_OUTER_BOUND('',#147,.T.);
#87=FACE_OUTER_BOUND('',#153,.T.);
#88=FACE_OUTER_BOUND('',#154,.T.);
#89=FACE_OUTER_BOUND('',#155,.T.);
#90=FACE_OUTER_BOUND('',#156,.T.);
#91=FACE_OUTER_BOUND('',#157,.T.);
#92=FACE_OUTER_BOUND('',#159,.T.);
#93=FACE_OUTER_BOUND('',#160,.T.);
#94=FACE_OUTER_BOUND('',#161,.T.);
#95=FACE_OUTER_BOUND('',#168,.T.);
#96=FACE_OUTER_BOUND('',#169,.T.);
#97=FACE_OUTER_BOUND('',#170,.T.);
#98=FACE_OUTER_BOUND('',#171,.T.);
#99=FACE_OUTER_BOUND('',#172,.T.);
#100=FACE_OUTER_BOUND('',#173,.T.);
#101=FACE_OUTER_BOUND('',#174,.T.);
#102=FACE_OUTER_BOUND('',#175,.T.);
#103=FACE_OUTER_BOUND('',#176,.T.);
#104=FACE_OUTER_BOUND('',#177,.T.);
#105=FACE_OUTER_BOUND('',#178,.T.);
#106=FACE_OUTER_BOUND('',#179,.T.);
#107=FACE_OUTER_BOUND('',#180,.T.);
#108=FACE_OUTER_BOUND('',#181,.T.);
#109=FACE_OUTER_BOUND('',#182,.T.);
#110=FACE_OUTER_BOUND('',#183,.T.);
#111=FACE_OUTER_BOUND('',#184,.T.);
#112=FACE_OUTER_BOUND('',#185,.T.);
#113=FACE_OUTER_BOUND('',#186,.T.);
#114=FACE_OUTER_BOUND('',#187,.T.);
#115=FACE_OUTER_BOUND('',#188,.T.);
#116=FACE_OUTER_BOUND('',#189,.T.);
#117=FACE_OUTER_BOUND('',#190,.T.);
#118=FACE_OUTER_BOUND('',#191,.T.);
#119=FACE_OUTER_BOUND('',#192,.T.);
#120=FACE_OUTER_BOUND('',#193,.T.);
#121=FACE_OUTER_BOUND('',#194,.T.);
#122=FACE_OUTER_BOUND('',#195,.T.);
#123=FACE_OUTER_BOUND('',#196,.T.);
#124=FACE_OUTER_BOUND('',#197,.T.);
#125=FACE_OUTER_BOUND('',#198,.T.);
#126=FACE_OUTER_BOUND('',#199,.T.);
#127=FACE_OUTER_BOUND('',#200,.T.);
#128=FACE_OUTER_BOUND('',#201,.T.);
#129=FACE_OUTER_BOUND('',#202,.T.);
#130=FACE_OUTER_BOUND('',#203,.T.);
#131=FACE_OUTER_BOUND('',#204,.T.);
#132=FACE_OUTER_BOUND('',#205,.T.);
#133=FACE_OUTER_BOUND('',#206,.T.);
#134=FACE_OUTER_BOUND('',#207,.T.);
#135=FACE_OUTER_BOUND('',#211,.T.);
#136=EDGE_LOOP('',(#772,#773,#774,#775));
#137=EDGE_LOOP('',(#776));
#138=EDGE_LOOP('',(#777));
#139=EDGE_LOOP('',(#778));
#140=EDGE_LOOP('',(#779));
#141=EDGE_LOOP('',(#780,#781,#782,#783));
#142=EDGE_LOOP('',(#784,#785,#786,#787));
#143=EDGE_LOOP('',(#788,#789,#790,#791));
#144=EDGE_LOOP('',(#792,#793,#794,#795));
#145=EDGE_LOOP('',(#796,#797,#798,#799));
#146=EDGE_LOOP('',(#800,#801,#802,#803));
#147=EDGE_LOOP('',(#804,#805,#806,#807));
#148=EDGE_LOOP('',(#808,#809,#810,#811));
#149=EDGE_LOOP('',(#812,#813,#814,#815));
#150=EDGE_LOOP('',(#816,#817,#818,#819));
#151=EDGE_LOOP('',(#820,#821,#822,#823));
#152=EDGE_LOOP('',(#824,#825,#826,#827));
#153=EDGE_LOOP('',(#828,#829,#830,#831));
#154=EDGE_LOOP('',(#832,#833,#834,#835));
#155=EDGE_LOOP('',(#836,#837,#838,#839,#840,#841,#842,#843,#844,#845,#846,
#847));
#156=EDGE_LOOP('',(#848,#849,#850,#851));
#157=EDGE_LOOP('',(#852));
#158=EDGE_LOOP('',(#853));
#159=EDGE_LOOP('',(#854,#855,#856,#857));
#160=EDGE_LOOP('',(#858,#859,#860,#861));
#161=EDGE_LOOP('',(#862,#863,#864,#865,#866,#867,#868,#869,#870,#871,#872));
#162=EDGE_LOOP('',(#873));
#163=EDGE_LOOP('',(#874,#875,#876,#877));
#164=EDGE_LOOP('',(#878,#879,#880,#881));
#165=EDGE_LOOP('',(#882,#883,#884,#885));
#166=EDGE_LOOP('',(#886,#887,#888,#889));
#167=EDGE_LOOP('',(#890,#891,#892,#893));
#168=EDGE_LOOP('',(#894,#895,#896,#897));
#169=EDGE_LOOP('',(#898,#899,#900,#901));
#170=EDGE_LOOP('',(#902,#903,#904,#905));
#171=EDGE_LOOP('',(#906,#907,#908,#909));
#172=EDGE_LOOP('',(#910,#911,#912,#913));
#173=EDGE_LOOP('',(#914,#915,#916,#917,#918,#919,#920,#921,#922,#923,#924,
#925,#926));
#174=EDGE_LOOP('',(#927,#928,#929,#930));
#175=EDGE_LOOP('',(#931,#932,#933,#934));
#176=EDGE_LOOP('',(#935,#936,#937,#938));
#177=EDGE_LOOP('',(#939,#940,#941,#942));
#178=EDGE_LOOP('',(#943,#944,#945,#946));
#179=EDGE_LOOP('',(#947,#948,#949,#950));
#180=EDGE_LOOP('',(#951,#952,#953,#954));
#181=EDGE_LOOP('',(#955,#956,#957,#958));
#182=EDGE_LOOP('',(#959,#960,#961,#962));
#183=EDGE_LOOP('',(#963,#964,#965,#966));
#184=EDGE_LOOP('',(#967,#968,#969,#970));
#185=EDGE_LOOP('',(#971,#972,#973,#974));
#186=EDGE_LOOP('',(#975,#976,#977,#978));
#187=EDGE_LOOP('',(#979,#980,#981,#982));
#188=EDGE_LOOP('',(#983,#984,#985,#986));
#189=EDGE_LOOP('',(#987,#988,#989,#990));
#190=EDGE_LOOP('',(#991,#992,#993,#994));
#191=EDGE_LOOP('',(#995,#996,#997,#998));
#192=EDGE_LOOP('',(#999,#1000,#1001,#1002));
#193=EDGE_LOOP('',(#1003,#1004,#1005,#1006));
#194=EDGE_LOOP('',(#1007,#1008,#1009,#1010,#1011,#1012));
#195=EDGE_LOOP('',(#1013,#1014,#1015,#1016));
#196=EDGE_LOOP('',(#1017,#1018,#1019,#1020));
#197=EDGE_LOOP('',(#1021,#1022,#1023,#1024));
#198=EDGE_LOOP('',(#1025,#1026,#1027,#1028));
#199=EDGE_LOOP('',(#1029,#1030,#1031,#1032));
#200=EDGE_LOOP('',(#1033,#1034,#1035,#1036));
#201=EDGE_LOOP('',(#1037,#1038,#1039,#1040));
#202=EDGE_LOOP('',(#1041,#1042,#1043,#1044));
#203=EDGE_LOOP('',(#1045,#1046,#1047,#1048));
#204=EDGE_LOOP('',(#1049,#1050,#1051,#1052));
#205=EDGE_LOOP('',(#1053,#1054,#1055,#1056));
#206=EDGE_LOOP('',(#1057,#1058,#1059,#1060));
#207=EDGE_LOOP('',(#1061,#1062,#1063,#1064,#1065,#1066,#1067,#1068,#1069));
#208=EDGE_LOOP('',(#1070,#1071,#1072,#1073));
#209=EDGE_LOOP('',(#1074,#1075,#1076,#1077));
#210=EDGE_LOOP('',(#1078,#1079,#1080,#1081));
#211=EDGE_LOOP('',(#1082,#1083,#1084,#1085,#1086,#1087));
#212=EDGE_LOOP('',(#1088,#1089,#1090,#1091));
#213=EDGE_LOOP('',(#1092,#1093,#1094,#1095));
#214=EDGE_LOOP('',(#1096,#1097,#1098,#1099));
#215=LINE('',#1638,#335);
#216=LINE('',#1649,#336);
#217=LINE('',#1653,#337);
#218=LINE('',#1655,#338);
#219=LINE('',#1657,#339);
#220=LINE('',#1658,#340);
#221=LINE('',#1664,#341);
#222=LINE('',#1667,#342);
#223=LINE('',#1669,#343);
#224=LINE('',#1670,#344);
#225=LINE('',#1677,#345);
#226=LINE('',#1679,#346);
#227=LINE('',#1681,#347);
#228=LINE('',#1682,#348);
#229=LINE('',#1686,#349);
#230=LINE('',#1688,#350);
#231=LINE('',#1690,#351);
#232=LINE('',#1691,#352);
#233=LINE('',#1696,#353);
#234=LINE('',#1699,#354);
#235=LINE('',#1704,#355);
#236=LINE('',#1707,#356);
#237=LINE('',#1712,#357);
#238=LINE('',#1715,#358);
#239=LINE('',#1720,#359);
#240=LINE('',#1723,#360);
#241=LINE('',#1728,#361);
#242=LINE('',#1731,#362);
#243=LINE('',#1734,#363);
#244=LINE('',#1736,#364);
#245=LINE('',#1737,#365);
#246=LINE('',#1739,#366);
#247=LINE('',#1741,#367);
#248=LINE('',#1742,#368);
#249=LINE('',#1747,#369);
#250=LINE('',#1751,#370);
#251=LINE('',#1755,#371);
#252=LINE('',#1759,#372);
#253=LINE('',#1763,#373);
#254=LINE('',#1767,#374);
#255=LINE('',#1772,#375);
#256=LINE('',#1774,#376);
#257=LINE('',#1775,#377);
#258=LINE('',#1778,#378);
#259=LINE('',#1779,#379);
#260=LINE('',#1782,#380);
#261=LINE('',#1784,#381);
#262=LINE('',#1786,#382);
#263=LINE('',#1788,#383);
#264=LINE('',#1790,#384);
#265=LINE('',#1792,#385);
#266=LINE('',#1794,#386);
#267=LINE('',#1796,#387);
#268=LINE('',#1797,#388);
#269=LINE('',#1802,#389);
#270=LINE('',#1805,#390);
#271=LINE('',#1810,#391);
#272=LINE('',#1813,#392);
#273=LINE('',#1818,#393);
#274=LINE('',#1821,#394);
#275=LINE('',#1826,#395);
#276=LINE('',#1829,#396);
#277=LINE('',#1834,#397);
#278=LINE('',#1837,#398);
#279=LINE('',#1840,#399);
#280=LINE('',#1841,#400);
#281=LINE('',#1844,#401);
#282=LINE('',#1845,#402);
#283=LINE('',#1848,#403);
#284=LINE('',#1849,#404);
#285=LINE('',#1851,#405);
#286=LINE('',#1853,#406);
#287=LINE('',#1855,#407);
#288=LINE('',#1856,#408);
#289=LINE('',#1858,#409);
#290=LINE('',#1859,#410);
#291=LINE('',#1861,#411);
#292=LINE('',#1863,#412);
#293=LINE('',#1866,#413);
#294=LINE('',#1867,#414);
#295=LINE('',#1869,#415);
#296=LINE('',#1871,#416);
#297=LINE('',#1874,#417);
#298=LINE('',#1875,#418);
#299=LINE('',#1877,#419);
#300=LINE('',#1879,#420);
#301=LINE('',#1882,#421);
#302=LINE('',#1883,#422);
#303=LINE('',#1885,#423);
#304=LINE('',#1887,#424);
#305=LINE('',#1890,#425);
#306=LINE('',#1891,#426);
#307=LINE('',#1893,#427);
#308=LINE('',#1895,#428);
#309=LINE('',#1898,#429);
#310=LINE('',#1900,#430);
#311=LINE('',#1906,#431);
#312=LINE('',#1909,#432);
#313=LINE('',#1912,#433);
#314=LINE('',#1914,#434);
#315=LINE('',#1915,#435);
#316=LINE('',#1920,#436);
#317=LINE('',#1923,#437);
#318=LINE('',#1924,#438);
#319=LINE('',#1930,#439);
#320=LINE('',#1933,#440);
#321=LINE('',#1936,#441);
#322=LINE('',#1938,#442);
#323=LINE('',#1939,#443);
#324=LINE('',#1944,#444);
#325=LINE('',#1947,#445);
#326=LINE('',#1948,#446);
#327=LINE('',#1951,#447);
#328=LINE('',#1953,#448);
#329=LINE('',#1954,#449);
#330=LINE('',#1957,#450);
#331=LINE('',#1959,#451);
#332=LINE('',#1960,#452);
#333=LINE('',#1962,#453);
#334=LINE('',#1963,#454);
#335=VECTOR('',#1311,13.);
#336=VECTOR('',#1326,16.);
#337=VECTOR('',#1329,10.);
#338=VECTOR('',#1330,10.);
#339=VECTOR('',#1331,10.);
#340=VECTOR('',#1332,10.);
#341=VECTOR('',#1339,10.);
#342=VECTOR('',#1342,10.);
#343=VECTOR('',#1343,10.);
#344=VECTOR('',#1344,10.);
#345=VECTOR('',#1353,10.);
#346=VECTOR('',#1354,10.);
#347=VECTOR('',#1355,10.);
#348=VECTOR('',#1356,10.);
#349=VECTOR('',#1359,10.);
#350=VECTOR('',#1360,10.);
#351=VECTOR('',#1361,10.);
#352=VECTOR('',#1362,10.);
#353=VECTOR('',#1365,10.);
#354=VECTOR('',#1368,10.);
#355=VECTOR('',#1371,10.);
#356=VECTOR('',#1374,10.);
#357=VECTOR('',#1377,10.);
#358=VECTOR('',#1380,10.);
#359=VECTOR('',#1383,10.);
#360=VECTOR('',#1386,10.);
#361=VECTOR('',#1389,10.);
#362=VECTOR('',#1392,10.);
#363=VECTOR('',#1395,10.);
#364=VECTOR('',#1396,10.);
#365=VECTOR('',#1397,10.);
#366=VECTOR('',#1400,10.);
#367=VECTOR('',#1401,10.);
#368=VECTOR('',#1402,10.);
#369=VECTOR('',#1407,19.5);
#370=VECTOR('',#1410,10.);
#371=VECTOR('',#1413,10.);
#372=VECTOR('',#1416,10.);
#373=VECTOR('',#1419,10.);
#374=VECTOR('',#1424,16.);
#375=VECTOR('',#1431,10.);
#376=VECTOR('',#1432,10.);
#377=VECTOR('',#1433,10.);
#378=VECTOR('',#1436,10.);
#379=VECTOR('',#1437,10.);
#380=VECTOR('',#1440,10.);
#381=VECTOR('',#1441,10.);
#382=VECTOR('',#1442,10.);
#383=VECTOR('',#1443,10.);
#384=VECTOR('',#1444,10.);
#385=VECTOR('',#1445,10.);
#386=VECTOR('',#1446,10.);
#387=VECTOR('',#1447,10.);
#388=VECTOR('',#1448,10.);
#389=VECTOR('',#1451,10.);
#390=VECTOR('',#1454,10.);
#391=VECTOR('',#1457,10.);
#392=VECTOR('',#1460,10.);
#393=VECTOR('',#1463,10.);
#394=VECTOR('',#1466,10.);
#395=VECTOR('',#1469,10.);
#396=VECTOR('',#1472,10.);
#397=VECTOR('',#1475,10.);
#398=VECTOR('',#1478,10.);
#399=VECTOR('',#1481,10.);
#400=VECTOR('',#1482,10.);
#401=VECTOR('',#1485,10.);
#402=VECTOR('',#1486,10.);
#403=VECTOR('',#1489,10.);
#404=VECTOR('',#1490,10.);
#405=VECTOR('',#1493,10.);
#406=VECTOR('',#1496,10.);
#407=VECTOR('',#1499,10.);
#408=VECTOR('',#1500,10.);
#409=VECTOR('',#1503,10.);
#410=VECTOR('',#1504,10.);
#411=VECTOR('',#1507,10.);
#412=VECTOR('',#1510,10.);
#413=VECTOR('',#1515,10.);
#414=VECTOR('',#1516,10.);
#415=VECTOR('',#1519,10.);
#416=VECTOR('',#1522,10.);
#417=VECTOR('',#1527,10.);
#418=VECTOR('',#1528,10.);
#419=VECTOR('',#1531,10.);
#420=VECTOR('',#1534,10.);
#421=VECTOR('',#1539,10.);
#422=VECTOR('',#1540,10.);
#423=VECTOR('',#1543,10.);
#424=VECTOR('',#1546,10.);
#425=VECTOR('',#1551,10.);
#426=VECTOR('',#1552,10.);
#427=VECTOR('',#1555,10.);
#428=VECTOR('',#1558,10.);
#429=VECTOR('',#1563,10.);
#430=VECTOR('',#1566,10.);
#431=VECTOR('',#1571,10.);
#432=VECTOR('',#1574,10.);
#433=VECTOR('',#1577,10.);
#434=VECTOR('',#1578,10.);
#435=VECTOR('',#1579,10.);
#436=VECTOR('',#1584,10.);
#437=VECTOR('',#1589,10.);
#438=VECTOR('',#1590,10.);
#439=VECTOR('',#1595,10.);
#440=VECTOR('',#1598,10.);
#441=VECTOR('',#1601,10.);
#442=VECTOR('',#1602,10.);
#443=VECTOR('',#1603,10.);
#444=VECTOR('',#1608,10.);
#445=VECTOR('',#1613,10.);
#446=VECTOR('',#1614,10.);
#447=VECTOR('',#1617,10.);
#448=VECTOR('',#1618,10.);
#449=VECTOR('',#1619,10.);
#450=VECTOR('',#1622,10.);
#451=VECTOR('',#1623,10.);
#452=VECTOR('',#1624,10.);
#453=VECTOR('',#1627,10.);
#454=VECTOR('',#1628,10.);
#455=CIRCLE('',#1203,13.);
#456=CIRCLE('',#1204,13.);
#457=CIRCLE('',#1206,16.);
#458=CIRCLE('',#1208,16.);
#459=CIRCLE('',#1210,16.);
#460=CIRCLE('',#1213,6.75);
#461=CIRCLE('',#1214,6.75);
#462=CIRCLE('',#1217,6.75);
#463=CIRCLE('',#1218,6.75);
#464=CIRCLE('',#1221,12.);
#465=CIRCLE('',#1222,12.);
#466=CIRCLE('',#1223,2.2);
#467=CIRCLE('',#1224,2.2);
#468=CIRCLE('',#1225,2.2);
#469=CIRCLE('',#1226,2.2);
#470=CIRCLE('',#1227,2.2);
#471=CIRCLE('',#1228,2.2);
#472=CIRCLE('',#1229,2.2);
#473=CIRCLE('',#1230,2.2);
#474=CIRCLE('',#1234,19.5);
#475=CIRCLE('',#1235,19.5);
#476=CIRCLE('',#1236,19.5);
#477=CIRCLE('',#1237,19.5);
#478=CIRCLE('',#1238,19.5);
#479=CIRCLE('',#1239,19.5);
#480=CIRCLE('',#1241,16.);
#481=CIRCLE('',#1246,12.);
#482=CIRCLE('',#1247,12.);
#483=CIRCLE('',#1248,2.2);
#484=CIRCLE('',#1249,2.2);
#485=CIRCLE('',#1250,2.2);
#486=CIRCLE('',#1251,2.2);
#487=CIRCLE('',#1252,2.2);
#488=CIRCLE('',#1253,2.2);
#489=CIRCLE('',#1254,2.2);
#490=CIRCLE('',#1255,2.2);
#491=CIRCLE('',#1285,2.);
#492=CIRCLE('',#1286,2.);
#493=CIRCLE('',#1289,2.00000000000001);
#494=CIRCLE('',#1290,2.00000000000001);
#495=CIRCLE('',#1293,2.0000000000001);
#496=CIRCLE('',#1294,2.0000000000001);
#497=CIRCLE('',#1297,2.);
#498=CIRCLE('',#1298,2.);
#499=VERTEX_POINT('',#1635);
#500=VERTEX_POINT('',#1637);
#501=VERTEX_POINT('',#1641);
#502=VERTEX_POINT('',#1644);
#503=VERTEX_POINT('',#1647);
#504=VERTEX_POINT('',#1651);
#505=VERTEX_POINT('',#1652);
#506=VERTEX_POINT('',#1654);
#507=VERTEX_POINT('',#1656);
#508=VERTEX_POINT('',#1660);
#509=VERTEX_POINT('',#1662);
#510=VERTEX_POINT('',#1666);
#511=VERTEX_POINT('',#1668);
#512=VERTEX_POINT('',#1675);
#513=VERTEX_POINT('',#1676);
#514=VERTEX_POINT('',#1678);
#515=VERTEX_POINT('',#1680);
#516=VERTEX_POINT('',#1684);
#517=VERTEX_POINT('',#1685);
#518=VERTEX_POINT('',#1687);
#519=VERTEX_POINT('',#1689);
#520=VERTEX_POINT('',#1692);
#521=VERTEX_POINT('',#1693);
#522=VERTEX_POINT('',#1695);
#523=VERTEX_POINT('',#1697);
#524=VERTEX_POINT('',#1700);
#525=VERTEX_POINT('',#1701);
#526=VERTEX_POINT('',#1703);
#527=VERTEX_POINT('',#1705);
#528=VERTEX_POINT('',#1708);
#529=VERTEX_POINT('',#1709);
#530=VERTEX_POINT('',#1711);
#531=VERTEX_POINT('',#1713);
#532=VERTEX_POINT('',#1716);
#533=VERTEX_POINT('',#1717);
#534=VERTEX_POINT('',#1719);
#535=VERTEX_POINT('',#1721);
#536=VERTEX_POINT('',#1724);
#537=VERTEX_POINT('',#1725);
#538=VERTEX_POINT('',#1727);
#539=VERTEX_POINT('',#1729);
#540=VERTEX_POINT('',#1733);
#541=VERTEX_POINT('',#1735);
#542=VERTEX_POINT('',#1740);
#543=VERTEX_POINT('',#1744);
#544=VERTEX_POINT('',#1746);
#545=VERTEX_POINT('',#1748);
#546=VERTEX_POINT('',#1750);
#547=VERTEX_POINT('',#1752);
#548=VERTEX_POINT('',#1754);
#549=VERTEX_POINT('',#1756);
#550=VERTEX_POINT('',#1758);
#551=VERTEX_POINT('',#1760);
#552=VERTEX_POINT('',#1762);
#553=VERTEX_POINT('',#1766);
#554=VERTEX_POINT('',#1771);
#555=VERTEX_POINT('',#1773);
#556=VERTEX_POINT('',#1777);
#557=VERTEX_POINT('',#1781);
#558=VERTEX_POINT('',#1783);
#559=VERTEX_POINT('',#1785);
#560=VERTEX_POINT('',#1787);
#561=VERTEX_POINT('',#1789);
#562=VERTEX_POINT('',#1791);
#563=VERTEX_POINT('',#1793);
#564=VERTEX_POINT('',#1795);
#565=VERTEX_POINT('',#1798);
#566=VERTEX_POINT('',#1799);
#567=VERTEX_POINT('',#1801);
#568=VERTEX_POINT('',#1803);
#569=VERTEX_POINT('',#1806);
#570=VERTEX_POINT('',#1807);
#571=VERTEX_POINT('',#1809);
#572=VERTEX_POINT('',#1811);
#573=VERTEX_POINT('',#1814);
#574=VERTEX_POINT('',#1815);
#575=VERTEX_POINT('',#1817);
#576=VERTEX_POINT('',#1819);
#577=VERTEX_POINT('',#1822);
#578=VERTEX_POINT('',#1823);
#579=VERTEX_POINT('',#1825);
#580=VERTEX_POINT('',#1827);
#581=VERTEX_POINT('',#1830);
#582=VERTEX_POINT('',#1831);
#583=VERTEX_POINT('',#1833);
#584=VERTEX_POINT('',#1835);
#585=VERTEX_POINT('',#1839);
#586=VERTEX_POINT('',#1843);
#587=VERTEX_POINT('',#1847);
#588=VERTEX_POINT('',#1902);
#589=VERTEX_POINT('',#1903);
#590=VERTEX_POINT('',#1905);
#591=VERTEX_POINT('',#1907);
#592=VERTEX_POINT('',#1911);
#593=VERTEX_POINT('',#1913);
#594=VERTEX_POINT('',#1917);
#595=VERTEX_POINT('',#1919);
#596=VERTEX_POINT('',#1926);
#597=VERTEX_POINT('',#1927);
#598=VERTEX_POINT('',#1929);
#599=VERTEX_POINT('',#1931);
#600=VERTEX_POINT('',#1935);
#601=VERTEX_POINT('',#1937);
#602=VERTEX_POINT('',#1941);
#603=VERTEX_POINT('',#1943);
#604=VERTEX_POINT('',#1950);
#605=VERTEX_POINT('',#1952);
#606=VERTEX_POINT('',#1956);
#607=VERTEX_POINT('',#1958);
#608=EDGE_CURVE('',#499,#499,#455,.T.);
#609=EDGE_CURVE('',#499,#500,#215,.T.);
#610=EDGE_CURVE('',#500,#500,#456,.T.);
#611=EDGE_CURVE('',#501,#501,#457,.T.);
#612=EDGE_CURVE('',#502,#502,#458,.T.);
#613=EDGE_CURVE('',#503,#503,#459,.T.);
#614=EDGE_CURVE('',#503,#502,#216,.T.);
#615=EDGE_CURVE('',#504,#505,#217,.T.);
#616=EDGE_CURVE('',#506,#504,#218,.T.);
#617=EDGE_CURVE('',#507,#506,#219,.T.);
#618=EDGE_CURVE('',#507,#505,#220,.T.);
#619=EDGE_CURVE('',#505,#508,#460,.T.);
#620=EDGE_CURVE('',#509,#507,#461,.T.);
#621=EDGE_CURVE('',#509,#508,#221,.T.);
#622=EDGE_CURVE('',#508,#510,#222,.T.);
#623=EDGE_CURVE('',#511,#509,#223,.T.);
#624=EDGE_CURVE('',#511,#510,#224,.T.);
#625=EDGE_CURVE('',#510,#504,#462,.T.);
#626=EDGE_CURVE('',#506,#511,#463,.T.);
#627=EDGE_CURVE('',#512,#513,#225,.T.);
#628=EDGE_CURVE('',#512,#514,#226,.T.);
#629=EDGE_CURVE('',#515,#514,#227,.T.);
#630=EDGE_CURVE('',#513,#515,#228,.T.);
#631=EDGE_CURVE('',#516,#517,#229,.T.);
#632=EDGE_CURVE('',#517,#518,#230,.T.);
#633=EDGE_CURVE('',#519,#518,#231,.T.);
#634=EDGE_CURVE('',#516,#519,#232,.F.);
#635=EDGE_CURVE('',#520,#521,#464,.T.);
#636=EDGE_CURVE('',#521,#522,#233,.T.);
#637=EDGE_CURVE('',#522,#523,#465,.T.);
#638=EDGE_CURVE('',#523,#520,#234,.T.);
#639=EDGE_CURVE('',#524,#525,#466,.T.);
#640=EDGE_CURVE('',#525,#526,#235,.T.);
#641=EDGE_CURVE('',#526,#527,#467,.T.);
#642=EDGE_CURVE('',#527,#524,#236,.T.);
#643=EDGE_CURVE('',#528,#529,#468,.T.);
#644=EDGE_CURVE('',#529,#530,#237,.T.);
#645=EDGE_CURVE('',#530,#531,#469,.T.);
#646=EDGE_CURVE('',#531,#528,#238,.T.);
#647=EDGE_CURVE('',#532,#533,#470,.T.);
#648=EDGE_CURVE('',#533,#534,#239,.T.);
#649=EDGE_CURVE('',#534,#535,#471,.T.);
#650=EDGE_CURVE('',#535,#532,#240,.T.);
#651=EDGE_CURVE('',#536,#537,#472,.T.);
#652=EDGE_CURVE('',#537,#538,#241,.T.);
#653=EDGE_CURVE('',#538,#539,#473,.T.);
#654=EDGE_CURVE('',#539,#536,#242,.T.);
#655=EDGE_CURVE('',#517,#540,#243,.T.);
#656=EDGE_CURVE('',#541,#540,#244,.T.);
#657=EDGE_CURVE('',#518,#541,#245,.T.);
#658=EDGE_CURVE('',#540,#514,#246,.T.);
#659=EDGE_CURVE('',#514,#542,#247,.T.);
#660=EDGE_CURVE('',#542,#541,#248,.T.);
#661=EDGE_CURVE('',#543,#543,#474,.T.);
#662=EDGE_CURVE('',#543,#544,#249,.T.);
#663=EDGE_CURVE('',#544,#545,#475,.T.);
#664=EDGE_CURVE('',#545,#546,#250,.T.);
#665=EDGE_CURVE('',#547,#546,#476,.T.);
#666=EDGE_CURVE('',#548,#547,#251,.T.);
#667=EDGE_CURVE('',#549,#548,#477,.T.);
#668=EDGE_CURVE('',#550,#549,#252,.T.);
#669=EDGE_CURVE('',#551,#550,#478,.T.);
#670=EDGE_CURVE('',#551,#552,#253,.T.);
#671=EDGE_CURVE('',#552,#544,#479,.T.);
#672=EDGE_CURVE('',#501,#553,#254,.T.);
#673=EDGE_CURVE('',#553,#553,#480,.T.);
#674=EDGE_CURVE('',#554,#547,#255,.T.);
#675=EDGE_CURVE('',#555,#554,#256,.T.);
#676=EDGE_CURVE('',#555,#548,#257,.T.);
#677=EDGE_CURVE('',#556,#546,#258,.T.);
#678=EDGE_CURVE('',#554,#556,#259,.T.);
#679=EDGE_CURVE('',#557,#552,#260,.T.);
#680=EDGE_CURVE('',#558,#557,#261,.T.);
#681=EDGE_CURVE('',#559,#558,#262,.T.);
#682=EDGE_CURVE('',#559,#560,#263,.T.);
#683=EDGE_CURVE('',#561,#560,#264,.T.);
#684=EDGE_CURVE('',#562,#561,#265,.F.);
#685=EDGE_CURVE('',#562,#563,#266,.T.);
#686=EDGE_CURVE('',#564,#563,#267,.T.);
#687=EDGE_CURVE('',#564,#545,#268,.T.);
#688=EDGE_CURVE('',#565,#566,#481,.T.);
#689=EDGE_CURVE('',#566,#567,#269,.T.);
#690=EDGE_CURVE('',#567,#568,#482,.T.);
#691=EDGE_CURVE('',#568,#565,#270,.T.);
#692=EDGE_CURVE('',#569,#570,#483,.T.);
#693=EDGE_CURVE('',#570,#571,#271,.T.);
#694=EDGE_CURVE('',#571,#572,#484,.T.);
#695=EDGE_CURVE('',#572,#569,#272,.T.);
#696=EDGE_CURVE('',#573,#574,#485,.T.);
#697=EDGE_CURVE('',#574,#575,#273,.T.);
#698=EDGE_CURVE('',#575,#576,#486,.T.);
#699=EDGE_CURVE('',#576,#573,#274,.T.);
#700=EDGE_CURVE('',#577,#578,#487,.T.);
#701=EDGE_CURVE('',#578,#579,#275,.T.);
#702=EDGE_CURVE('',#579,#580,#488,.T.);
#703=EDGE_CURVE('',#580,#577,#276,.T.);
#704=EDGE_CURVE('',#581,#582,#489,.T.);
#705=EDGE_CURVE('',#582,#583,#277,.T.);
#706=EDGE_CURVE('',#583,#584,#490,.T.);
#707=EDGE_CURVE('',#584,#581,#278,.T.);
#708=EDGE_CURVE('',#557,#585,#279,.T.);
#709=EDGE_CURVE('',#585,#551,#280,.T.);
#710=EDGE_CURVE('',#586,#550,#281,.T.);
#711=EDGE_CURVE('',#585,#586,#282,.T.);
#712=EDGE_CURVE('',#587,#549,#283,.T.);
#713=EDGE_CURVE('',#586,#587,#284,.T.);
#714=EDGE_CURVE('',#587,#555,#285,.T.);
#715=EDGE_CURVE('',#556,#564,#286,.T.);
#716=EDGE_CURVE('',#558,#512,#287,.T.);
#717=EDGE_CURVE('',#563,#542,#288,.T.);
#718=EDGE_CURVE('',#584,#538,#289,.T.);
#719=EDGE_CURVE('',#583,#539,#290,.T.);
#720=EDGE_CURVE('',#582,#536,#291,.T.);
#721=EDGE_CURVE('',#581,#537,#292,.T.);
#722=EDGE_CURVE('',#580,#534,#293,.T.);
#723=EDGE_CURVE('',#579,#535,#294,.T.);
#724=EDGE_CURVE('',#578,#532,#295,.T.);
#725=EDGE_CURVE('',#577,#533,#296,.T.);
#726=EDGE_CURVE('',#576,#530,#297,.T.);
#727=EDGE_CURVE('',#575,#531,#298,.T.);
#728=EDGE_CURVE('',#574,#528,#299,.T.);
#729=EDGE_CURVE('',#573,#529,#300,.T.);
#730=EDGE_CURVE('',#572,#526,#301,.T.);
#731=EDGE_CURVE('',#571,#527,#302,.T.);
#732=EDGE_CURVE('',#570,#524,#303,.T.);
#733=EDGE_CURVE('',#569,#525,#304,.T.);
#734=EDGE_CURVE('',#568,#522,#305,.T.);
#735=EDGE_CURVE('',#567,#523,#306,.T.);
#736=EDGE_CURVE('',#566,#520,#307,.T.);
#737=EDGE_CURVE('',#565,#521,#308,.T.);
#738=EDGE_CURVE('',#519,#562,#309,.T.);
#739=EDGE_CURVE('',#516,#561,#310,.F.);
#740=EDGE_CURVE('',#588,#589,#491,.T.);
#741=EDGE_CURVE('',#588,#590,#311,.T.);
#742=EDGE_CURVE('',#591,#590,#492,.T.);
#743=EDGE_CURVE('',#589,#591,#312,.T.);
#744=EDGE_CURVE('',#592,#588,#313,.T.);
#745=EDGE_CURVE('',#592,#593,#314,.T.);
#746=EDGE_CURVE('',#590,#593,#315,.T.);
#747=EDGE_CURVE('',#594,#592,#493,.T.);
#748=EDGE_CURVE('',#594,#595,#316,.T.);
#749=EDGE_CURVE('',#593,#595,#494,.T.);
#750=EDGE_CURVE('',#589,#594,#317,.T.);
#751=EDGE_CURVE('',#595,#591,#318,.T.);
#752=EDGE_CURVE('',#596,#597,#495,.T.);
#753=EDGE_CURVE('',#596,#598,#319,.T.);
#754=EDGE_CURVE('',#599,#598,#496,.T.);
#755=EDGE_CURVE('',#597,#599,#320,.T.);
#756=EDGE_CURVE('',#600,#596,#321,.T.);
#757=EDGE_CURVE('',#600,#601,#322,.T.);
#758=EDGE_CURVE('',#598,#601,#323,.T.);
#759=EDGE_CURVE('',#602,#600,#497,.T.);
#760=EDGE_CURVE('',#602,#603,#324,.T.);
#761=EDGE_CURVE('',#601,#603,#498,.T.);
#762=EDGE_CURVE('',#597,#602,#325,.T.);
#763=EDGE_CURVE('',#603,#599,#326,.T.);
#764=EDGE_CURVE('',#559,#604,#327,.T.);
#765=EDGE_CURVE('',#604,#605,#328,.T.);
#766=EDGE_CURVE('',#560,#605,#329,.T.);
#767=EDGE_CURVE('',#606,#515,#330,.T.);
#768=EDGE_CURVE('',#607,#606,#331,.T.);
#769=EDGE_CURVE('',#607,#513,#332,.T.);
#770=EDGE_CURVE('',#604,#607,#333,.T.);
#771=EDGE_CURVE('',#605,#606,#334,.T.);
#772=ORIENTED_EDGE('',*,*,#608,.F.);
#773=ORIENTED_EDGE('',*,*,#609,.T.);
#774=ORIENTED_EDGE('',*,*,#610,.F.);
#775=ORIENTED_EDGE('',*,*,#609,.F.);
#776=ORIENTED_EDGE('',*,*,#611,.F.);
#777=ORIENTED_EDGE('',*,*,#608,.T.);
#778=ORIENTED_EDGE('',*,*,#612,.F.);
#779=ORIENTED_EDGE('',*,*,#610,.T.);
#780=ORIENTED_EDGE('',*,*,#613,.F.);
#781=ORIENTED_EDGE('',*,*,#614,.T.);
#782=ORIENTED_EDGE('',*,*,#612,.T.);
#783=ORIENTED_EDGE('',*,*,#614,.F.);
#784=ORIENTED_EDGE('',*,*,#615,.F.);
#785=ORIENTED_EDGE('',*,*,#616,.F.);
#786=ORIENTED_EDGE('',*,*,#617,.F.);
#787=ORIENTED_EDGE('',*,*,#618,.T.);
#788=ORIENTED_EDGE('',*,*,#619,.F.);
#789=ORIENTED_EDGE('',*,*,#618,.F.);
#790=ORIENTED_EDGE('',*,*,#620,.F.);
#791=ORIENTED_EDGE('',*,*,#621,.T.);
#792=ORIENTED_EDGE('',*,*,#622,.F.);
#793=ORIENTED_EDGE('',*,*,#621,.F.);
#794=ORIENTED_EDGE('',*,*,#623,.F.);
#795=ORIENTED_EDGE('',*,*,#624,.T.);
#796=ORIENTED_EDGE('',*,*,#625,.F.);
#797=ORIENTED_EDGE('',*,*,#624,.F.);
#798=ORIENTED_EDGE('',*,*,#626,.F.);
#799=ORIENTED_EDGE('',*,*,#616,.T.);
#800=ORIENTED_EDGE('',*,*,#627,.F.);
#801=ORIENTED_EDGE('',*,*,#628,.T.);
#802=ORIENTED_EDGE('',*,*,#629,.F.);
#803=ORIENTED_EDGE('',*,*,#630,.F.);
#804=ORIENTED_EDGE('',*,*,#631,.T.);
#805=ORIENTED_EDGE('',*,*,#632,.T.);
#806=ORIENTED_EDGE('',*,*,#633,.F.);
#807=ORIENTED_EDGE('',*,*,#634,.F.);
#808=ORIENTED_EDGE('',*,*,#635,.T.);
#809=ORIENTED_EDGE('',*,*,#636,.T.);
#810=ORIENTED_EDGE('',*,*,#637,.T.);
#811=ORIENTED_EDGE('',*,*,#638,.T.);
#812=ORIENTED_EDGE('',*,*,#639,.T.);
#813=ORIENTED_EDGE('',*,*,#640,.T.);
#814=ORIENTED_EDGE('',*,*,#641,.T.);
#815=ORIENTED_EDGE('',*,*,#642,.T.);
#816=ORIENTED_EDGE('',*,*,#643,.T.);
#817=ORIENTED_EDGE('',*,*,#644,.T.);
#818=ORIENTED_EDGE('',*,*,#645,.T.);
#819=ORIENTED_EDGE('',*,*,#646,.T.);
#820=ORIENTED_EDGE('',*,*,#647,.T.);
#821=ORIENTED_EDGE('',*,*,#648,.T.);
#822=ORIENTED_EDGE('',*,*,#649,.T.);
#823=ORIENTED_EDGE('',*,*,#650,.T.);
#824=ORIENTED_EDGE('',*,*,#651,.T.);
#825=ORIENTED_EDGE('',*,*,#652,.T.);
#826=ORIENTED_EDGE('',*,*,#653,.T.);
#827=ORIENTED_EDGE('',*,*,#654,.T.);
#828=ORIENTED_EDGE('',*,*,#655,.T.);
#829=ORIENTED_EDGE('',*,*,#656,.F.);
#830=ORIENTED_EDGE('',*,*,#657,.F.);
#831=ORIENTED_EDGE('',*,*,#632,.F.);
#832=ORIENTED_EDGE('',*,*,#658,.T.);
#833=ORIENTED_EDGE('',*,*,#659,.T.);
#834=ORIENTED_EDGE('',*,*,#660,.T.);
#835=ORIENTED_EDGE('',*,*,#656,.T.);
#836=ORIENTED_EDGE('',*,*,#661,.F.);
#837=ORIENTED_EDGE('',*,*,#662,.T.);
#838=ORIENTED_EDGE('',*,*,#663,.T.);
#839=ORIENTED_EDGE('',*,*,#664,.T.);
#840=ORIENTED_EDGE('',*,*,#665,.F.);
#841=ORIENTED_EDGE('',*,*,#666,.F.);
#842=ORIENTED_EDGE('',*,*,#667,.F.);
#843=ORIENTED_EDGE('',*,*,#668,.F.);
#844=ORIENTED_EDGE('',*,*,#669,.F.);
#845=ORIENTED_EDGE('',*,*,#670,.T.);
#846=ORIENTED_EDGE('',*,*,#671,.T.);
#847=ORIENTED_EDGE('',*,*,#662,.F.);
#848=ORIENTED_EDGE('',*,*,#611,.T.);
#849=ORIENTED_EDGE('',*,*,#672,.T.);
#850=ORIENTED_EDGE('',*,*,#673,.F.);
#851=ORIENTED_EDGE('',*,*,#672,.F.);
#852=ORIENTED_EDGE('',*,*,#661,.T.);
#853=ORIENTED_EDGE('',*,*,#673,.T.);
#854=ORIENTED_EDGE('',*,*,#666,.T.);
#855=ORIENTED_EDGE('',*,*,#674,.F.);
#856=ORIENTED_EDGE('',*,*,#675,.F.);
#857=ORIENTED_EDGE('',*,*,#676,.T.);
#858=ORIENTED_EDGE('',*,*,#665,.T.);
#859=ORIENTED_EDGE('',*,*,#677,.F.);
#860=ORIENTED_EDGE('',*,*,#678,.F.);
#861=ORIENTED_EDGE('',*,*,#674,.T.);
#862=ORIENTED_EDGE('',*,*,#679,.F.);
#863=ORIENTED_EDGE('',*,*,#680,.F.);
#864=ORIENTED_EDGE('',*,*,#681,.F.);
#865=ORIENTED_EDGE('',*,*,#682,.T.);
#866=ORIENTED_EDGE('',*,*,#683,.F.);
#867=ORIENTED_EDGE('',*,*,#684,.F.);
#868=ORIENTED_EDGE('',*,*,#685,.T.);
#869=ORIENTED_EDGE('',*,*,#686,.F.);
#870=ORIENTED_EDGE('',*,*,#687,.T.);
#871=ORIENTED_EDGE('',*,*,#663,.F.);
#872=ORIENTED_EDGE('',*,*,#671,.F.);
#873=ORIENTED_EDGE('',*,*,#613,.T.);
#874=ORIENTED_EDGE('',*,*,#688,.T.);
#875=ORIENTED_EDGE('',*,*,#689,.T.);
#876=ORIENTED_EDGE('',*,*,#690,.T.);
#877=ORIENTED_EDGE('',*,*,#691,.T.);
#878=ORIENTED_EDGE('',*,*,#692,.T.);
#879=ORIENTED_EDGE('',*,*,#693,.T.);
#880=ORIENTED_EDGE('',*,*,#694,.T.);
#881=ORIENTED_EDGE('',*,*,#695,.T.);
#882=ORIENTED_EDGE('',*,*,#696,.T.);
#883=ORIENTED_EDGE('',*,*,#697,.T.);
#884=ORIENTED_EDGE('',*,*,#698,.T.);
#885=ORIENTED_EDGE('',*,*,#699,.T.);
#886=ORIENTED_EDGE('',*,*,#700,.T.);
#887=ORIENTED_EDGE('',*,*,#701,.T.);
#888=ORIENTED_EDGE('',*,*,#702,.T.);
#889=ORIENTED_EDGE('',*,*,#703,.T.);
#890=ORIENTED_EDGE('',*,*,#704,.T.);
#891=ORIENTED_EDGE('',*,*,#705,.T.);
#892=ORIENTED_EDGE('',*,*,#706,.T.);
#893=ORIENTED_EDGE('',*,*,#707,.T.);
#894=ORIENTED_EDGE('',*,*,#708,.F.);
#895=ORIENTED_EDGE('',*,*,#679,.T.);
#896=ORIENTED_EDGE('',*,*,#670,.F.);
#897=ORIENTED_EDGE('',*,*,#709,.F.);
#898=ORIENTED_EDGE('',*,*,#669,.T.);
#899=ORIENTED_EDGE('',*,*,#710,.F.);
#900=ORIENTED_EDGE('',*,*,#711,.F.);
#901=ORIENTED_EDGE('',*,*,#709,.T.);
#902=ORIENTED_EDGE('',*,*,#668,.T.);
#903=ORIENTED_EDGE('',*,*,#712,.F.);
#904=ORIENTED_EDGE('',*,*,#713,.F.);
#905=ORIENTED_EDGE('',*,*,#710,.T.);
#906=ORIENTED_EDGE('',*,*,#667,.T.);
#907=ORIENTED_EDGE('',*,*,#676,.F.);
#908=ORIENTED_EDGE('',*,*,#714,.F.);
#909=ORIENTED_EDGE('',*,*,#712,.T.);
#910=ORIENTED_EDGE('',*,*,#715,.F.);
#911=ORIENTED_EDGE('',*,*,#677,.T.);
#912=ORIENTED_EDGE('',*,*,#664,.F.);
#913=ORIENTED_EDGE('',*,*,#687,.F.);
#914=ORIENTED_EDGE('',*,*,#716,.F.);
#915=ORIENTED_EDGE('',*,*,#680,.T.);
#916=ORIENTED_EDGE('',*,*,#708,.T.);
#917=ORIENTED_EDGE('',*,*,#711,.T.);
#918=ORIENTED_EDGE('',*,*,#713,.T.);
#919=ORIENTED_EDGE('',*,*,#714,.T.);
#920=ORIENTED_EDGE('',*,*,#675,.T.);
#921=ORIENTED_EDGE('',*,*,#678,.T.);
#922=ORIENTED_EDGE('',*,*,#715,.T.);
#923=ORIENTED_EDGE('',*,*,#686,.T.);
#924=ORIENTED_EDGE('',*,*,#717,.T.);
#925=ORIENTED_EDGE('',*,*,#659,.F.);
#926=ORIENTED_EDGE('',*,*,#628,.F.);
#927=ORIENTED_EDGE('',*,*,#653,.F.);
#928=ORIENTED_EDGE('',*,*,#718,.F.);
#929=ORIENTED_EDGE('',*,*,#706,.F.);
#930=ORIENTED_EDGE('',*,*,#719,.T.);
#931=ORIENTED_EDGE('',*,*,#654,.F.);
#932=ORIENTED_EDGE('',*,*,#719,.F.);
#933=ORIENTED_EDGE('',*,*,#705,.F.);
#934=ORIENTED_EDGE('',*,*,#720,.T.);
#935=ORIENTED_EDGE('',*,*,#651,.F.);
#936=ORIENTED_EDGE('',*,*,#720,.F.);
#937=ORIENTED_EDGE('',*,*,#704,.F.);
#938=ORIENTED_EDGE('',*,*,#721,.T.);
#939=ORIENTED_EDGE('',*,*,#652,.F.);
#940=ORIENTED_EDGE('',*,*,#721,.F.);
#941=ORIENTED_EDGE('',*,*,#707,.F.);
#942=ORIENTED_EDGE('',*,*,#718,.T.);
#943=ORIENTED_EDGE('',*,*,#649,.F.);
#944=ORIENTED_EDGE('',*,*,#722,.F.);
#945=ORIENTED_EDGE('',*,*,#702,.F.);
#946=ORIENTED_EDGE('',*,*,#723,.T.);
#947=ORIENTED_EDGE('',*,*,#650,.F.);
#948=ORIENTED_EDGE('',*,*,#723,.F.);
#949=ORIENTED_EDGE('',*,*,#701,.F.);
#950=ORIENTED_EDGE('',*,*,#724,.T.);
#951=ORIENTED_EDGE('',*,*,#647,.F.);
#952=ORIENTED_EDGE('',*,*,#724,.F.);
#953=ORIENTED_EDGE('',*,*,#700,.F.);
#954=ORIENTED_EDGE('',*,*,#725,.T.);
#955=ORIENTED_EDGE('',*,*,#648,.F.);
#956=ORIENTED_EDGE('',*,*,#725,.F.);
#957=ORIENTED_EDGE('',*,*,#703,.F.);
#958=ORIENTED_EDGE('',*,*,#722,.T.);
#959=ORIENTED_EDGE('',*,*,#645,.F.);
#960=ORIENTED_EDGE('',*,*,#726,.F.);
#961=ORIENTED_EDGE('',*,*,#698,.F.);
#962=ORIENTED_EDGE('',*,*,#727,.T.);
#963=ORIENTED_EDGE('',*,*,#646,.F.);
#964=ORIENTED_EDGE('',*,*,#727,.F.);
#965=ORIENTED_EDGE('',*,*,#697,.F.);
#966=ORIENTED_EDGE('',*,*,#728,.T.);
#967=ORIENTED_EDGE('',*,*,#643,.F.);
#968=ORIENTED_EDGE('',*,*,#728,.F.);
#969=ORIENTED_EDGE('',*,*,#696,.F.);
#970=ORIENTED_EDGE('',*,*,#729,.T.);
#971=ORIENTED_EDGE('',*,*,#644,.F.);
#972=ORIENTED_EDGE('',*,*,#729,.F.);
#973=ORIENTED_EDGE('',*,*,#699,.F.);
#974=ORIENTED_EDGE('',*,*,#726,.T.);
#975=ORIENTED_EDGE('',*,*,#641,.F.);
#976=ORIENTED_EDGE('',*,*,#730,.F.);
#977=ORIENTED_EDGE('',*,*,#694,.F.);
#978=ORIENTED_EDGE('',*,*,#731,.T.);
#979=ORIENTED_EDGE('',*,*,#642,.F.);
#980=ORIENTED_EDGE('',*,*,#731,.F.);
#981=ORIENTED_EDGE('',*,*,#693,.F.);
#982=ORIENTED_EDGE('',*,*,#732,.T.);
#983=ORIENTED_EDGE('',*,*,#639,.F.);
#984=ORIENTED_EDGE('',*,*,#732,.F.);
#985=ORIENTED_EDGE('',*,*,#692,.F.);
#986=ORIENTED_EDGE('',*,*,#733,.T.);
#987=ORIENTED_EDGE('',*,*,#640,.F.);
#988=ORIENTED_EDGE('',*,*,#733,.F.);
#989=ORIENTED_EDGE('',*,*,#695,.F.);
#990=ORIENTED_EDGE('',*,*,#730,.T.);
#991=ORIENTED_EDGE('',*,*,#637,.F.);
#992=ORIENTED_EDGE('',*,*,#734,.F.);
#993=ORIENTED_EDGE('',*,*,#690,.F.);
#994=ORIENTED_EDGE('',*,*,#735,.T.);
#995=ORIENTED_EDGE('',*,*,#638,.F.);
#996=ORIENTED_EDGE('',*,*,#735,.F.);
#997=ORIENTED_EDGE('',*,*,#689,.F.);
#998=ORIENTED_EDGE('',*,*,#736,.T.);
#999=ORIENTED_EDGE('',*,*,#635,.F.);
#1000=ORIENTED_EDGE('',*,*,#736,.F.);
#1001=ORIENTED_EDGE('',*,*,#688,.F.);
#1002=ORIENTED_EDGE('',*,*,#737,.T.);
#1003=ORIENTED_EDGE('',*,*,#636,.F.);
#1004=ORIENTED_EDGE('',*,*,#737,.F.);
#1005=ORIENTED_EDGE('',*,*,#691,.F.);
#1006=ORIENTED_EDGE('',*,*,#734,.T.);
#1007=ORIENTED_EDGE('',*,*,#738,.F.);
#1008=ORIENTED_EDGE('',*,*,#633,.T.);
#1009=ORIENTED_EDGE('',*,*,#657,.T.);
#1010=ORIENTED_EDGE('',*,*,#660,.F.);
#1011=ORIENTED_EDGE('',*,*,#717,.F.);
#1012=ORIENTED_EDGE('',*,*,#685,.F.);
#1013=ORIENTED_EDGE('',*,*,#739,.F.);
#1014=ORIENTED_EDGE('',*,*,#634,.T.);
#1015=ORIENTED_EDGE('',*,*,#738,.T.);
#1016=ORIENTED_EDGE('',*,*,#684,.T.);
#1017=ORIENTED_EDGE('',*,*,#740,.F.);
#1018=ORIENTED_EDGE('',*,*,#741,.T.);
#1019=ORIENTED_EDGE('',*,*,#742,.F.);
#1020=ORIENTED_EDGE('',*,*,#743,.F.);
#1021=ORIENTED_EDGE('',*,*,#744,.F.);
#1022=ORIENTED_EDGE('',*,*,#745,.T.);
#1023=ORIENTED_EDGE('',*,*,#746,.F.);
#1024=ORIENTED_EDGE('',*,*,#741,.F.);
#1025=ORIENTED_EDGE('',*,*,#747,.F.);
#1026=ORIENTED_EDGE('',*,*,#748,.T.);
#1027=ORIENTED_EDGE('',*,*,#749,.F.);
#1028=ORIENTED_EDGE('',*,*,#745,.F.);
#1029=ORIENTED_EDGE('',*,*,#750,.F.);
#1030=ORIENTED_EDGE('',*,*,#743,.T.);
#1031=ORIENTED_EDGE('',*,*,#751,.F.);
#1032=ORIENTED_EDGE('',*,*,#748,.F.);
#1033=ORIENTED_EDGE('',*,*,#752,.F.);
#1034=ORIENTED_EDGE('',*,*,#753,.T.);
#1035=ORIENTED_EDGE('',*,*,#754,.F.);
#1036=ORIENTED_EDGE('',*,*,#755,.F.);
#1037=ORIENTED_EDGE('',*,*,#756,.F.);
#1038=ORIENTED_EDGE('',*,*,#757,.T.);
#1039=ORIENTED_EDGE('',*,*,#758,.F.);
#1040=ORIENTED_EDGE('',*,*,#753,.F.);
#1041=ORIENTED_EDGE('',*,*,#759,.F.);
#1042=ORIENTED_EDGE('',*,*,#760,.T.);
#1043=ORIENTED_EDGE('',*,*,#761,.F.);
#1044=ORIENTED_EDGE('',*,*,#757,.F.);
#1045=ORIENTED_EDGE('',*,*,#762,.F.);
#1046=ORIENTED_EDGE('',*,*,#755,.T.);
#1047=ORIENTED_EDGE('',*,*,#763,.F.);
#1048=ORIENTED_EDGE('',*,*,#760,.F.);
#1049=ORIENTED_EDGE('',*,*,#764,.T.);
#1050=ORIENTED_EDGE('',*,*,#765,.T.);
#1051=ORIENTED_EDGE('',*,*,#766,.F.);
#1052=ORIENTED_EDGE('',*,*,#682,.F.);
#1053=ORIENTED_EDGE('',*,*,#630,.T.);
#1054=ORIENTED_EDGE('',*,*,#767,.F.);
#1055=ORIENTED_EDGE('',*,*,#768,.F.);
#1056=ORIENTED_EDGE('',*,*,#769,.T.);
#1057=ORIENTED_EDGE('',*,*,#770,.T.);
#1058=ORIENTED_EDGE('',*,*,#768,.T.);
#1059=ORIENTED_EDGE('',*,*,#771,.F.);
#1060=ORIENTED_EDGE('',*,*,#765,.F.);
#1061=ORIENTED_EDGE('',*,*,#771,.T.);
#1062=ORIENTED_EDGE('',*,*,#767,.T.);
#1063=ORIENTED_EDGE('',*,*,#629,.T.);
#1064=ORIENTED_EDGE('',*,*,#658,.F.);
#1065=ORIENTED_EDGE('',*,*,#655,.F.);
#1066=ORIENTED_EDGE('',*,*,#631,.F.);
#1067=ORIENTED_EDGE('',*,*,#739,.T.);
#1068=ORIENTED_EDGE('',*,*,#683,.T.);
#1069=ORIENTED_EDGE('',*,*,#766,.T.);
#1070=ORIENTED_EDGE('',*,*,#622,.T.);
#1071=ORIENTED_EDGE('',*,*,#625,.T.);
#1072=ORIENTED_EDGE('',*,*,#615,.T.);
#1073=ORIENTED_EDGE('',*,*,#619,.T.);
#1074=ORIENTED_EDGE('',*,*,#742,.T.);
#1075=ORIENTED_EDGE('',*,*,#746,.T.);
#1076=ORIENTED_EDGE('',*,*,#749,.T.);
#1077=ORIENTED_EDGE('',*,*,#751,.T.);
#1078=ORIENTED_EDGE('',*,*,#754,.T.);
#1079=ORIENTED_EDGE('',*,*,#758,.T.);
#1080=ORIENTED_EDGE('',*,*,#761,.T.);
#1081=ORIENTED_EDGE('',*,*,#763,.T.);
#1082=ORIENTED_EDGE('',*,*,#769,.F.);
#1083=ORIENTED_EDGE('',*,*,#770,.F.);
#1084=ORIENTED_EDGE('',*,*,#764,.F.);
#1085=ORIENTED_EDGE('',*,*,#681,.T.);
#1086=ORIENTED_EDGE('',*,*,#716,.T.);
#1087=ORIENTED_EDGE('',*,*,#627,.T.);
#1088=ORIENTED_EDGE('',*,*,#623,.T.);
#1089=ORIENTED_EDGE('',*,*,#620,.T.);
#1090=ORIENTED_EDGE('',*,*,#617,.T.);
#1091=ORIENTED_EDGE('',*,*,#626,.T.);
#1092=ORIENTED_EDGE('',*,*,#740,.T.);
#1093=ORIENTED_EDGE('',*,*,#750,.T.);
#1094=ORIENTED_EDGE('',*,*,#747,.T.);
#1095=ORIENTED_EDGE('',*,*,#744,.T.);
#1096=ORIENTED_EDGE('',*,*,#752,.T.);
#1097=ORIENTED_EDGE('',*,*,#762,.T.);
#1098=ORIENTED_EDGE('',*,*,#759,.T.);
#1099=ORIENTED_EDGE('',*,*,#756,.T.);
#1100=CYLINDRICAL_SURFACE('',#1202,13.);
#1101=CYLINDRICAL_SURFACE('',#1209,16.);
#1102=CYLINDRICAL_SURFACE('',#1212,6.75);
#1103=CYLINDRICAL_SURFACE('',#1216,6.75);
#1104=CYLINDRICAL_SURFACE('',#1233,19.5);
#1105=CYLINDRICAL_SURFACE('',#1240,16.);
#1106=CYLINDRICAL_SURFACE('',#1262,2.2);
#1107=CYLINDRICAL_SURFACE('',#1264,2.2);
#1108=CYLINDRICAL_SURFACE('',#1266,2.2);
#1109=CYLINDRICAL_SURFACE('',#1268,2.2);
#1110=CYLINDRICAL_SURFACE('',#1270,2.2);
#1111=CYLINDRICAL_SURFACE('',#1272,2.2);
#1112=CYLINDRICAL_SURFACE('',#1274,2.2);
#1113=CYLINDRICAL_SURFACE('',#1276,2.2);
#1114=CYLINDRICAL_SURFACE('',#1278,12.);
#1115=CYLINDRICAL_SURFACE('',#1280,12.);
#1116=CYLINDRICAL_SURFACE('',#1284,2.);
#1117=CYLINDRICAL_SURFACE('',#1288,2.00000000000001);
#1118=CYLINDRICAL_SURFACE('',#1292,2.0000000000001);
#1119=CYLINDRICAL_SURFACE('',#1296,2.);
#1120=ADVANCED_FACE('',(#77),#1100,.F.);
#1121=ADVANCED_FACE('',(#78,#18),#38,.F.);
#1122=ADVANCED_FACE('',(#79,#19),#39,.T.);
#1123=ADVANCED_FACE('',(#80),#1101,.F.);
#1124=ADVANCED_FACE('',(#81),#40,.F.);
#1125=ADVANCED_FACE('',(#82),#1102,.F.);
#1126=ADVANCED_FACE('',(#83),#41,.F.);
#1127=ADVANCED_FACE('',(#84),#1103,.F.);
#1128=ADVANCED_FACE('',(#85),#42,.T.);
#1129=ADVANCED_FACE('',(#86,#20,#21,#22,#23,#24),#43,.T.);
#1130=ADVANCED_FACE('',(#87),#44,.T.);
#1131=ADVANCED_FACE('',(#88),#45,.T.);
#1132=ADVANCED_FACE('',(#89),#1104,.T.);
#1133=ADVANCED_FACE('',(#90),#1105,.F.);
#1134=ADVANCED_FACE('',(#91,#25),#46,.F.);
#1135=ADVANCED_FACE('',(#92),#47,.T.);
#1136=ADVANCED_FACE('',(#93),#48,.T.);
#1137=ADVANCED_FACE('',(#94,#26,#27,#28,#29,#30,#31),#49,.T.);
#1138=ADVANCED_FACE('',(#95),#50,.T.);
#1139=ADVANCED_FACE('',(#96),#51,.T.);
#1140=ADVANCED_FACE('',(#97),#52,.T.);
#1141=ADVANCED_FACE('',(#98),#53,.T.);
#1142=ADVANCED_FACE('',(#99),#54,.T.);
#1143=ADVANCED_FACE('',(#100),#55,.T.);
#1144=ADVANCED_FACE('',(#101),#1106,.F.);
#1145=ADVANCED_FACE('',(#102),#56,.F.);
#1146=ADVANCED_FACE('',(#103),#1107,.F.);
#1147=ADVANCED_FACE('',(#104),#57,.F.);
#1148=ADVANCED_FACE('',(#105),#1108,.F.);
#1149=ADVANCED_FACE('',(#106),#58,.F.);
#1150=ADVANCED_FACE('',(#107),#1109,.F.);
#1151=ADVANCED_FACE('',(#108),#59,.F.);
#1152=ADVANCED_FACE('',(#109),#1110,.F.);
#1153=ADVANCED_FACE('',(#110),#60,.F.);
#1154=ADVANCED_FACE('',(#111),#1111,.F.);
#1155=ADVANCED_FACE('',(#112),#61,.F.);
#1156=ADVANCED_FACE('',(#113),#1112,.F.);
#1157=ADVANCED_FACE('',(#114),#62,.F.);
#1158=ADVANCED_FACE('',(#115),#1113,.F.);
#1159=ADVANCED_FACE('',(#116),#63,.F.);
#1160=ADVANCED_FACE('',(#117),#1114,.F.);
#1161=ADVANCED_FACE('',(#118),#64,.F.);
#1162=ADVANCED_FACE('',(#119),#1115,.F.);
#1163=ADVANCED_FACE('',(#120),#65,.F.);
#1164=ADVANCED_FACE('',(#121),#66,.T.);
#1165=ADVANCED_FACE('',(#122),#67,.F.);
#1166=ADVANCED_FACE('',(#123),#1116,.F.);
#1167=ADVANCED_FACE('',(#124),#68,.F.);
#1168=ADVANCED_FACE('',(#125),#1117,.F.);
#1169=ADVANCED_FACE('',(#126),#69,.F.);
#1170=ADVANCED_FACE('',(#127),#1118,.F.);
#1171=ADVANCED_FACE('',(#128),#70,.F.);
#1172=ADVANCED_FACE('',(#129),#1119,.F.);
#1173=ADVANCED_FACE('',(#130),#71,.F.);
#1174=ADVANCED_FACE('',(#131),#72,.T.);
#1175=ADVANCED_FACE('',(#132),#73,.T.);
#1176=ADVANCED_FACE('',(#133),#74,.T.);
#1177=ADVANCED_FACE('',(#134,#32,#33,#34),#75,.T.);
#1178=ADVANCED_FACE('',(#135,#35,#36,#37),#76,.F.);
#1179=CLOSED_SHELL('',(#1120,#1121,#1122,#1123,#1124,#1125,#1126,#1127,
#1128,#1129,#1130,#1131,#1132,#1133,#1134,#1135,#1136,#1137,#1138,#1139,
#1140,#1141,#1142,#1143,#1144,#1145,#1146,#1147,#1148,#1149,#1150,#1151,
#1152,#1153,#1154,#1155,#1156,#1157,#1158,#1159,#1160,#1161,#1162,#1163,
#1164,#1165,#1166,#1167,#1168,#1169,#1170,#1171,#1172,#1173,#1174,#1175,
#1176,#1177,#1178));
#1180=DERIVED_UNIT_ELEMENT(#1183,1.);
#1181=DERIVED_UNIT_ELEMENT(#1972,-3.);
#1182=DIMENSIONAL_EXPONENTS(0.,1.,0.,0.,0.,0.,0.);
#1183=(
CONVERSION_BASED_UNIT('gram',#1185)
MASS_UNIT()
NAMED_UNIT(#1182)
);
#1184=(
MASS_UNIT()
NAMED_UNIT(*)
SI_UNIT(.KILO.,.GRAM.)
);
#1185=MASS_MEASURE_WITH_UNIT(MASS_MEASURE(0.001),#1184);
#1186=DERIVED_UNIT((#1180,#1181));
#1187=MEASURE_REPRESENTATION_ITEM('density measure',
POSITIVE_RATIO_MEASURE(1.541),#1186);
#1188=PROPERTY_DEFINITION_REPRESENTATION(#1193,#1190);
#1189=PROPERTY_DEFINITION_REPRESENTATION(#1194,#1191);
#1190=REPRESENTATION('material name',(#1192),#1969);
#1191=REPRESENTATION('density',(#1187),#1969);
#1192=DESCRIPTIVE_REPRESENTATION_ITEM('PET Plastic','PET Plastic');
#1193=PROPERTY_DEFINITION('material property','material name',#1979);
#1194=PROPERTY_DEFINITION('material property','density of part',#1979);
#1195=DATE_TIME_ROLE('creation_date');
#1196=APPLIED_DATE_AND_TIME_ASSIGNMENT(#1197,#1195,(#1979));
#1197=DATE_AND_TIME(#1198,#1199);
#1198=CALENDAR_DATE(2023,27,4);
#1199=LOCAL_TIME(0,0,0.,#1200);
#1200=COORDINATED_UNIVERSAL_TIME_OFFSET(0,0,.BEHIND.);
#1201=AXIS2_PLACEMENT_3D('',#1633,#1305,#1306);
#1202=AXIS2_PLACEMENT_3D('',#1634,#1307,#1308);
#1203=AXIS2_PLACEMENT_3D('',#1636,#1309,#1310);
#1204=AXIS2_PLACEMENT_3D('',#1639,#1312,#1313);
#1205=AXIS2_PLACEMENT_3D('',#1640,#1314,#1315);
#1206=AXIS2_PLACEMENT_3D('',#1642,#1316,#1317);
#1207=AXIS2_PLACEMENT_3D('',#1643,#1318,#1319);
#1208=AXIS2_PLACEMENT_3D('',#1645,#1320,#1321);
#1209=AXIS2_PLACEMENT_3D('',#1646,#1322,#1323);
#1210=AXIS2_PLACEMENT_3D('',#1648,#1324,#1325);
#1211=AXIS2_PLACEMENT_3D('',#1650,#1327,#1328);
#1212=AXIS2_PLACEMENT_3D('',#1659,#1333,#1334);
#1213=AXIS2_PLACEMENT_3D('',#1661,#1335,#1336);
#1214=AXIS2_PLACEMENT_3D('',#1663,#1337,#1338);
#1215=AXIS2_PLACEMENT_3D('',#1665,#1340,#1341);
#1216=AXIS2_PLACEMENT_3D('',#1671,#1345,#1346);
#1217=AXIS2_PLACEMENT_3D('',#1672,#1347,#1348);
#1218=AXIS2_PLACEMENT_3D('',#1673,#1349,#1350);
#1219=AXIS2_PLACEMENT_3D('',#1674,#1351,#1352);
#1220=AXIS2_PLACEMENT_3D('',#1683,#1357,#1358);
#1221=AXIS2_PLACEMENT_3D('',#1694,#1363,#1364);
#1222=AXIS2_PLACEMENT_3D('',#1698,#1366,#1367);
#1223=AXIS2_PLACEMENT_3D('',#1702,#1369,#1370);
#1224=AXIS2_PLACEMENT_3D('',#1706,#1372,#1373);
#1225=AXIS2_PLACEMENT_3D('',#1710,#1375,#1376);
#1226=AXIS2_PLACEMENT_3D('',#1714,#1378,#1379);
#1227=AXIS2_PLACEMENT_3D('',#1718,#1381,#1382);
#1228=AXIS2_PLACEMENT_3D('',#1722,#1384,#1385);
#1229=AXIS2_PLACEMENT_3D('',#1726,#1387,#1388);
#1230=AXIS2_PLACEMENT_3D('',#1730,#1390,#1391);
#1231=AXIS2_PLACEMENT_3D('',#1732,#1393,#1394);
#1232=AXIS2_PLACEMENT_3D('',#1738,#1398,#1399);
#1233=AXIS2_PLACEMENT_3D('',#1743,#1403,#1404);
#1234=AXIS2_PLACEMENT_3D('',#1745,#1405,#1406);
#1235=AXIS2_PLACEMENT_3D('',#1749,#1408,#1409);
#1236=AXIS2_PLACEMENT_3D('',#1753,#1411,#1412);
#1237=AXIS2_PLACEMENT_3D('',#1757,#1414,#1415);
#1238=AXIS2_PLACEMENT_3D('',#1761,#1417,#1418);
#1239=AXIS2_PLACEMENT_3D('',#1764,#1420,#1421);
#1240=AXIS2_PLACEMENT_3D('',#1765,#1422,#1423);
#1241=AXIS2_PLACEMENT_3D('',#1768,#1425,#1426);
#1242=AXIS2_PLACEMENT_3D('',#1769,#1427,#1428);
#1243=AXIS2_PLACEMENT_3D('',#1770,#1429,#1430);
#1244=AXIS2_PLACEMENT_3D('',#1776,#1434,#1435);
#1245=AXIS2_PLACEMENT_3D('',#1780,#1438,#1439);
#1246=AXIS2_PLACEMENT_3D('',#1800,#1449,#1450);
#1247=AXIS2_PLACEMENT_3D('',#1804,#1452,#1453);
#1248=AXIS2_PLACEMENT_3D('',#1808,#1455,#1456);
#1249=AXIS2_PLACEMENT_3D('',#1812,#1458,#1459);
#1250=AXIS2_PLACEMENT_3D('',#1816,#1461,#1462);
#1251=AXIS2_PLACEMENT_3D('',#1820,#1464,#1465);
#1252=AXIS2_PLACEMENT_3D('',#1824,#1467,#1468);
#1253=AXIS2_PLACEMENT_3D('',#1828,#1470,#1471);
#1254=AXIS2_PLACEMENT_3D('',#1832,#1473,#1474);
#1255=AXIS2_PLACEMENT_3D('',#1836,#1476,#1477);
#1256=AXIS2_PLACEMENT_3D('',#1838,#1479,#1480);
#1257=AXIS2_PLACEMENT_3D('',#1842,#1483,#1484);
#1258=AXIS2_PLACEMENT_3D('',#1846,#1487,#1488);
#1259=AXIS2_PLACEMENT_3D('',#1850,#1491,#1492);
#1260=AXIS2_PLACEMENT_3D('',#1852,#1494,#1495);
#1261=AXIS2_PLACEMENT_3D('',#1854,#1497,#1498);
#1262=AXIS2_PLACEMENT_3D('',#1857,#1501,#1502);
#1263=AXIS2_PLACEMENT_3D('',#1860,#1505,#1506);
#1264=AXIS2_PLACEMENT_3D('',#1862,#1508,#1509);
#1265=AXIS2_PLACEMENT_3D('',#1864,#1511,#1512);
#1266=AXIS2_PLACEMENT_3D('',#1865,#1513,#1514);
#1267=AXIS2_PLACEMENT_3D('',#1868,#1517,#1518);
#1268=AXIS2_PLACEMENT_3D('',#1870,#1520,#1521);
#1269=AXIS2_PLACEMENT_3D('',#1872,#1523,#1524);
#1270=AXIS2_PLACEMENT_3D('',#1873,#1525,#1526);
#1271=AXIS2_PLACEMENT_3D('',#1876,#1529,#1530);
#1272=AXIS2_PLACEMENT_3D('',#1878,#1532,#1533);
#1273=AXIS2_PLACEMENT_3D('',#1880,#1535,#1536);
#1274=AXIS2_PLACEMENT_3D('',#1881,#1537,#1538);
#1275=AXIS2_PLACEMENT_3D('',#1884,#1541,#1542);
#1276=AXIS2_PLACEMENT_3D('',#1886,#1544,#1545);
#1277=AXIS2_PLACEMENT_3D('',#1888,#1547,#1548);
#1278=AXIS2_PLACEMENT_3D('',#1889,#1549,#1550);
#1279=AXIS2_PLACEMENT_3D('',#1892,#1553,#1554);
#1280=AXIS2_PLACEMENT_3D('',#1894,#1556,#1557);
#1281=AXIS2_PLACEMENT_3D('',#1896,#1559,#1560);
#1282=AXIS2_PLACEMENT_3D('',#1897,#1561,#1562);
#1283=AXIS2_PLACEMENT_3D('',#1899,#1564,#1565);
#1284=AXIS2_PLACEMENT_3D('',#1901,#1567,#1568);
#1285=AXIS2_PLACEMENT_3D('',#1904,#1569,#1570);
#1286=AXIS2_PLACEMENT_3D('',#1908,#1572,#1573);
#1287=AXIS2_PLACEMENT_3D('',#1910,#1575,#1576);
#1288=AXIS2_PLACEMENT_3D('',#1916,#1580,#1581);
#1289=AXIS2_PLACEMENT_3D('',#1918,#1582,#1583);
#1290=AXIS2_PLACEMENT_3D('',#1921,#1585,#1586);
#1291=AXIS2_PLACEMENT_3D('',#1922,#1587,#1588);
#1292=AXIS2_PLACEMENT_3D('',#1925,#1591,#1592);
#1293=AXIS2_PLACEMENT_3D('',#1928,#1593,#1594);
#1294=AXIS2_PLACEMENT_3D('',#1932,#1596,#1597);
#1295=AXIS2_PLACEMENT_3D('',#1934,#1599,#1600);
#1296=AXIS2_PLACEMENT_3D('',#1940,#1604,#1605);
#1297=AXIS2_PLACEMENT_3D('',#1942,#1606,#1607);
#1298=AXIS2_PLACEMENT_3D('',#1945,#1609,#1610);
#1299=AXIS2_PLACEMENT_3D('',#1946,#1611,#1612);
#1300=AXIS2_PLACEMENT_3D('',#1949,#1615,#1616);
#1301=AXIS2_PLACEMENT_3D('',#1955,#1620,#1621);
#1302=AXIS2_PLACEMENT_3D('',#1961,#1625,#1626);
#1303=AXIS2_PLACEMENT_3D('',#1964,#1629,#1630);
#1304=AXIS2_PLACEMENT_3D('',#1965,#1631,#1632);
#1305=DIRECTION('axis',(0.,0.,1.));
#1306=DIRECTION('refdir',(1.,0.,0.));
#1307=DIRECTION('center_axis',(0.,1.,0.));
#1308=DIRECTION('ref_axis',(-1.,0.,-8.01852070870291E-17));
#1309=DIRECTION('center_axis',(0.,1.,0.));
#1310=DIRECTION('ref_axis',(-1.,0.,-8.01852070870291E-17));
#1311=DIRECTION('',(0.,1.,0.));
#1312=DIRECTION('center_axis',(0.,-1.,0.));
#1313=DIRECTION('ref_axis',(-1.,0.,-8.01852070870291E-17));
#1314=DIRECTION('center_axis',(0.,1.,0.));
#1315=DIRECTION('ref_axis',(0.,0.,1.));
#1316=DIRECTION('center_axis',(0.,1.,0.));
#1317=DIRECTION('ref_axis',(-0.866025403784439,0.,0.5));
#1318=DIRECTION('center_axis',(0.,1.,0.));
#1319=DIRECTION('ref_axis',(0.,0.,1.));
#1320=DIRECTION('center_axis',(0.,-1.,0.));
#1321=DIRECTION('ref_axis',(-0.866025403784439,0.,0.5));
#1322=DIRECTION('center_axis',(0.,-1.,0.));
#1323=DIRECTION('ref_axis',(-0.866025403784439,0.,0.5));
#1324=DIRECTION('center_axis',(0.,-1.,0.));
#1325=DIRECTION('ref_axis',(-0.866025403784439,0.,0.5));
#1326=DIRECTION('',(0.,-1.,0.));
#1327=DIRECTION('center_axis',(0.,1.,0.));
#1328=DIRECTION('ref_axis',(-1.,0.,0.));
#1329=DIRECTION('',(1.,0.,0.));
#1330=DIRECTION('',(0.,0.,1.));
#1331=DIRECTION('',(-1.,0.,0.));
#1332=DIRECTION('',(0.,0.,1.));
#1333=DIRECTION('center_axis',(0.,0.,1.));
#1334=DIRECTION('ref_axis',(3.28954970259306E-16,-1.,0.));
#1335=DIRECTION('center_axis',(0.,0.,-1.));
#1336=DIRECTION('ref_axis',(3.28954970259306E-16,-1.,0.));
#1337=DIRECTION('center_axis',(0.,0.,1.));
#1338=DIRECTION('ref_axis',(3.28954970259306E-16,-1.,0.));
#1339=DIRECTION('',(0.,0.,1.));
#1340=DIRECTION('center_axis',(1.38777878078145E-16,-1.,0.));
#1341=DIRECTION('ref_axis',(1.,1.38777878078145E-16,0.));
#1342=DIRECTION('',(-1.,-1.38777878078145E-16,0.));
#1343=DIRECTION('',(1.,1.38777878078145E-16,0.));
#1344=DIRECTION('',(0.,0.,1.));
#1345=DIRECTION('center_axis',(0.,0.,1.));
#1346=DIRECTION('ref_axis',(3.28954970259306E-16,1.,0.));
#1347=DIRECTION('center_axis',(0.,0.,-1.));
#1348=DIRECTION('ref_axis',(3.28954970259306E-16,1.,0.));
#1349=DIRECTION('center_axis',(0.,0.,1.));
#1350=DIRECTION('ref_axis',(3.28954970259306E-16,1.,0.));
#1351=DIRECTION('center_axis',(0.4226182617407,-0.90630778703665,0.));
#1352=DIRECTION('ref_axis',(0.90630778703665,0.4226182617407,0.));
#1353=DIRECTION('',(-0.90630778703665,-0.4226182617407,0.));
#1354=DIRECTION('',(0.,-2.22044604925031E-16,1.));
#1355=DIRECTION('',(0.90630778703665,0.4226182617407,0.));
#1356=DIRECTION('',(0.,0.,1.));
#1357=DIRECTION('center_axis',(0.,-1.,-2.22044604925031E-16));
#1358=DIRECTION('ref_axis',(0.,2.22044604925031E-16,-1.));
#1359=DIRECTION('',(1.,0.,0.));
#1360=DIRECTION('',(0.,-2.22044604925031E-16,1.));
#1361=DIRECTION('',(1.,0.,0.));
#1362=DIRECTION('',(-0.5,1.92296268638356E-16,-0.866025403784439));
#1363=DIRECTION('center_axis',(0.,1.,2.22044604925031E-16));
#1364=DIRECTION('ref_axis',(0.,0.,1.));
#1365=DIRECTION('',(-1.,0.,0.));
#1366=DIRECTION('center_axis',(0.,1.,2.22044604925031E-16));
#1367=DIRECTION('ref_axis',(1.85037170770859E-16,0.,-1.));
#1368=DIRECTION('',(1.,0.,0.));
#1369=DIRECTION('center_axis',(0.,1.,2.22044604925031E-16));
#1370=DIRECTION('ref_axis',(0.,0.,1.));
#1371=DIRECTION('',(-1.,0.,0.));
#1372=DIRECTION('center_axis',(0.,1.,2.22044604925031E-16));
#1373=DIRECTION('ref_axis',(0.,0.,-1.));
#1374=DIRECTION('',(1.,0.,0.));
#1375=DIRECTION('center_axis',(0.,1.,2.22044604925031E-16));
#1376=DIRECTION('ref_axis',(0.,0.,1.));
#1377=DIRECTION('',(-1.,0.,0.));
#1378=DIRECTION('center_axis',(0.,1.,2.22044604925031E-16));
#1379=DIRECTION('ref_axis',(0.,0.,-1.));
#1380=DIRECTION('',(1.,0.,0.));
#1381=DIRECTION('center_axis',(0.,1.,2.22044604925031E-16));
#1382=DIRECTION('ref_axis',(0.,0.,1.));
#1383=DIRECTION('',(-1.,0.,0.));
#1384=DIRECTION('center_axis',(0.,1.,2.22044604925031E-16));
#1385=DIRECTION('ref_axis',(0.,0.,-1.));
#1386=DIRECTION('',(1.,0.,0.));
#1387=DIRECTION('center_axis',(0.,1.,2.22044604925031E-16));
#1388=DIRECTION('ref_axis',(0.,0.,1.));
#1389=DIRECTION('',(-1.,0.,0.));
#1390=DIRECTION('center_axis',(0.,1.,2.22044604925031E-16));
#1391=DIRECTION('ref_axis',(0.,0.,-1.));
#1392=DIRECTION('',(1.,0.,0.));
#1393=DIRECTION('center_axis',(-1.,0.,0.));
#1394=DIRECTION('ref_axis',(0.,2.22044604925031E-16,-1.));
#1395=DIRECTION('',(0.,-1.,0.));
#1396=DIRECTION('',(0.,2.22044604925031E-16,-1.));
#1397=DIRECTION('',(0.,-1.,-2.22044604925031E-16));
#1398=DIRECTION('center_axis',(0.,-1.,-2.22044604925031E-16));
#1399=DIRECTION('ref_axis',(0.,2.22044604925031E-16,-1.));
#1400=DIRECTION('',(1.,0.,0.));
#1401=DIRECTION('',(0.,-2.22044604925031E-16,1.));
#1402=DIRECTION('',(-1.,3.94430452610506E-31,-1.77635683940025E-15));
#1403=DIRECTION('center_axis',(0.,-1.,0.));
#1404=DIRECTION('ref_axis',(-0.866025403784439,0.,0.5));
#1405=DIRECTION('center_axis',(0.,-1.,0.));
#1406=DIRECTION('ref_axis',(-0.866025403784439,0.,0.5));
#1407=DIRECTION('',(0.,1.,0.));
#1408=DIRECTION('center_axis',(0.,-1.,0.));
#1409=DIRECTION('ref_axis',(-0.866025403784439,0.,0.5));
#1410=DIRECTION('',(0.,-1.,-5.9211894646675E-16));
#1411=DIRECTION('center_axis',(0.,1.,0.));
#1412=DIRECTION('ref_axis',(-0.866025403784439,0.,0.5));
#1413=DIRECTION('',(0.,1.,0.));
#1414=DIRECTION('center_axis',(0.,1.,0.));
#1415=DIRECTION('ref_axis',(-0.866025403784439,0.,0.5));
#1416=DIRECTION('',(0.,-1.,0.));
#1417=DIRECTION('center_axis',(0.,1.,3.55271367880047E-15));
#1418=DIRECTION('ref_axis',(-0.866025403784439,0.,0.5));
#1419=DIRECTION('',(0.,1.,1.1842378929335E-15));
#1420=DIRECTION('center_axis',(0.,-1.,0.));
#1421=DIRECTION('ref_axis',(-0.866025403784439,0.,0.5));
#1422=DIRECTION('center_axis',(0.,-1.,0.));
#1423=DIRECTION('ref_axis',(-0.866025403784439,0.,0.5));
#1424=DIRECTION('',(0.,-1.,0.));
#1425=DIRECTION('center_axis',(0.,1.,0.));
#1426=DIRECTION('ref_axis',(-0.866025403784439,0.,0.5));
#1427=DIRECTION('center_axis',(0.,1.,0.));
#1428=DIRECTION('ref_axis',(0.,0.,1.));
#1429=DIRECTION('center_axis',(0.,-4.44089209850062E-16,1.));
#1430=DIRECTION('ref_axis',(0.,-1.,-4.44089209850062E-16));
#1431=DIRECTION('',(1.,0.,0.));
#1432=DIRECTION('',(0.,1.,4.44089209850062E-16));
#1433=DIRECTION('',(1.,0.,0.));
#1434=DIRECTION('center_axis',(0.,-1.,0.));
#1435=DIRECTION('ref_axis',(0.,0.,-1.));
#1436=DIRECTION('',(1.,0.,0.));
#1437=DIRECTION('',(0.,0.,1.));
#1438=DIRECTION('center_axis',(0.,1.,0.));
#1439=DIRECTION('ref_axis',(-1.,0.,0.));
#1440=DIRECTION('',(1.,0.,0.));
#1441=DIRECTION('',(0.,0.,1.));
#1442=DIRECTION('',(1.,0.,0.));
#1443=DIRECTION('',(0.,0.,1.));
#1444=DIRECTION('',(-1.,0.,0.));
#1445=DIRECTION('',(0.5,0.,0.866025403784439));
#1446=DIRECTION('',(1.,0.,0.));
#1447=DIRECTION('',(0.,0.,1.));
#1448=DIRECTION('',(1.,0.,0.));
#1449=DIRECTION('center_axis',(0.,-1.,0.));
#1450=DIRECTION('ref_axis',(0.,0.,1.));
#1451=DIRECTION('',(-1.,0.,0.));
#1452=DIRECTION('center_axis',(0.,-1.,0.));
#1453=DIRECTION('ref_axis',(1.85037170770859E-16,0.,-1.));
#1454=DIRECTION('',(1.,0.,0.));
#1455=DIRECTION('center_axis',(0.,-1.,0.));
#1456=DIRECTION('ref_axis',(0.,0.,1.));
#1457=DIRECTION('',(-1.,0.,0.));
#1458=DIRECTION('center_axis',(0.,-1.,0.));
#1459=DIRECTION('ref_axis',(0.,0.,-1.));
#1460=DIRECTION('',(1.,0.,0.));
#1461=DIRECTION('center_axis',(0.,-1.,0.));
#1462=DIRECTION('ref_axis',(0.,0.,1.));
#1463=DIRECTION('',(-1.,0.,0.));
#1464=DIRECTION('center_axis',(0.,-1.,0.));
#1465=DIRECTION('ref_axis',(0.,0.,-1.));
#1466=DIRECTION('',(1.,0.,0.));
#1467=DIRECTION('center_axis',(0.,-1.,0.));
#1468=DIRECTION('ref_axis',(0.,0.,1.));
#1469=DIRECTION('',(-1.,0.,0.));
#1470=DIRECTION('center_axis',(0.,-1.,0.));
#1471=DIRECTION('ref_axis',(0.,0.,-1.));
#1472=DIRECTION('',(1.,0.,0.));
#1473=DIRECTION('center_axis',(0.,-1.,0.));
#1474=DIRECTION('ref_axis',(0.,0.,1.));
#1475=DIRECTION('',(-1.,0.,0.));
#1476=DIRECTION('center_axis',(0.,-1.,0.));
#1477=DIRECTION('ref_axis',(0.,0.,-1.));
#1478=DIRECTION('',(1.,0.,0.));
#1479=DIRECTION('center_axis',(0.,1.1842378929335E-15,-1.));
#1480=DIRECTION('ref_axis',(0.,1.,1.1842378929335E-15));
#1481=DIRECTION('',(0.,-1.,-1.1842378929335E-15));
#1482=DIRECTION('',(1.,0.,0.));
#1483=DIRECTION('center_axis',(0.,-1.,-3.55271367880047E-15));
#1484=DIRECTION('ref_axis',(0.,3.55271367880047E-15,-1.));
#1485=DIRECTION('',(1.,0.,0.));
#1486=DIRECTION('',(0.,-3.55271367880047E-15,1.));
#1487=DIRECTION('center_axis',(0.,4.44089209850063E-16,-1.));
#1488=DIRECTION('ref_axis',(0.,1.,4.44089209850063E-16));
#1489=DIRECTION('',(1.,0.,0.));
#1490=DIRECTION('',(0.,-1.,-4.44089209850063E-16));
#1491=DIRECTION('center_axis',(0.,-1.,0.));
#1492=DIRECTION('ref_axis',(0.,0.,-1.));
#1493=DIRECTION('',(0.,0.,1.));
#1494=DIRECTION('center_axis',(0.,-5.9211894646675E-16,1.));
#1495=DIRECTION('ref_axis',(0.,-1.,-5.9211894646675E-16));
#1496=DIRECTION('',(0.,1.,5.9211894646675E-16));
#1497=DIRECTION('center_axis',(1.,0.,0.));
#1498=DIRECTION('ref_axis',(0.,0.,-1.));
#1499=DIRECTION('',(0.,-1.,-2.22044604925031E-16));
#1500=DIRECTION('',(0.,-1.,0.));
#1501=DIRECTION('center_axis',(0.,-1.,0.));
#1502=DIRECTION('ref_axis',(0.,0.,-1.));
#1503=DIRECTION('',(0.,-1.,0.));
#1504=DIRECTION('',(0.,-1.,0.));
#1505=DIRECTION('center_axis',(0.,0.,1.));
#1506=DIRECTION('ref_axis',(-1.,0.,0.));
#1507=DIRECTION('',(0.,-1.,0.));
#1508=DIRECTION('center_axis',(0.,-1.,0.));
#1509=DIRECTION('ref_axis',(0.,0.,1.));
#1510=DIRECTION('',(0.,-1.,0.));
#1511=DIRECTION('center_axis',(0.,0.,-1.));
#1512=DIRECTION('ref_axis',(1.,0.,0.));
#1513=DIRECTION('center_axis',(0.,-1.,0.));
#1514=DIRECTION('ref_axis',(0.,0.,-1.));
#1515=DIRECTION('',(0.,-1.,0.));
#1516=DIRECTION('',(0.,-1.,0.));
#1517=DIRECTION('center_axis',(0.,0.,1.));
#1518=DIRECTION('ref_axis',(-1.,0.,0.));
#1519=DIRECTION('',(0.,-1.,0.));
#1520=DIRECTION('center_axis',(0.,-1.,0.));
#1521=DIRECTION('ref_axis',(0.,0.,1.));
#1522=DIRECTION('',(0.,-1.,0.));
#1523=DIRECTION('center_axis',(0.,0.,-1.));
#1524=DIRECTION('ref_axis',(1.,0.,0.));
#1525=DIRECTION('center_axis',(0.,-1.,0.));
#1526=DIRECTION('ref_axis',(0.,0.,-1.));
#1527=DIRECTION('',(0.,-1.,0.));
#1528=DIRECTION('',(0.,-1.,0.));
#1529=DIRECTION('center_axis',(0.,0.,1.));
#1530=DIRECTION('ref_axis',(-1.,0.,0.));
#1531=DIRECTION('',(0.,-1.,0.));
#1532=DIRECTION('center_axis',(0.,-1.,0.));
#1533=DIRECTION('ref_axis',(0.,0.,1.));
#1534=DIRECTION('',(0.,-1.,0.));
#1535=DIRECTION('center_axis',(0.,0.,-1.));
#1536=DIRECTION('ref_axis',(1.,0.,0.));
#1537=DIRECTION('center_axis',(0.,-1.,0.));
#1538=DIRECTION('ref_axis',(0.,0.,-1.));
#1539=DIRECTION('',(0.,-1.,0.));
#1540=DIRECTION('',(0.,-1.,0.));
#1541=DIRECTION('center_axis',(0.,0.,1.));
#1542=DIRECTION('ref_axis',(-1.,0.,0.));
#1543=DIRECTION('',(0.,-1.,0.));
#1544=DIRECTION('center_axis',(0.,-1.,0.));
#1545=DIRECTION('ref_axis',(0.,0.,1.));
#1546=DIRECTION('',(0.,-1.,0.));
#1547=DIRECTION('center_axis',(0.,0.,-1.));
#1548=DIRECTION('ref_axis',(1.,0.,0.));
#1549=DIRECTION('center_axis',(0.,-1.,0.));
#1550=DIRECTION('ref_axis',(1.85037170770859E-16,0.,-1.));
#1551=DIRECTION('',(0.,-1.,0.));
#1552=DIRECTION('',(0.,-1.,0.));
#1553=DIRECTION('center_axis',(0.,0.,1.));
#1554=DIRECTION('ref_axis',(-1.,0.,0.));
#1555=DIRECTION('',(0.,-1.,0.));
#1556=DIRECTION('center_axis',(0.,-1.,0.));
#1557=DIRECTION('ref_axis',(0.,0.,1.));
#1558=DIRECTION('',(0.,-1.,0.));
#1559=DIRECTION('center_axis',(0.,0.,-1.));
#1560=DIRECTION('ref_axis',(1.,0.,0.));
#1561=DIRECTION('center_axis',(0.,0.,1.));
#1562=DIRECTION('ref_axis',(0.,-1.,0.));
#1563=DIRECTION('',(0.,1.,0.));
#1564=DIRECTION('center_axis',(0.866025403784439,0.,-0.5));
#1565=DIRECTION('ref_axis',(-0.5,0.,-0.866025403784439));
#1566=DIRECTION('',(0.,-1.,0.));
#1567=DIRECTION('center_axis',(0.,0.,1.));
#1568=DIRECTION('ref_axis',(6.66133814775095E-15,1.,0.));
#1569=DIRECTION('center_axis',(0.,0.,1.));
#1570=DIRECTION('ref_axis',(6.66133814775095E-15,1.,0.));
#1571=DIRECTION('',(0.,0.,1.));
#1572=DIRECTION('center_axis',(0.,0.,-1.));
#1573=DIRECTION('ref_axis',(6.66133814775095E-15,1.,0.));
#1574=DIRECTION('',(0.,0.,1.));
#1575=DIRECTION('center_axis',(-4.62592926927149E-17,-1.,0.));
#1576=DIRECTION('ref_axis',(1.,-4.62592926927149E-17,0.));
#1577=DIRECTION('',(1.,-4.62592926927149E-17,0.));
#1578=DIRECTION('',(0.,0.,1.));
#1579=DIRECTION('',(-1.,4.62592926927149E-17,0.));
#1580=DIRECTION('center_axis',(0.,0.,1.));
#1581=DIRECTION('ref_axis',(0.,-1.,0.));
#1582=DIRECTION('center_axis',(0.,0.,1.));
#1583=DIRECTION('ref_axis',(0.,-1.,0.));
#1584=DIRECTION('',(0.,0.,1.));
#1585=DIRECTION('center_axis',(0.,0.,-1.));
#1586=DIRECTION('ref_axis',(0.,-1.,0.));
#1587=DIRECTION('center_axis',(3.23815048849004E-16,1.,0.));
#1588=DIRECTION('ref_axis',(-1.,3.23815048849004E-16,0.));
#1589=DIRECTION('',(-1.,3.23815048849004E-16,0.));
#1590=DIRECTION('',(1.,-3.23815048849004E-16,0.));
#1591=DIRECTION('center_axis',(0.,0.,1.));
#1592=DIRECTION('ref_axis',(-2.22044604925043E-15,1.,0.));
#1593=DIRECTION('center_axis',(0.,0.,1.));
#1594=DIRECTION('ref_axis',(-2.22044604925043E-15,1.,0.));
#1595=DIRECTION('',(0.,0.,1.));
#1596=DIRECTION('center_axis',(0.,0.,-1.));
#1597=DIRECTION('ref_axis',(-2.22044604925043E-15,1.,0.));
#1598=DIRECTION('',(0.,0.,1.));
#1599=DIRECTION('center_axis',(-2.03540887847945E-15,1.,0.));
#1600=DIRECTION('ref_axis',(-1.,-2.03540887847945E-15,0.));
#1601=DIRECTION('',(-1.,-2.03540887847945E-15,0.));
#1602=DIRECTION('',(0.,0.,1.));
#1603=DIRECTION('',(1.,2.03540887847945E-15,0.));
#1604=DIRECTION('center_axis',(0.,0.,1.));
#1605=DIRECTION('ref_axis',(2.2204460492503E-15,-1.,0.));
#1606=DIRECTION('center_axis',(0.,0.,1.));
#1607=DIRECTION('ref_axis',(2.2204460492503E-15,-1.,0.));
#1608=DIRECTION('',(0.,0.,1.));
#1609=DIRECTION('center_axis',(0.,0.,-1.));
#1610=DIRECTION('ref_axis',(2.2204460492503E-15,-1.,0.));
#1611=DIRECTION('center_axis',(2.03540887847945E-15,-1.,0.));
#1612=DIRECTION('ref_axis',(1.,2.03540887847945E-15,0.));
#1613=DIRECTION('',(1.,2.03540887847945E-15,0.));
#1614=DIRECTION('',(-1.,-2.03540887847945E-15,0.));
#1615=DIRECTION('center_axis',(-1.,0.,0.));
#1616=DIRECTION('ref_axis',(0.,-1.,0.));
#1617=DIRECTION('',(0.,-1.,0.));
#1618=DIRECTION('',(0.,0.,1.));
#1619=DIRECTION('',(0.,-1.,0.));
#1620=DIRECTION('center_axis',(1.,0.,0.));
#1621=DIRECTION('ref_axis',(0.,1.,0.));
#1622=DIRECTION('',(0.,1.,0.));
#1623=DIRECTION('',(0.,0.,1.));
#1624=DIRECTION('',(0.,1.,0.));
#1625=DIRECTION('center_axis',(0.,-1.,0.));
#1626=DIRECTION('ref_axis',(1.,0.,0.));
#1627=DIRECTION('',(1.,0.,0.));
#1628=DIRECTION('',(1.,0.,0.));
#1629=DIRECTION('center_axis',(0.,0.,1.));
#1630=DIRECTION('ref_axis',(1.,0.,0.));
#1631=DIRECTION('center_axis',(0.,0.,1.));
#1632=DIRECTION('ref_axis',(1.,0.,0.));
#1633=CARTESIAN_POINT('',(0.,0.,0.));
#1634=CARTESIAN_POINT('Origin',(160.000076824971,45.,22.5));
#1635=CARTESIAN_POINT('',(173.000076824971,38.,22.5));
#1636=CARTESIAN_POINT('Origin',(160.000076824971,38.,22.5));
#1637=CARTESIAN_POINT('',(173.000076824971,52.,22.5));
#1638=CARTESIAN_POINT('',(173.000076824971,45.,22.5));
#1639=CARTESIAN_POINT('Origin',(160.000076824971,52.,22.5));
#1640=CARTESIAN_POINT('Origin',(160.000076824971,38.,22.5));
#1641=CARTESIAN_POINT('',(173.856483285522,38.,14.5));
#1642=CARTESIAN_POINT('Origin',(160.000076824971,38.,22.5));
#1643=CARTESIAN_POINT('Origin',(160.000076824971,52.,22.5));
#1644=CARTESIAN_POINT('',(173.856483285522,52.,14.5));
#1645=CARTESIAN_POINT('Origin',(160.000076824971,52.,22.5));
#1646=CARTESIAN_POINT('Origin',(160.000076824971,60.,22.5));
#1647=CARTESIAN_POINT('',(173.856483285522,60.,14.5));
#1648=CARTESIAN_POINT('Origin',(160.000076824971,60.,22.5));
#1649=CARTESIAN_POINT('',(173.856483285522,60.,14.5));
#1650=CARTESIAN_POINT('Origin',(16.,36.75,0.));
#1651=CARTESIAN_POINT('',(-16.,36.75,5.));
#1652=CARTESIAN_POINT('',(16.,36.75,5.));
#1653=CARTESIAN_POINT('',(8.,36.75,5.));
#1654=CARTESIAN_POINT('',(-16.,36.75,0.));
#1655=CARTESIAN_POINT('',(-16.,36.75,0.));
#1656=CARTESIAN_POINT('',(16.,36.75,0.));
#1657=CARTESIAN_POINT('',(8.,36.75,0.));
#1658=CARTESIAN_POINT('',(16.,36.75,0.));
#1659=CARTESIAN_POINT('Origin',(16.,30.,0.));
#1660=CARTESIAN_POINT('',(16.,23.25,5.));
#1661=CARTESIAN_POINT('Origin',(16.,30.,5.));
#1662=CARTESIAN_POINT('',(16.,23.25,0.));
#1663=CARTESIAN_POINT('Origin',(16.,30.,0.));
#1664=CARTESIAN_POINT('',(16.,23.25,0.));
#1665=CARTESIAN_POINT('Origin',(-16.,23.25,0.));
#1666=CARTESIAN_POINT('',(-16.,23.25,5.));
#1667=CARTESIAN_POINT('',(-8.,23.25,5.));
#1668=CARTESIAN_POINT('',(-16.,23.25,0.));
#1669=CARTESIAN_POINT('',(-8.,23.25,0.));
#1670=CARTESIAN_POINT('',(-16.,23.25,0.));
#1671=CARTESIAN_POINT('Origin',(-16.,30.,0.));
#1672=CARTESIAN_POINT('Origin',(-16.,30.,5.));
#1673=CARTESIAN_POINT('Origin',(-16.,30.,0.));
#1674=CARTESIAN_POINT('Origin',(30.,16.0161553830251,0.));
#1675=CARTESIAN_POINT('',(75.,37.,4.44089209850063E-15));
#1676=CARTESIAN_POINT('',(30.,16.0161553830251,0.));
#1677=CARTESIAN_POINT('',(75.,37.,0.));
#1678=CARTESIAN_POINT('',(75.,37.,5.));
#1679=CARTESIAN_POINT('',(75.,37.,3.33066907387547E-15));
#1680=CARTESIAN_POINT('',(30.,16.0161553830251,5.));
#1681=CARTESIAN_POINT('',(75.,37.,5.));
#1682=CARTESIAN_POINT('',(30.,16.0161553830251,0.));
#1683=CARTESIAN_POINT('Origin',(30.,57.,40.));
#1684=CARTESIAN_POINT('',(9.7927405783631,57.,5.));
#1685=CARTESIAN_POINT('',(70.,57.,5.));
#1686=CARTESIAN_POINT('',(39.7332013288119,57.,5.));
#1687=CARTESIAN_POINT('',(70.,57.,40.));
#1688=CARTESIAN_POINT('',(70.,57.,40.));
#1689=CARTESIAN_POINT('',(30.,57.,40.));
#1690=CARTESIAN_POINT('',(30.,57.,40.));
#1691=CARTESIAN_POINT('',(25.,57.,31.3397459621556));
#1692=CARTESIAN_POINT('',(51.5,57.,34.5));
#1693=CARTESIAN_POINT('',(51.5,57.,10.5));
#1694=CARTESIAN_POINT('Origin',(51.5,57.,22.5));
#1695=CARTESIAN_POINT('',(48.5,57.,10.5));
#1696=CARTESIAN_POINT('',(39.25,57.,10.5));
#1697=CARTESIAN_POINT('',(48.5,57.,34.5));
#1698=CARTESIAN_POINT('Origin',(48.5,57.,22.5));
#1699=CARTESIAN_POINT('',(40.75,57.,34.5));
#1700=CARTESIAN_POINT('',(64.7,57.,37.8));
#1701=CARTESIAN_POINT('',(64.7,57.,33.4));
#1702=CARTESIAN_POINT('Origin',(64.7,57.,35.6));
#1703=CARTESIAN_POINT('',(61.3,57.,33.4));
#1704=CARTESIAN_POINT('',(45.65,57.,33.4));
#1705=CARTESIAN_POINT('',(61.3,57.,37.8));
#1706=CARTESIAN_POINT('Origin',(61.3,57.,35.6));
#1707=CARTESIAN_POINT('',(47.35,57.,37.8));
#1708=CARTESIAN_POINT('',(38.7,57.,37.8));
#1709=CARTESIAN_POINT('',(38.7,57.,33.4));
#1710=CARTESIAN_POINT('Origin',(38.7,57.,35.6));
#1711=CARTESIAN_POINT('',(35.3,57.,33.4));
#1712=CARTESIAN_POINT('',(32.65,57.,33.4));
#1713=CARTESIAN_POINT('',(35.3,57.,37.8));
#1714=CARTESIAN_POINT('Origin',(35.3,57.,35.6));
#1715=CARTESIAN_POINT('',(34.35,57.,37.8));
#1716=CARTESIAN_POINT('',(38.7,57.,11.8));
#1717=CARTESIAN_POINT('',(38.7,57.,7.4));
#1718=CARTESIAN_POINT('Origin',(38.7,57.,9.59999999999999));
#1719=CARTESIAN_POINT('',(35.3,57.,7.4));
#1720=CARTESIAN_POINT('',(32.65,57.,7.4));
#1721=CARTESIAN_POINT('',(35.3,57.,11.8));
#1722=CARTESIAN_POINT('Origin',(35.3,57.,9.59999999999999));
#1723=CARTESIAN_POINT('',(34.35,57.,11.8));
#1724=CARTESIAN_POINT('',(64.7,57.,11.8));
#1725=CARTESIAN_POINT('',(64.7,57.,7.4));
#1726=CARTESIAN_POINT('Origin',(64.7,57.,9.59999999999999));
#1727=CARTESIAN_POINT('',(61.3,57.,7.4));
#1728=CARTESIAN_POINT('',(45.65,57.,7.4));
#1729=CARTESIAN_POINT('',(61.3,57.,11.8));
#1730=CARTESIAN_POINT('Origin',(61.3,57.,9.59999999999999));
#1731=CARTESIAN_POINT('',(47.35,57.,11.8));
#1732=CARTESIAN_POINT('Origin',(70.,57.,40.));
#1733=CARTESIAN_POINT('',(70.,37.,5.));
#1734=CARTESIAN_POINT('',(70.,48.7955186287141,5.));
#1735=CARTESIAN_POINT('',(70.,37.,40.));
#1736=CARTESIAN_POINT('',(70.,37.,40.));
#1737=CARTESIAN_POINT('',(70.,57.,40.));
#1738=CARTESIAN_POINT('Origin',(72.5,37.,20.));
#1739=CARTESIAN_POINT('',(60.9832013288118,37.,5.));
#1740=CARTESIAN_POINT('',(75.,37.,40.));
#1741=CARTESIAN_POINT('',(75.,37.,3.33066907387547E-15));
#1742=CARTESIAN_POINT('',(75.,37.,40.));
#1743=CARTESIAN_POINT('Origin',(160.000076824971,60.,22.5));
#1744=CARTESIAN_POINT('',(176.887572198767,30.,12.75));
#1745=CARTESIAN_POINT('Origin',(160.000076824971,30.,22.5));
#1746=CARTESIAN_POINT('',(176.887572198767,60.,12.75));
#1747=CARTESIAN_POINT('',(176.887572198767,60.,12.75));
#1748=CARTESIAN_POINT('',(141.152,60.,27.5));
#1749=CARTESIAN_POINT('Origin',(160.000076824971,60.,22.5));
#1750=CARTESIAN_POINT('',(141.152,52.5,27.5));
#1751=CARTESIAN_POINT('',(141.152,52.5,27.5));
#1752=CARTESIAN_POINT('',(140.660997219157,52.5,25.));
#1753=CARTESIAN_POINT('Origin',(160.000076824971,52.5,22.5));
#1754=CARTESIAN_POINT('',(140.660997219157,42.5,25.));
#1755=CARTESIAN_POINT('',(140.660997219157,60.,25.));
#1756=CARTESIAN_POINT('',(140.660997219157,42.5,20.));
#1757=CARTESIAN_POINT('Origin',(160.000076824971,42.5,22.5));
#1758=CARTESIAN_POINT('',(140.660997219157,52.5,20.));
#1759=CARTESIAN_POINT('',(140.660997219157,60.,20.));
#1760=CARTESIAN_POINT('',(141.152,52.5,17.5));
#1761=CARTESIAN_POINT('Origin',(160.000076824971,52.5,22.5));
#1762=CARTESIAN_POINT('',(141.152,60.,17.5));
#1763=CARTESIAN_POINT('',(141.152,60.,17.5));
#1764=CARTESIAN_POINT('Origin',(160.000076824971,60.,22.5));
#1765=CARTESIAN_POINT('Origin',(160.000076824971,60.,22.5));
#1766=CARTESIAN_POINT('',(173.856483285522,30.,14.5));
#1767=CARTESIAN_POINT('',(173.856483285522,60.,14.5));
#1768=CARTESIAN_POINT('Origin',(160.000076824971,30.,22.5));
#1769=CARTESIAN_POINT('Origin',(160.000076824971,30.,22.5));
#1770=CARTESIAN_POINT('Origin',(75.,52.5,25.));
#1771=CARTESIAN_POINT('',(75.,52.5,25.));
#1772=CARTESIAN_POINT('',(75.,52.5,25.));
#1773=CARTESIAN_POINT('',(75.,42.5,25.));
#1774=CARTESIAN_POINT('',(75.,55.5,25.));
#1775=CARTESIAN_POINT('',(75.,42.5,25.));
#1776=CARTESIAN_POINT('Origin',(75.,52.5,27.5));
#1777=CARTESIAN_POINT('',(75.,52.5,27.5));
#1778=CARTESIAN_POINT('',(75.,52.5,27.5));
#1779=CARTESIAN_POINT('',(75.,52.5,23.75));
#1780=CARTESIAN_POINT('Origin',(30.,60.,0.));
#1781=CARTESIAN_POINT('',(75.,60.,17.5));
#1782=CARTESIAN_POINT('',(75.,60.,17.5));
#1783=CARTESIAN_POINT('',(75.,60.,8.41944674413805E-15));
#1784=CARTESIAN_POINT('',(75.,60.,40.));
#1785=CARTESIAN_POINT('',(-30.,60.,0.));
#1786=CARTESIAN_POINT('',(30.,60.,8.41944674413805E-15));
#1787=CARTESIAN_POINT('',(-30.,60.,5.));
#1788=CARTESIAN_POINT('',(-30.,60.,0.));
#1789=CARTESIAN_POINT('',(9.7927405783631,60.,5.));
#1790=CARTESIAN_POINT('',(30.,60.,5.));
#1791=CARTESIAN_POINT('',(30.,60.,40.));
#1792=CARTESIAN_POINT('',(16.3397459621556,60.,16.3397459621556));
#1793=CARTESIAN_POINT('',(75.,60.,40.));
#1794=CARTESIAN_POINT('',(30.,60.,40.));
#1795=CARTESIAN_POINT('',(75.,60.,27.5));
#1796=CARTESIAN_POINT('',(75.,60.,40.));
#1797=CARTESIAN_POINT('',(75.,60.,27.5));
#1798=CARTESIAN_POINT('',(51.5,60.,10.5));
#1799=CARTESIAN_POINT('',(51.5,60.,34.5));
#1800=CARTESIAN_POINT('Origin',(51.5,60.,22.5));
#1801=CARTESIAN_POINT('',(48.5,60.,34.5));
#1802=CARTESIAN_POINT('',(40.75,60.,34.5));
#1803=CARTESIAN_POINT('',(48.5,60.,10.5));
#1804=CARTESIAN_POINT('Origin',(48.5,60.,22.5));
#1805=CARTESIAN_POINT('',(39.25,60.,10.5));
#1806=CARTESIAN_POINT('',(64.7,60.,33.4));
#1807=CARTESIAN_POINT('',(64.7,60.,37.8));
#1808=CARTESIAN_POINT('Origin',(64.7,60.,35.6));
#1809=CARTESIAN_POINT('',(61.3,60.,37.8));
#1810=CARTESIAN_POINT('',(47.35,60.,37.8));
#1811=CARTESIAN_POINT('',(61.3,60.,33.4));
#1812=CARTESIAN_POINT('Origin',(61.3,60.,35.6));
#1813=CARTESIAN_POINT('',(45.65,60.,33.4));
#1814=CARTESIAN_POINT('',(38.7,60.,33.4));
#1815=CARTESIAN_POINT('',(38.7,60.,37.8));
#1816=CARTESIAN_POINT('Origin',(38.7,60.,35.6));
#1817=CARTESIAN_POINT('',(35.3,60.,37.8));
#1818=CARTESIAN_POINT('',(34.35,60.,37.8));
#1819=CARTESIAN_POINT('',(35.3,60.,33.4));
#1820=CARTESIAN_POINT('Origin',(35.3,60.,35.6));
#1821=CARTESIAN_POINT('',(32.65,60.,33.4));
#1822=CARTESIAN_POINT('',(38.7,60.,7.4));
#1823=CARTESIAN_POINT('',(38.7,60.,11.8));
#1824=CARTESIAN_POINT('Origin',(38.7,60.,9.59999999999999));
#1825=CARTESIAN_POINT('',(35.3,60.,11.8));
#1826=CARTESIAN_POINT('',(34.35,60.,11.8));
#1827=CARTESIAN_POINT('',(35.3,60.,7.4));
#1828=CARTESIAN_POINT('Origin',(35.3,60.,9.59999999999999));
#1829=CARTESIAN_POINT('',(32.65,60.,7.4));
#1830=CARTESIAN_POINT('',(64.7,60.,7.4));
#1831=CARTESIAN_POINT('',(64.7,60.,11.8));
#1832=CARTESIAN_POINT('Origin',(64.7,60.,9.59999999999999));
#1833=CARTESIAN_POINT('',(61.3,60.,11.8));
#1834=CARTESIAN_POINT('',(47.35,60.,11.8));
#1835=CARTESIAN_POINT('',(61.3,60.,7.4));
#1836=CARTESIAN_POINT('Origin',(61.3,60.,9.59999999999999));
#1837=CARTESIAN_POINT('',(45.65,60.,7.4));
#1838=CARTESIAN_POINT('Origin',(75.,52.5,17.5));
#1839=CARTESIAN_POINT('',(75.,52.5,17.5));
#1840=CARTESIAN_POINT('',(75.,55.5,17.5));
#1841=CARTESIAN_POINT('',(75.,52.5,17.5));
#1842=CARTESIAN_POINT('Origin',(75.,52.5,20.));
#1843=CARTESIAN_POINT('',(75.,52.5,20.));
#1844=CARTESIAN_POINT('',(75.,52.5,20.));
#1845=CARTESIAN_POINT('',(75.,52.5,20.));
#1846=CARTESIAN_POINT('Origin',(75.,42.5,20.));
#1847=CARTESIAN_POINT('',(75.,42.5,20.));
#1848=CARTESIAN_POINT('',(75.,42.5,20.));
#1849=CARTESIAN_POINT('',(75.,50.5,20.));
#1850=CARTESIAN_POINT('Origin',(75.,42.5,25.));
#1851=CARTESIAN_POINT('',(75.,42.5,22.5));
#1852=CARTESIAN_POINT('Origin',(75.,60.,27.5));
#1853=CARTESIAN_POINT('',(75.,59.25,27.5));
#1854=CARTESIAN_POINT('Origin',(75.,58.5,20.));
#1855=CARTESIAN_POINT('',(75.,57.,7.7715611723761E-15));
#1856=CARTESIAN_POINT('',(75.,57.,40.));
#1857=CARTESIAN_POINT('Origin',(61.3,60.,9.59999999999999));
#1858=CARTESIAN_POINT('',(61.3,60.,7.4));
#1859=CARTESIAN_POINT('',(61.3,60.,11.8));
#1860=CARTESIAN_POINT('Origin',(64.7,60.,11.8));
#1861=CARTESIAN_POINT('',(64.7,60.,11.8));
#1862=CARTESIAN_POINT('Origin',(64.7,60.,9.59999999999999));
#1863=CARTESIAN_POINT('',(64.7,60.,7.4));
#1864=CARTESIAN_POINT('Origin',(61.3,60.,7.4));
#1865=CARTESIAN_POINT('Origin',(35.3,60.,9.59999999999999));
#1866=CARTESIAN_POINT('',(35.3,60.,7.4));
#1867=CARTESIAN_POINT('',(35.3,60.,11.8));
#1868=CARTESIAN_POINT('Origin',(38.7,60.,11.8));
#1869=CARTESIAN_POINT('',(38.7,60.,11.8));
#1870=CARTESIAN_POINT('Origin',(38.7,60.,9.59999999999999));
#1871=CARTESIAN_POINT('',(38.7,60.,7.4));
#1872=CARTESIAN_POINT('Origin',(35.3,60.,7.4));
#1873=CARTESIAN_POINT('Origin',(35.3,60.,35.6));
#1874=CARTESIAN_POINT('',(35.3,60.,33.4));
#1875=CARTESIAN_POINT('',(35.3,60.,37.8));
#1876=CARTESIAN_POINT('Origin',(38.7,60.,37.8));
#1877=CARTESIAN_POINT('',(38.7,60.,37.8));
#1878=CARTESIAN_POINT('Origin',(38.7,60.,35.6));
#1879=CARTESIAN_POINT('',(38.7,60.,33.4));
#1880=CARTESIAN_POINT('Origin',(35.3,60.,33.4));
#1881=CARTESIAN_POINT('Origin',(61.3,60.,35.6));
#1882=CARTESIAN_POINT('',(61.3,60.,33.4));
#1883=CARTESIAN_POINT('',(61.3,60.,37.8));
#1884=CARTESIAN_POINT('Origin',(64.7,60.,37.8));
#1885=CARTESIAN_POINT('',(64.7,60.,37.8));
#1886=CARTESIAN_POINT('Origin',(64.7,60.,35.6));
#1887=CARTESIAN_POINT('',(64.7,60.,33.4));
#1888=CARTESIAN_POINT('Origin',(61.3,60.,33.4));
#1889=CARTESIAN_POINT('Origin',(48.5,60.,22.5));
#1890=CARTESIAN_POINT('',(48.5,60.,10.5));
#1891=CARTESIAN_POINT('',(48.5,60.,34.5));
#1892=CARTESIAN_POINT('Origin',(51.5,60.,34.5));
#1893=CARTESIAN_POINT('',(51.5,60.,34.5));
#1894=CARTESIAN_POINT('Origin',(51.5,60.,22.5));
#1895=CARTESIAN_POINT('',(51.5,60.,10.5));
#1896=CARTESIAN_POINT('Origin',(48.5,60.,10.5));
#1897=CARTESIAN_POINT('Origin',(30.,60.,40.));
#1898=CARTESIAN_POINT('',(30.,57.,40.));
#1899=CARTESIAN_POINT('Origin',(20.,58.5,22.6794919243112));
#1900=CARTESIAN_POINT('',(9.7927405783631,44.25,5.));
#1901=CARTESIAN_POINT('Origin',(24.,15.,0.));
#1902=CARTESIAN_POINT('',(24.,13.,0.));
#1903=CARTESIAN_POINT('',(24.,17.,0.));
#1904=CARTESIAN_POINT('Origin',(24.,15.,0.));
#1905=CARTESIAN_POINT('',(24.,13.,5.));
#1906=CARTESIAN_POINT('',(24.,13.,0.));
#1907=CARTESIAN_POINT('',(24.,17.,5.));
#1908=CARTESIAN_POINT('Origin',(24.,15.,5.));
#1909=CARTESIAN_POINT('',(24.,17.,0.));
#1910=CARTESIAN_POINT('Origin',(-24.,13.,0.));
#1911=CARTESIAN_POINT('',(-24.,13.,0.));
#1912=CARTESIAN_POINT('',(-12.,13.,0.));
#1913=CARTESIAN_POINT('',(-24.,13.,5.));
#1914=CARTESIAN_POINT('',(-24.,13.,0.));
#1915=CARTESIAN_POINT('',(-12.,13.,5.));
#1916=CARTESIAN_POINT('Origin',(-24.,15.,0.));
#1917=CARTESIAN_POINT('',(-24.,17.,0.));
#1918=CARTESIAN_POINT('Origin',(-24.,15.,0.));
#1919=CARTESIAN_POINT('',(-24.,17.,5.));
#1920=CARTESIAN_POINT('',(-24.,17.,0.));
#1921=CARTESIAN_POINT('Origin',(-24.,15.,5.));
#1922=CARTESIAN_POINT('Origin',(24.,17.,0.));
#1923=CARTESIAN_POINT('',(12.,17.,0.));
#1924=CARTESIAN_POINT('',(12.,17.,5.));
#1925=CARTESIAN_POINT('Origin',(-24.,45.,0.));
#1926=CARTESIAN_POINT('',(-24.,46.9999999999999,0.));
#1927=CARTESIAN_POINT('',(-24.,42.9999999999999,0.));
#1928=CARTESIAN_POINT('Origin',(-24.,45.,0.));
#1929=CARTESIAN_POINT('',(-24.,46.9999999999999,5.));
#1930=CARTESIAN_POINT('',(-24.,46.9999999999999,0.));
#1931=CARTESIAN_POINT('',(-24.,42.9999999999999,5.));
#1932=CARTESIAN_POINT('Origin',(-24.,45.,5.));
#1933=CARTESIAN_POINT('',(-24.,42.9999999999999,0.));
#1934=CARTESIAN_POINT('Origin',(24.,47.,0.));
#1935=CARTESIAN_POINT('',(24.,47.,0.));
#1936=CARTESIAN_POINT('',(12.,47.,0.));
#1937=CARTESIAN_POINT('',(24.,47.,5.));
#1938=CARTESIAN_POINT('',(24.,47.,0.));
#1939=CARTESIAN_POINT('',(12.,47.,5.));
#1940=CARTESIAN_POINT('Origin',(24.,45.,0.));
#1941=CARTESIAN_POINT('',(24.,43.,0.));
#1942=CARTESIAN_POINT('Origin',(24.,45.,0.));
#1943=CARTESIAN_POINT('',(24.,43.,5.));
#1944=CARTESIAN_POINT('',(24.,43.,0.));
#1945=CARTESIAN_POINT('Origin',(24.,45.,5.));
#1946=CARTESIAN_POINT('Origin',(-24.,42.9999999999999,0.));
#1947=CARTESIAN_POINT('',(-12.,42.9999999999999,0.));
#1948=CARTESIAN_POINT('',(-12.,42.9999999999999,5.));
#1949=CARTESIAN_POINT('Origin',(-30.,60.,0.));
#1950=CARTESIAN_POINT('',(-30.,0.,0.));
#1951=CARTESIAN_POINT('',(-30.,60.,0.));
#1952=CARTESIAN_POINT('',(-30.,0.,5.));
#1953=CARTESIAN_POINT('',(-30.,0.,0.));
#1954=CARTESIAN_POINT('',(-30.,60.,5.));
#1955=CARTESIAN_POINT('Origin',(30.,0.,0.));
#1956=CARTESIAN_POINT('',(30.,0.,5.));
#1957=CARTESIAN_POINT('',(30.,0.,5.));
#1958=CARTESIAN_POINT('',(30.,0.,0.));
#1959=CARTESIAN_POINT('',(30.,0.,0.));
#1960=CARTESIAN_POINT('',(30.,0.,0.));
#1961=CARTESIAN_POINT('Origin',(0.,0.,0.));
#1962=CARTESIAN_POINT('',(0.,0.,0.));
#1963=CARTESIAN_POINT('',(-30.,0.,5.));
#1964=CARTESIAN_POINT('Origin',(0.,30.,5.));
#1965=CARTESIAN_POINT('Origin',(0.,30.,0.));
#1966=CARTESIAN_POINT('',(0.,60.,0.));
#1967=UNCERTAINTY_MEASURE_WITH_UNIT(LENGTH_MEASURE(0.01),#1971,
'DISTANCE_ACCURACY_VALUE',
'Maximum model space distance between geometric entities at asserted c
onnectivities');
#1968=UNCERTAINTY_MEASURE_WITH_UNIT(LENGTH_MEASURE(0.01),#1971,
'DISTANCE_ACCURACY_VALUE',
'Maximum model space distance between geometric entities at asserted c
onnectivities');
#1969=(
GEOMETRIC_REPRESENTATION_CONTEXT(3)
GLOBAL_UNCERTAINTY_ASSIGNED_CONTEXT((#1967))
GLOBAL_UNIT_ASSIGNED_CONTEXT((#1971,#1973,#1974))
REPRESENTATION_CONTEXT('','3D')
);
#1970=(
GEOMETRIC_REPRESENTATION_CONTEXT(3)
GLOBAL_UNCERTAINTY_ASSIGNED_CONTEXT((#1968))
GLOBAL_UNIT_ASSIGNED_CONTEXT((#1971,#1973,#1974))
REPRESENTATION_CONTEXT('','3D')
);
#1971=(
LENGTH_UNIT()
NAMED_UNIT(*)
SI_UNIT(.MILLI.,.METRE.)
);
#1972=(
LENGTH_UNIT()
NAMED_UNIT(*)
SI_UNIT(.CENTI.,.METRE.)
);
#1973=(
NAMED_UNIT(*)
PLANE_ANGLE_UNIT()
SI_UNIT($,.RADIAN.)
);
#1974=(
NAMED_UNIT(*)
SI_UNIT($,.STERADIAN.)
SOLID_ANGLE_UNIT()
);
#1975=SHAPE_DEFINITION_REPRESENTATION(#1976,#1977);
#1976=PRODUCT_DEFINITION_SHAPE('',$,#1979);
#1977=SHAPE_REPRESENTATION('',(#1201),#1969);
#1978=PRODUCT_DEFINITION_CONTEXT('part definition',#1983,'design');
#1979=PRODUCT_DEFINITION('SupportV2_P2','MainSupport',#1980,#1978);
#1980=PRODUCT_DEFINITION_FORMATION('',$,#1985);
#1981=PRODUCT_RELATED_PRODUCT_CATEGORY('MainSupport','MainSupport',(#1985));
#1982=APPLICATION_PROTOCOL_DEFINITION('international standard',
'automotive_design',2009,#1983);
#1983=APPLICATION_CONTEXT(
'Core Data for Automotive Mechanical Design Process');
#1984=PRODUCT_CONTEXT('part definition',#1983,'mechanical');
#1985=PRODUCT('SupportV2_P2','MainSupport',$,(#1984));
#1986=PRESENTATION_STYLE_ASSIGNMENT((#1988));
#1987=PRESENTATION_STYLE_ASSIGNMENT((#1989));
#1988=SURFACE_STYLE_USAGE(.BOTH.,#1992);
#1989=SURFACE_STYLE_USAGE(.BOTH.,#1993);
#1990=SURFACE_STYLE_RENDERING_WITH_PROPERTIES($,#2000,(#1991));
#1991=SURFACE_STYLE_TRANSPARENT(0.);
#1992=SURFACE_SIDE_STYLE('',(#1994,#1990));
#1993=SURFACE_SIDE_STYLE('',(#1995));
#1994=SURFACE_STYLE_FILL_AREA(#1996);
#1995=SURFACE_STYLE_FILL_AREA(#1997);
#1996=FILL_AREA_STYLE('',(#1998));
#1997=FILL_AREA_STYLE('',(#1999));
#1998=FILL_AREA_STYLE_COLOUR('',#2000);
#1999=FILL_AREA_STYLE_COLOUR('',#2001);
#2000=COLOUR_RGB('',0.901960784313726,0.913725490196078,0.925490196078431);
#2001=COLOUR_RGB('',0.913725490196078,0.913725490196078,0.);
ENDSEC;
END-ISO-10303-21;
